M48
; DRILL file {KiCad 7.0.1} date Sat Dec  2 06:41:25 2023
; FORMAT={-:-/ absolute / metric / decimal}
; #@! TF.CreationDate,2023-12-02T06:41:25-07:00
; #@! TF.GenerationSoftware,Kicad,Pcbnew,7.0.1
; #@! TF.FileFunction,MixedPlating,1,2
FMAT,2
METRIC
; #@! TA.AperFunction,Plated,PTH,ComponentDrill
T1C0.800
; #@! TA.AperFunction,Plated,PTH,ComponentDrill
T2C1.000
; #@! TA.AperFunction,Plated,PTH,ComponentDrill
T3C1.270
; #@! TA.AperFunction,Plated,PTH,ComponentDrill
T4C1.600
%
G90
G05
T1
X109.92Y-40.25
X110.17Y-67.5
X110.17Y-81.75
X110.17Y-94.5
X110.42Y-53.675
X120.08Y-40.25
X120.33Y-67.5
X120.33Y-81.75
X120.33Y-94.5
X120.58Y-53.675
T2
X53.4Y-26.95
X53.4Y-29.51
X53.4Y-32.49
X53.4Y-35.05
X58.465Y-48.498
X58.465Y-51.038
X58.465Y-53.578
X58.465Y-56.118
X58.465Y-58.658
X58.465Y-61.198
X58.465Y-63.738
X58.465Y-66.278
X58.465Y-68.818
X58.465Y-71.358
X58.465Y-73.898
X58.465Y-76.438
X58.465Y-78.978
X58.465Y-81.518
X58.465Y-84.058
X58.465Y-86.598
X58.465Y-89.138
X58.465Y-91.678
X58.465Y-94.218
X83.861Y-91.675
X83.861Y-94.215
X83.865Y-48.498
X83.865Y-51.038
X83.865Y-53.578
X83.865Y-56.118
X83.865Y-58.658
X83.865Y-61.198
X83.865Y-63.738
X83.865Y-66.278
X83.865Y-68.818
X83.865Y-71.358
X83.865Y-73.898
X83.865Y-76.438
X83.865Y-78.978
X83.865Y-81.518
X83.865Y-84.058
X83.865Y-86.598
X83.865Y-89.138
X112.4Y-34.187
X112.5Y-75.9
X112.65Y-47.937
X112.65Y-61.937
X112.75Y-88.9
X117.6Y-34.187
X117.7Y-75.9
X117.85Y-47.937
X117.85Y-61.937
X117.95Y-88.9
T3
X48.5Y-47.75
X48.5Y-52.75
T4
X48.25Y-62.0
X48.25Y-66.72
X48.25Y-71.44
T0
M30
