%TF.GenerationSoftware,KiCad,Pcbnew,7.0.1*%
%TF.CreationDate,2023-12-02T06:41:28-07:00*%
%TF.ProjectId,ARC_Remote,4152435f-5265-46d6-9f74-652e6b696361,rev?*%
%TF.SameCoordinates,Original*%
%TF.FileFunction,Legend,Top*%
%TF.FilePolarity,Positive*%
%FSLAX46Y46*%
G04 Gerber Fmt 4.6, Leading zero omitted, Abs format (unit mm)*
G04 Created by KiCad (PCBNEW 7.0.1) date 2023-12-02 06:41:28*
%MOMM*%
%LPD*%
G01*
G04 APERTURE LIST*
%ADD10C,0.150000*%
%ADD11C,0.100000*%
%ADD12C,0.120000*%
G04 APERTURE END LIST*
D10*
%TO.C,R4*%
X115083333Y-84582619D02*
X114750000Y-84106428D01*
X114511905Y-84582619D02*
X114511905Y-83582619D01*
X114511905Y-83582619D02*
X114892857Y-83582619D01*
X114892857Y-83582619D02*
X114988095Y-83630238D01*
X114988095Y-83630238D02*
X115035714Y-83677857D01*
X115035714Y-83677857D02*
X115083333Y-83773095D01*
X115083333Y-83773095D02*
X115083333Y-83915952D01*
X115083333Y-83915952D02*
X115035714Y-84011190D01*
X115035714Y-84011190D02*
X114988095Y-84058809D01*
X114988095Y-84058809D02*
X114892857Y-84106428D01*
X114892857Y-84106428D02*
X114511905Y-84106428D01*
X115940476Y-83915952D02*
X115940476Y-84582619D01*
X115702381Y-83535000D02*
X115464286Y-84249285D01*
X115464286Y-84249285D02*
X116083333Y-84249285D01*
%TO.C,R5*%
X115083333Y-97332619D02*
X114750000Y-96856428D01*
X114511905Y-97332619D02*
X114511905Y-96332619D01*
X114511905Y-96332619D02*
X114892857Y-96332619D01*
X114892857Y-96332619D02*
X114988095Y-96380238D01*
X114988095Y-96380238D02*
X115035714Y-96427857D01*
X115035714Y-96427857D02*
X115083333Y-96523095D01*
X115083333Y-96523095D02*
X115083333Y-96665952D01*
X115083333Y-96665952D02*
X115035714Y-96761190D01*
X115035714Y-96761190D02*
X114988095Y-96808809D01*
X114988095Y-96808809D02*
X114892857Y-96856428D01*
X114892857Y-96856428D02*
X114511905Y-96856428D01*
X115988095Y-96332619D02*
X115511905Y-96332619D01*
X115511905Y-96332619D02*
X115464286Y-96808809D01*
X115464286Y-96808809D02*
X115511905Y-96761190D01*
X115511905Y-96761190D02*
X115607143Y-96713571D01*
X115607143Y-96713571D02*
X115845238Y-96713571D01*
X115845238Y-96713571D02*
X115940476Y-96761190D01*
X115940476Y-96761190D02*
X115988095Y-96808809D01*
X115988095Y-96808809D02*
X116035714Y-96904047D01*
X116035714Y-96904047D02*
X116035714Y-97142142D01*
X116035714Y-97142142D02*
X115988095Y-97237380D01*
X115988095Y-97237380D02*
X115940476Y-97285000D01*
X115940476Y-97285000D02*
X115845238Y-97332619D01*
X115845238Y-97332619D02*
X115607143Y-97332619D01*
X115607143Y-97332619D02*
X115511905Y-97285000D01*
X115511905Y-97285000D02*
X115464286Y-97237380D01*
%TO.C,U1*%
X70403082Y-45860746D02*
X70403082Y-46670269D01*
X70403082Y-46670269D02*
X70450701Y-46765507D01*
X70450701Y-46765507D02*
X70498320Y-46813127D01*
X70498320Y-46813127D02*
X70593558Y-46860746D01*
X70593558Y-46860746D02*
X70784034Y-46860746D01*
X70784034Y-46860746D02*
X70879272Y-46813127D01*
X70879272Y-46813127D02*
X70926891Y-46765507D01*
X70926891Y-46765507D02*
X70974510Y-46670269D01*
X70974510Y-46670269D02*
X70974510Y-45860746D01*
X71974510Y-46860746D02*
X71403082Y-46860746D01*
X71688796Y-46860746D02*
X71688796Y-45860746D01*
X71688796Y-45860746D02*
X71593558Y-46003603D01*
X71593558Y-46003603D02*
X71498320Y-46098841D01*
X71498320Y-46098841D02*
X71403082Y-46146460D01*
X71103796Y-78223364D02*
X71103796Y-77890031D01*
X71627606Y-77747174D02*
X71627606Y-78223364D01*
X71627606Y-78223364D02*
X70627606Y-78223364D01*
X70627606Y-78223364D02*
X70627606Y-77747174D01*
X71579987Y-77366221D02*
X71627606Y-77223364D01*
X71627606Y-77223364D02*
X71627606Y-76985269D01*
X71627606Y-76985269D02*
X71579987Y-76890031D01*
X71579987Y-76890031D02*
X71532367Y-76842412D01*
X71532367Y-76842412D02*
X71437129Y-76794793D01*
X71437129Y-76794793D02*
X71341891Y-76794793D01*
X71341891Y-76794793D02*
X71246653Y-76842412D01*
X71246653Y-76842412D02*
X71199034Y-76890031D01*
X71199034Y-76890031D02*
X71151415Y-76985269D01*
X71151415Y-76985269D02*
X71103796Y-77175745D01*
X71103796Y-77175745D02*
X71056177Y-77270983D01*
X71056177Y-77270983D02*
X71008558Y-77318602D01*
X71008558Y-77318602D02*
X70913320Y-77366221D01*
X70913320Y-77366221D02*
X70818082Y-77366221D01*
X70818082Y-77366221D02*
X70722844Y-77318602D01*
X70722844Y-77318602D02*
X70675225Y-77270983D01*
X70675225Y-77270983D02*
X70627606Y-77175745D01*
X70627606Y-77175745D02*
X70627606Y-76937650D01*
X70627606Y-76937650D02*
X70675225Y-76794793D01*
X71627606Y-76366221D02*
X70627606Y-76366221D01*
X70627606Y-76366221D02*
X70627606Y-75985269D01*
X70627606Y-75985269D02*
X70675225Y-75890031D01*
X70675225Y-75890031D02*
X70722844Y-75842412D01*
X70722844Y-75842412D02*
X70818082Y-75794793D01*
X70818082Y-75794793D02*
X70960939Y-75794793D01*
X70960939Y-75794793D02*
X71056177Y-75842412D01*
X71056177Y-75842412D02*
X71103796Y-75890031D01*
X71103796Y-75890031D02*
X71151415Y-75985269D01*
X71151415Y-75985269D02*
X71151415Y-76366221D01*
X70627606Y-75461459D02*
X70627606Y-74842412D01*
X70627606Y-74842412D02*
X71008558Y-75175745D01*
X71008558Y-75175745D02*
X71008558Y-75032888D01*
X71008558Y-75032888D02*
X71056177Y-74937650D01*
X71056177Y-74937650D02*
X71103796Y-74890031D01*
X71103796Y-74890031D02*
X71199034Y-74842412D01*
X71199034Y-74842412D02*
X71437129Y-74842412D01*
X71437129Y-74842412D02*
X71532367Y-74890031D01*
X71532367Y-74890031D02*
X71579987Y-74937650D01*
X71579987Y-74937650D02*
X71627606Y-75032888D01*
X71627606Y-75032888D02*
X71627606Y-75318602D01*
X71627606Y-75318602D02*
X71579987Y-75413840D01*
X71579987Y-75413840D02*
X71532367Y-75461459D01*
X70722844Y-74461459D02*
X70675225Y-74413840D01*
X70675225Y-74413840D02*
X70627606Y-74318602D01*
X70627606Y-74318602D02*
X70627606Y-74080507D01*
X70627606Y-74080507D02*
X70675225Y-73985269D01*
X70675225Y-73985269D02*
X70722844Y-73937650D01*
X70722844Y-73937650D02*
X70818082Y-73890031D01*
X70818082Y-73890031D02*
X70913320Y-73890031D01*
X70913320Y-73890031D02*
X71056177Y-73937650D01*
X71056177Y-73937650D02*
X71627606Y-74509078D01*
X71627606Y-74509078D02*
X71627606Y-73890031D01*
X71246653Y-73461459D02*
X71246653Y-72699555D01*
X71627606Y-72223364D02*
X70627606Y-72223364D01*
X70627606Y-72223364D02*
X70627606Y-71985269D01*
X70627606Y-71985269D02*
X70675225Y-71842412D01*
X70675225Y-71842412D02*
X70770463Y-71747174D01*
X70770463Y-71747174D02*
X70865701Y-71699555D01*
X70865701Y-71699555D02*
X71056177Y-71651936D01*
X71056177Y-71651936D02*
X71199034Y-71651936D01*
X71199034Y-71651936D02*
X71389510Y-71699555D01*
X71389510Y-71699555D02*
X71484748Y-71747174D01*
X71484748Y-71747174D02*
X71579987Y-71842412D01*
X71579987Y-71842412D02*
X71627606Y-71985269D01*
X71627606Y-71985269D02*
X71627606Y-72223364D01*
X71579987Y-70842412D02*
X71627606Y-70937650D01*
X71627606Y-70937650D02*
X71627606Y-71128126D01*
X71627606Y-71128126D02*
X71579987Y-71223364D01*
X71579987Y-71223364D02*
X71484748Y-71270983D01*
X71484748Y-71270983D02*
X71103796Y-71270983D01*
X71103796Y-71270983D02*
X71008558Y-71223364D01*
X71008558Y-71223364D02*
X70960939Y-71128126D01*
X70960939Y-71128126D02*
X70960939Y-70937650D01*
X70960939Y-70937650D02*
X71008558Y-70842412D01*
X71008558Y-70842412D02*
X71103796Y-70794793D01*
X71103796Y-70794793D02*
X71199034Y-70794793D01*
X71199034Y-70794793D02*
X71294272Y-71270983D01*
X70960939Y-70461459D02*
X71627606Y-70223364D01*
X71627606Y-70223364D02*
X70960939Y-69985269D01*
X71627606Y-69604316D02*
X70627606Y-69604316D01*
X71627606Y-69032888D02*
X71056177Y-69461459D01*
X70627606Y-69032888D02*
X71199034Y-69604316D01*
X71627606Y-68604316D02*
X70960939Y-68604316D01*
X70627606Y-68604316D02*
X70675225Y-68651935D01*
X70675225Y-68651935D02*
X70722844Y-68604316D01*
X70722844Y-68604316D02*
X70675225Y-68556697D01*
X70675225Y-68556697D02*
X70627606Y-68604316D01*
X70627606Y-68604316D02*
X70722844Y-68604316D01*
X70960939Y-68270983D02*
X70960939Y-67890031D01*
X70627606Y-68128126D02*
X71484748Y-68128126D01*
X71484748Y-68128126D02*
X71579987Y-68080507D01*
X71579987Y-68080507D02*
X71627606Y-67985269D01*
X71627606Y-67985269D02*
X71627606Y-67890031D01*
X71532367Y-66985269D02*
X71579987Y-67032888D01*
X71579987Y-67032888D02*
X71627606Y-67175745D01*
X71627606Y-67175745D02*
X71627606Y-67270983D01*
X71627606Y-67270983D02*
X71579987Y-67413840D01*
X71579987Y-67413840D02*
X71484748Y-67509078D01*
X71484748Y-67509078D02*
X71389510Y-67556697D01*
X71389510Y-67556697D02*
X71199034Y-67604316D01*
X71199034Y-67604316D02*
X71056177Y-67604316D01*
X71056177Y-67604316D02*
X70865701Y-67556697D01*
X70865701Y-67556697D02*
X70770463Y-67509078D01*
X70770463Y-67509078D02*
X70675225Y-67413840D01*
X70675225Y-67413840D02*
X70627606Y-67270983D01*
X70627606Y-67270983D02*
X70627606Y-67175745D01*
X70627606Y-67175745D02*
X70675225Y-67032888D01*
X70675225Y-67032888D02*
X70722844Y-66985269D01*
X60065592Y-50974216D02*
X60398925Y-50974216D01*
X60541782Y-51498026D02*
X60065592Y-51498026D01*
X60065592Y-51498026D02*
X60065592Y-50498026D01*
X60065592Y-50498026D02*
X60541782Y-50498026D01*
X60970354Y-51498026D02*
X60970354Y-50498026D01*
X60970354Y-50498026D02*
X61541782Y-51498026D01*
X61541782Y-51498026D02*
X61541782Y-50498026D01*
X62732258Y-50450407D02*
X61875116Y-51736121D01*
X63637020Y-51498026D02*
X63303687Y-51021835D01*
X63065592Y-51498026D02*
X63065592Y-50498026D01*
X63065592Y-50498026D02*
X63446544Y-50498026D01*
X63446544Y-50498026D02*
X63541782Y-50545645D01*
X63541782Y-50545645D02*
X63589401Y-50593264D01*
X63589401Y-50593264D02*
X63637020Y-50688502D01*
X63637020Y-50688502D02*
X63637020Y-50831359D01*
X63637020Y-50831359D02*
X63589401Y-50926597D01*
X63589401Y-50926597D02*
X63541782Y-50974216D01*
X63541782Y-50974216D02*
X63446544Y-51021835D01*
X63446544Y-51021835D02*
X63065592Y-51021835D01*
X64065592Y-50974216D02*
X64398925Y-50974216D01*
X64541782Y-51498026D02*
X64065592Y-51498026D01*
X64065592Y-51498026D02*
X64065592Y-50498026D01*
X64065592Y-50498026D02*
X64541782Y-50498026D01*
X64922735Y-51450407D02*
X65065592Y-51498026D01*
X65065592Y-51498026D02*
X65303687Y-51498026D01*
X65303687Y-51498026D02*
X65398925Y-51450407D01*
X65398925Y-51450407D02*
X65446544Y-51402787D01*
X65446544Y-51402787D02*
X65494163Y-51307549D01*
X65494163Y-51307549D02*
X65494163Y-51212311D01*
X65494163Y-51212311D02*
X65446544Y-51117073D01*
X65446544Y-51117073D02*
X65398925Y-51069454D01*
X65398925Y-51069454D02*
X65303687Y-51021835D01*
X65303687Y-51021835D02*
X65113211Y-50974216D01*
X65113211Y-50974216D02*
X65017973Y-50926597D01*
X65017973Y-50926597D02*
X64970354Y-50878978D01*
X64970354Y-50878978D02*
X64922735Y-50783740D01*
X64922735Y-50783740D02*
X64922735Y-50688502D01*
X64922735Y-50688502D02*
X64970354Y-50593264D01*
X64970354Y-50593264D02*
X65017973Y-50545645D01*
X65017973Y-50545645D02*
X65113211Y-50498026D01*
X65113211Y-50498026D02*
X65351306Y-50498026D01*
X65351306Y-50498026D02*
X65494163Y-50545645D01*
X65922735Y-50974216D02*
X66256068Y-50974216D01*
X66398925Y-51498026D02*
X65922735Y-51498026D01*
X65922735Y-51498026D02*
X65922735Y-50498026D01*
X65922735Y-50498026D02*
X66398925Y-50498026D01*
X66684640Y-50498026D02*
X67256068Y-50498026D01*
X66970354Y-51498026D02*
X66970354Y-50498026D01*
X60268320Y-63395293D02*
X60201653Y-63361960D01*
X60201653Y-63361960D02*
X60101653Y-63361960D01*
X60101653Y-63361960D02*
X60001653Y-63395293D01*
X60001653Y-63395293D02*
X59934987Y-63461960D01*
X59934987Y-63461960D02*
X59901653Y-63528627D01*
X59901653Y-63528627D02*
X59868320Y-63661960D01*
X59868320Y-63661960D02*
X59868320Y-63761960D01*
X59868320Y-63761960D02*
X59901653Y-63895293D01*
X59901653Y-63895293D02*
X59934987Y-63961960D01*
X59934987Y-63961960D02*
X60001653Y-64028627D01*
X60001653Y-64028627D02*
X60101653Y-64061960D01*
X60101653Y-64061960D02*
X60168320Y-64061960D01*
X60168320Y-64061960D02*
X60268320Y-64028627D01*
X60268320Y-64028627D02*
X60301653Y-63995293D01*
X60301653Y-63995293D02*
X60301653Y-63761960D01*
X60301653Y-63761960D02*
X60168320Y-63761960D01*
X60601653Y-64061960D02*
X60601653Y-63361960D01*
X60601653Y-63361960D02*
X60868320Y-63361960D01*
X60868320Y-63361960D02*
X60934987Y-63395293D01*
X60934987Y-63395293D02*
X60968320Y-63428627D01*
X60968320Y-63428627D02*
X61001653Y-63495293D01*
X61001653Y-63495293D02*
X61001653Y-63595293D01*
X61001653Y-63595293D02*
X60968320Y-63661960D01*
X60968320Y-63661960D02*
X60934987Y-63695293D01*
X60934987Y-63695293D02*
X60868320Y-63728627D01*
X60868320Y-63728627D02*
X60601653Y-63728627D01*
X61301653Y-64061960D02*
X61301653Y-63361960D01*
X61768320Y-63361960D02*
X61901653Y-63361960D01*
X61901653Y-63361960D02*
X61968320Y-63395293D01*
X61968320Y-63395293D02*
X62034986Y-63461960D01*
X62034986Y-63461960D02*
X62068320Y-63595293D01*
X62068320Y-63595293D02*
X62068320Y-63828627D01*
X62068320Y-63828627D02*
X62034986Y-63961960D01*
X62034986Y-63961960D02*
X61968320Y-64028627D01*
X61968320Y-64028627D02*
X61901653Y-64061960D01*
X61901653Y-64061960D02*
X61768320Y-64061960D01*
X61768320Y-64061960D02*
X61701653Y-64028627D01*
X61701653Y-64028627D02*
X61634986Y-63961960D01*
X61634986Y-63961960D02*
X61601653Y-63828627D01*
X61601653Y-63828627D02*
X61601653Y-63595293D01*
X61601653Y-63595293D02*
X61634986Y-63461960D01*
X61634986Y-63461960D02*
X61701653Y-63395293D01*
X61701653Y-63395293D02*
X61768320Y-63361960D01*
X62301653Y-63361960D02*
X62734986Y-63361960D01*
X62734986Y-63361960D02*
X62501653Y-63628627D01*
X62501653Y-63628627D02*
X62601653Y-63628627D01*
X62601653Y-63628627D02*
X62668319Y-63661960D01*
X62668319Y-63661960D02*
X62701653Y-63695293D01*
X62701653Y-63695293D02*
X62734986Y-63761960D01*
X62734986Y-63761960D02*
X62734986Y-63928627D01*
X62734986Y-63928627D02*
X62701653Y-63995293D01*
X62701653Y-63995293D02*
X62668319Y-64028627D01*
X62668319Y-64028627D02*
X62601653Y-64061960D01*
X62601653Y-64061960D02*
X62401653Y-64061960D01*
X62401653Y-64061960D02*
X62334986Y-64028627D01*
X62334986Y-64028627D02*
X62301653Y-63995293D01*
X63001653Y-63428627D02*
X63034986Y-63395293D01*
X63034986Y-63395293D02*
X63101653Y-63361960D01*
X63101653Y-63361960D02*
X63268320Y-63361960D01*
X63268320Y-63361960D02*
X63334986Y-63395293D01*
X63334986Y-63395293D02*
X63368320Y-63428627D01*
X63368320Y-63428627D02*
X63401653Y-63495293D01*
X63401653Y-63495293D02*
X63401653Y-63561960D01*
X63401653Y-63561960D02*
X63368320Y-63661960D01*
X63368320Y-63661960D02*
X62968320Y-64061960D01*
X62968320Y-64061960D02*
X63401653Y-64061960D01*
X60268320Y-58315293D02*
X60201653Y-58281960D01*
X60201653Y-58281960D02*
X60101653Y-58281960D01*
X60101653Y-58281960D02*
X60001653Y-58315293D01*
X60001653Y-58315293D02*
X59934987Y-58381960D01*
X59934987Y-58381960D02*
X59901653Y-58448627D01*
X59901653Y-58448627D02*
X59868320Y-58581960D01*
X59868320Y-58581960D02*
X59868320Y-58681960D01*
X59868320Y-58681960D02*
X59901653Y-58815293D01*
X59901653Y-58815293D02*
X59934987Y-58881960D01*
X59934987Y-58881960D02*
X60001653Y-58948627D01*
X60001653Y-58948627D02*
X60101653Y-58981960D01*
X60101653Y-58981960D02*
X60168320Y-58981960D01*
X60168320Y-58981960D02*
X60268320Y-58948627D01*
X60268320Y-58948627D02*
X60301653Y-58915293D01*
X60301653Y-58915293D02*
X60301653Y-58681960D01*
X60301653Y-58681960D02*
X60168320Y-58681960D01*
X60601653Y-58981960D02*
X60601653Y-58281960D01*
X60601653Y-58281960D02*
X60868320Y-58281960D01*
X60868320Y-58281960D02*
X60934987Y-58315293D01*
X60934987Y-58315293D02*
X60968320Y-58348627D01*
X60968320Y-58348627D02*
X61001653Y-58415293D01*
X61001653Y-58415293D02*
X61001653Y-58515293D01*
X61001653Y-58515293D02*
X60968320Y-58581960D01*
X60968320Y-58581960D02*
X60934987Y-58615293D01*
X60934987Y-58615293D02*
X60868320Y-58648627D01*
X60868320Y-58648627D02*
X60601653Y-58648627D01*
X61301653Y-58981960D02*
X61301653Y-58281960D01*
X61768320Y-58281960D02*
X61901653Y-58281960D01*
X61901653Y-58281960D02*
X61968320Y-58315293D01*
X61968320Y-58315293D02*
X62034986Y-58381960D01*
X62034986Y-58381960D02*
X62068320Y-58515293D01*
X62068320Y-58515293D02*
X62068320Y-58748627D01*
X62068320Y-58748627D02*
X62034986Y-58881960D01*
X62034986Y-58881960D02*
X61968320Y-58948627D01*
X61968320Y-58948627D02*
X61901653Y-58981960D01*
X61901653Y-58981960D02*
X61768320Y-58981960D01*
X61768320Y-58981960D02*
X61701653Y-58948627D01*
X61701653Y-58948627D02*
X61634986Y-58881960D01*
X61634986Y-58881960D02*
X61601653Y-58748627D01*
X61601653Y-58748627D02*
X61601653Y-58515293D01*
X61601653Y-58515293D02*
X61634986Y-58381960D01*
X61634986Y-58381960D02*
X61701653Y-58315293D01*
X61701653Y-58315293D02*
X61768320Y-58281960D01*
X62301653Y-58281960D02*
X62734986Y-58281960D01*
X62734986Y-58281960D02*
X62501653Y-58548627D01*
X62501653Y-58548627D02*
X62601653Y-58548627D01*
X62601653Y-58548627D02*
X62668319Y-58581960D01*
X62668319Y-58581960D02*
X62701653Y-58615293D01*
X62701653Y-58615293D02*
X62734986Y-58681960D01*
X62734986Y-58681960D02*
X62734986Y-58848627D01*
X62734986Y-58848627D02*
X62701653Y-58915293D01*
X62701653Y-58915293D02*
X62668319Y-58948627D01*
X62668319Y-58948627D02*
X62601653Y-58981960D01*
X62601653Y-58981960D02*
X62401653Y-58981960D01*
X62401653Y-58981960D02*
X62334986Y-58948627D01*
X62334986Y-58948627D02*
X62301653Y-58915293D01*
X63334986Y-58515293D02*
X63334986Y-58981960D01*
X63168320Y-58248627D02*
X63001653Y-58748627D01*
X63001653Y-58748627D02*
X63434986Y-58748627D01*
X79328320Y-53235293D02*
X79261653Y-53201960D01*
X79261653Y-53201960D02*
X79161653Y-53201960D01*
X79161653Y-53201960D02*
X79061653Y-53235293D01*
X79061653Y-53235293D02*
X78994987Y-53301960D01*
X78994987Y-53301960D02*
X78961653Y-53368627D01*
X78961653Y-53368627D02*
X78928320Y-53501960D01*
X78928320Y-53501960D02*
X78928320Y-53601960D01*
X78928320Y-53601960D02*
X78961653Y-53735293D01*
X78961653Y-53735293D02*
X78994987Y-53801960D01*
X78994987Y-53801960D02*
X79061653Y-53868627D01*
X79061653Y-53868627D02*
X79161653Y-53901960D01*
X79161653Y-53901960D02*
X79228320Y-53901960D01*
X79228320Y-53901960D02*
X79328320Y-53868627D01*
X79328320Y-53868627D02*
X79361653Y-53835293D01*
X79361653Y-53835293D02*
X79361653Y-53601960D01*
X79361653Y-53601960D02*
X79228320Y-53601960D01*
X79661653Y-53901960D02*
X79661653Y-53201960D01*
X79661653Y-53201960D02*
X79928320Y-53201960D01*
X79928320Y-53201960D02*
X79994987Y-53235293D01*
X79994987Y-53235293D02*
X80028320Y-53268627D01*
X80028320Y-53268627D02*
X80061653Y-53335293D01*
X80061653Y-53335293D02*
X80061653Y-53435293D01*
X80061653Y-53435293D02*
X80028320Y-53501960D01*
X80028320Y-53501960D02*
X79994987Y-53535293D01*
X79994987Y-53535293D02*
X79928320Y-53568627D01*
X79928320Y-53568627D02*
X79661653Y-53568627D01*
X80361653Y-53901960D02*
X80361653Y-53201960D01*
X80828320Y-53201960D02*
X80961653Y-53201960D01*
X80961653Y-53201960D02*
X81028320Y-53235293D01*
X81028320Y-53235293D02*
X81094986Y-53301960D01*
X81094986Y-53301960D02*
X81128320Y-53435293D01*
X81128320Y-53435293D02*
X81128320Y-53668627D01*
X81128320Y-53668627D02*
X81094986Y-53801960D01*
X81094986Y-53801960D02*
X81028320Y-53868627D01*
X81028320Y-53868627D02*
X80961653Y-53901960D01*
X80961653Y-53901960D02*
X80828320Y-53901960D01*
X80828320Y-53901960D02*
X80761653Y-53868627D01*
X80761653Y-53868627D02*
X80694986Y-53801960D01*
X80694986Y-53801960D02*
X80661653Y-53668627D01*
X80661653Y-53668627D02*
X80661653Y-53435293D01*
X80661653Y-53435293D02*
X80694986Y-53301960D01*
X80694986Y-53301960D02*
X80761653Y-53235293D01*
X80761653Y-53235293D02*
X80828320Y-53201960D01*
X81394986Y-53268627D02*
X81428319Y-53235293D01*
X81428319Y-53235293D02*
X81494986Y-53201960D01*
X81494986Y-53201960D02*
X81661653Y-53201960D01*
X81661653Y-53201960D02*
X81728319Y-53235293D01*
X81728319Y-53235293D02*
X81761653Y-53268627D01*
X81761653Y-53268627D02*
X81794986Y-53335293D01*
X81794986Y-53335293D02*
X81794986Y-53401960D01*
X81794986Y-53401960D02*
X81761653Y-53501960D01*
X81761653Y-53501960D02*
X81361653Y-53901960D01*
X81361653Y-53901960D02*
X81794986Y-53901960D01*
X82061653Y-53268627D02*
X82094986Y-53235293D01*
X82094986Y-53235293D02*
X82161653Y-53201960D01*
X82161653Y-53201960D02*
X82328320Y-53201960D01*
X82328320Y-53201960D02*
X82394986Y-53235293D01*
X82394986Y-53235293D02*
X82428320Y-53268627D01*
X82428320Y-53268627D02*
X82461653Y-53335293D01*
X82461653Y-53335293D02*
X82461653Y-53401960D01*
X82461653Y-53401960D02*
X82428320Y-53501960D01*
X82428320Y-53501960D02*
X82028320Y-53901960D01*
X82028320Y-53901960D02*
X82461653Y-53901960D01*
X60445592Y-93932026D02*
X59969402Y-93932026D01*
X59969402Y-93932026D02*
X59921783Y-94408216D01*
X59921783Y-94408216D02*
X59969402Y-94360597D01*
X59969402Y-94360597D02*
X60064640Y-94312978D01*
X60064640Y-94312978D02*
X60302735Y-94312978D01*
X60302735Y-94312978D02*
X60397973Y-94360597D01*
X60397973Y-94360597D02*
X60445592Y-94408216D01*
X60445592Y-94408216D02*
X60493211Y-94503454D01*
X60493211Y-94503454D02*
X60493211Y-94741549D01*
X60493211Y-94741549D02*
X60445592Y-94836787D01*
X60445592Y-94836787D02*
X60397973Y-94884407D01*
X60397973Y-94884407D02*
X60302735Y-94932026D01*
X60302735Y-94932026D02*
X60064640Y-94932026D01*
X60064640Y-94932026D02*
X59969402Y-94884407D01*
X59969402Y-94884407D02*
X59921783Y-94836787D01*
X60778926Y-93932026D02*
X61112259Y-94932026D01*
X61112259Y-94932026D02*
X61445592Y-93932026D01*
X80309272Y-63248365D02*
X80214034Y-63200746D01*
X80214034Y-63200746D02*
X80071177Y-63200746D01*
X80071177Y-63200746D02*
X79928320Y-63248365D01*
X79928320Y-63248365D02*
X79833082Y-63343603D01*
X79833082Y-63343603D02*
X79785463Y-63438841D01*
X79785463Y-63438841D02*
X79737844Y-63629317D01*
X79737844Y-63629317D02*
X79737844Y-63772174D01*
X79737844Y-63772174D02*
X79785463Y-63962650D01*
X79785463Y-63962650D02*
X79833082Y-64057888D01*
X79833082Y-64057888D02*
X79928320Y-64153127D01*
X79928320Y-64153127D02*
X80071177Y-64200746D01*
X80071177Y-64200746D02*
X80166415Y-64200746D01*
X80166415Y-64200746D02*
X80309272Y-64153127D01*
X80309272Y-64153127D02*
X80356891Y-64105507D01*
X80356891Y-64105507D02*
X80356891Y-63772174D01*
X80356891Y-63772174D02*
X80166415Y-63772174D01*
X80785463Y-64200746D02*
X80785463Y-63200746D01*
X80785463Y-63200746D02*
X81356891Y-64200746D01*
X81356891Y-64200746D02*
X81356891Y-63200746D01*
X81833082Y-64200746D02*
X81833082Y-63200746D01*
X81833082Y-63200746D02*
X82071177Y-63200746D01*
X82071177Y-63200746D02*
X82214034Y-63248365D01*
X82214034Y-63248365D02*
X82309272Y-63343603D01*
X82309272Y-63343603D02*
X82356891Y-63438841D01*
X82356891Y-63438841D02*
X82404510Y-63629317D01*
X82404510Y-63629317D02*
X82404510Y-63772174D01*
X82404510Y-63772174D02*
X82356891Y-63962650D01*
X82356891Y-63962650D02*
X82309272Y-64057888D01*
X82309272Y-64057888D02*
X82214034Y-64153127D01*
X82214034Y-64153127D02*
X82071177Y-64200746D01*
X82071177Y-64200746D02*
X81833082Y-64200746D01*
X75961654Y-55775293D02*
X75894987Y-55741960D01*
X75894987Y-55741960D02*
X75794987Y-55741960D01*
X75794987Y-55741960D02*
X75694987Y-55775293D01*
X75694987Y-55775293D02*
X75628321Y-55841960D01*
X75628321Y-55841960D02*
X75594987Y-55908627D01*
X75594987Y-55908627D02*
X75561654Y-56041960D01*
X75561654Y-56041960D02*
X75561654Y-56141960D01*
X75561654Y-56141960D02*
X75594987Y-56275293D01*
X75594987Y-56275293D02*
X75628321Y-56341960D01*
X75628321Y-56341960D02*
X75694987Y-56408627D01*
X75694987Y-56408627D02*
X75794987Y-56441960D01*
X75794987Y-56441960D02*
X75861654Y-56441960D01*
X75861654Y-56441960D02*
X75961654Y-56408627D01*
X75961654Y-56408627D02*
X75994987Y-56375293D01*
X75994987Y-56375293D02*
X75994987Y-56141960D01*
X75994987Y-56141960D02*
X75861654Y-56141960D01*
X76294987Y-56441960D02*
X76294987Y-55741960D01*
X76294987Y-55741960D02*
X76561654Y-55741960D01*
X76561654Y-55741960D02*
X76628321Y-55775293D01*
X76628321Y-55775293D02*
X76661654Y-55808627D01*
X76661654Y-55808627D02*
X76694987Y-55875293D01*
X76694987Y-55875293D02*
X76694987Y-55975293D01*
X76694987Y-55975293D02*
X76661654Y-56041960D01*
X76661654Y-56041960D02*
X76628321Y-56075293D01*
X76628321Y-56075293D02*
X76561654Y-56108627D01*
X76561654Y-56108627D02*
X76294987Y-56108627D01*
X76994987Y-56441960D02*
X76994987Y-55741960D01*
X77461654Y-55741960D02*
X77594987Y-55741960D01*
X77594987Y-55741960D02*
X77661654Y-55775293D01*
X77661654Y-55775293D02*
X77728320Y-55841960D01*
X77728320Y-55841960D02*
X77761654Y-55975293D01*
X77761654Y-55975293D02*
X77761654Y-56208627D01*
X77761654Y-56208627D02*
X77728320Y-56341960D01*
X77728320Y-56341960D02*
X77661654Y-56408627D01*
X77661654Y-56408627D02*
X77594987Y-56441960D01*
X77594987Y-56441960D02*
X77461654Y-56441960D01*
X77461654Y-56441960D02*
X77394987Y-56408627D01*
X77394987Y-56408627D02*
X77328320Y-56341960D01*
X77328320Y-56341960D02*
X77294987Y-56208627D01*
X77294987Y-56208627D02*
X77294987Y-55975293D01*
X77294987Y-55975293D02*
X77328320Y-55841960D01*
X77328320Y-55841960D02*
X77394987Y-55775293D01*
X77394987Y-55775293D02*
X77461654Y-55741960D01*
X78428320Y-56441960D02*
X78028320Y-56441960D01*
X78228320Y-56441960D02*
X78228320Y-55741960D01*
X78228320Y-55741960D02*
X78161653Y-55841960D01*
X78161653Y-55841960D02*
X78094987Y-55908627D01*
X78094987Y-55908627D02*
X78028320Y-55941960D01*
X79228320Y-55708627D02*
X78628320Y-56608627D01*
X79461653Y-55741960D02*
X79461653Y-56308627D01*
X79461653Y-56308627D02*
X79494987Y-56375293D01*
X79494987Y-56375293D02*
X79528320Y-56408627D01*
X79528320Y-56408627D02*
X79594987Y-56441960D01*
X79594987Y-56441960D02*
X79728320Y-56441960D01*
X79728320Y-56441960D02*
X79794987Y-56408627D01*
X79794987Y-56408627D02*
X79828320Y-56375293D01*
X79828320Y-56375293D02*
X79861653Y-56308627D01*
X79861653Y-56308627D02*
X79861653Y-55741960D01*
X80328320Y-55741960D02*
X80394986Y-55741960D01*
X80394986Y-55741960D02*
X80461653Y-55775293D01*
X80461653Y-55775293D02*
X80494986Y-55808627D01*
X80494986Y-55808627D02*
X80528320Y-55875293D01*
X80528320Y-55875293D02*
X80561653Y-56008627D01*
X80561653Y-56008627D02*
X80561653Y-56175293D01*
X80561653Y-56175293D02*
X80528320Y-56308627D01*
X80528320Y-56308627D02*
X80494986Y-56375293D01*
X80494986Y-56375293D02*
X80461653Y-56408627D01*
X80461653Y-56408627D02*
X80394986Y-56441960D01*
X80394986Y-56441960D02*
X80328320Y-56441960D01*
X80328320Y-56441960D02*
X80261653Y-56408627D01*
X80261653Y-56408627D02*
X80228320Y-56375293D01*
X80228320Y-56375293D02*
X80194986Y-56308627D01*
X80194986Y-56308627D02*
X80161653Y-56175293D01*
X80161653Y-56175293D02*
X80161653Y-56008627D01*
X80161653Y-56008627D02*
X80194986Y-55875293D01*
X80194986Y-55875293D02*
X80228320Y-55808627D01*
X80228320Y-55808627D02*
X80261653Y-55775293D01*
X80261653Y-55775293D02*
X80328320Y-55741960D01*
X80761653Y-55741960D02*
X81161653Y-55741960D01*
X80961653Y-56441960D02*
X80961653Y-55741960D01*
X81328320Y-55741960D02*
X81794986Y-56441960D01*
X81794986Y-55741960D02*
X81328320Y-56441960D01*
X82061653Y-56441960D02*
X82061653Y-55741960D01*
X82061653Y-55741960D02*
X82228320Y-55741960D01*
X82228320Y-55741960D02*
X82328320Y-55775293D01*
X82328320Y-55775293D02*
X82394987Y-55841960D01*
X82394987Y-55841960D02*
X82428320Y-55908627D01*
X82428320Y-55908627D02*
X82461653Y-56041960D01*
X82461653Y-56041960D02*
X82461653Y-56141960D01*
X82461653Y-56141960D02*
X82428320Y-56275293D01*
X82428320Y-56275293D02*
X82394987Y-56341960D01*
X82394987Y-56341960D02*
X82328320Y-56408627D01*
X82328320Y-56408627D02*
X82228320Y-56441960D01*
X82228320Y-56441960D02*
X82061653Y-56441960D01*
X60301653Y-91935293D02*
X60268320Y-91968627D01*
X60268320Y-91968627D02*
X60168320Y-92001960D01*
X60168320Y-92001960D02*
X60101653Y-92001960D01*
X60101653Y-92001960D02*
X60001653Y-91968627D01*
X60001653Y-91968627D02*
X59934987Y-91901960D01*
X59934987Y-91901960D02*
X59901653Y-91835293D01*
X59901653Y-91835293D02*
X59868320Y-91701960D01*
X59868320Y-91701960D02*
X59868320Y-91601960D01*
X59868320Y-91601960D02*
X59901653Y-91468627D01*
X59901653Y-91468627D02*
X59934987Y-91401960D01*
X59934987Y-91401960D02*
X60001653Y-91335293D01*
X60001653Y-91335293D02*
X60101653Y-91301960D01*
X60101653Y-91301960D02*
X60168320Y-91301960D01*
X60168320Y-91301960D02*
X60268320Y-91335293D01*
X60268320Y-91335293D02*
X60301653Y-91368627D01*
X60601653Y-92001960D02*
X60601653Y-91301960D01*
X60601653Y-91301960D02*
X60834987Y-91801960D01*
X60834987Y-91801960D02*
X61068320Y-91301960D01*
X61068320Y-91301960D02*
X61068320Y-92001960D01*
X61401653Y-92001960D02*
X61401653Y-91301960D01*
X61401653Y-91301960D02*
X61568320Y-91301960D01*
X61568320Y-91301960D02*
X61668320Y-91335293D01*
X61668320Y-91335293D02*
X61734987Y-91401960D01*
X61734987Y-91401960D02*
X61768320Y-91468627D01*
X61768320Y-91468627D02*
X61801653Y-91601960D01*
X61801653Y-91601960D02*
X61801653Y-91701960D01*
X61801653Y-91701960D02*
X61768320Y-91835293D01*
X61768320Y-91835293D02*
X61734987Y-91901960D01*
X61734987Y-91901960D02*
X61668320Y-91968627D01*
X61668320Y-91968627D02*
X61568320Y-92001960D01*
X61568320Y-92001960D02*
X61401653Y-92001960D01*
X60268320Y-78635293D02*
X60201653Y-78601960D01*
X60201653Y-78601960D02*
X60101653Y-78601960D01*
X60101653Y-78601960D02*
X60001653Y-78635293D01*
X60001653Y-78635293D02*
X59934987Y-78701960D01*
X59934987Y-78701960D02*
X59901653Y-78768627D01*
X59901653Y-78768627D02*
X59868320Y-78901960D01*
X59868320Y-78901960D02*
X59868320Y-79001960D01*
X59868320Y-79001960D02*
X59901653Y-79135293D01*
X59901653Y-79135293D02*
X59934987Y-79201960D01*
X59934987Y-79201960D02*
X60001653Y-79268627D01*
X60001653Y-79268627D02*
X60101653Y-79301960D01*
X60101653Y-79301960D02*
X60168320Y-79301960D01*
X60168320Y-79301960D02*
X60268320Y-79268627D01*
X60268320Y-79268627D02*
X60301653Y-79235293D01*
X60301653Y-79235293D02*
X60301653Y-79001960D01*
X60301653Y-79001960D02*
X60168320Y-79001960D01*
X60601653Y-79301960D02*
X60601653Y-78601960D01*
X60601653Y-78601960D02*
X60868320Y-78601960D01*
X60868320Y-78601960D02*
X60934987Y-78635293D01*
X60934987Y-78635293D02*
X60968320Y-78668627D01*
X60968320Y-78668627D02*
X61001653Y-78735293D01*
X61001653Y-78735293D02*
X61001653Y-78835293D01*
X61001653Y-78835293D02*
X60968320Y-78901960D01*
X60968320Y-78901960D02*
X60934987Y-78935293D01*
X60934987Y-78935293D02*
X60868320Y-78968627D01*
X60868320Y-78968627D02*
X60601653Y-78968627D01*
X61301653Y-79301960D02*
X61301653Y-78601960D01*
X61768320Y-78601960D02*
X61901653Y-78601960D01*
X61901653Y-78601960D02*
X61968320Y-78635293D01*
X61968320Y-78635293D02*
X62034986Y-78701960D01*
X62034986Y-78701960D02*
X62068320Y-78835293D01*
X62068320Y-78835293D02*
X62068320Y-79068627D01*
X62068320Y-79068627D02*
X62034986Y-79201960D01*
X62034986Y-79201960D02*
X61968320Y-79268627D01*
X61968320Y-79268627D02*
X61901653Y-79301960D01*
X61901653Y-79301960D02*
X61768320Y-79301960D01*
X61768320Y-79301960D02*
X61701653Y-79268627D01*
X61701653Y-79268627D02*
X61634986Y-79201960D01*
X61634986Y-79201960D02*
X61601653Y-79068627D01*
X61601653Y-79068627D02*
X61601653Y-78835293D01*
X61601653Y-78835293D02*
X61634986Y-78701960D01*
X61634986Y-78701960D02*
X61701653Y-78635293D01*
X61701653Y-78635293D02*
X61768320Y-78601960D01*
X62734986Y-79301960D02*
X62334986Y-79301960D01*
X62534986Y-79301960D02*
X62534986Y-78601960D01*
X62534986Y-78601960D02*
X62468319Y-78701960D01*
X62468319Y-78701960D02*
X62401653Y-78768627D01*
X62401653Y-78768627D02*
X62334986Y-78801960D01*
X63001653Y-78668627D02*
X63034986Y-78635293D01*
X63034986Y-78635293D02*
X63101653Y-78601960D01*
X63101653Y-78601960D02*
X63268320Y-78601960D01*
X63268320Y-78601960D02*
X63334986Y-78635293D01*
X63334986Y-78635293D02*
X63368320Y-78668627D01*
X63368320Y-78668627D02*
X63401653Y-78735293D01*
X63401653Y-78735293D02*
X63401653Y-78801960D01*
X63401653Y-78801960D02*
X63368320Y-78901960D01*
X63368320Y-78901960D02*
X62968320Y-79301960D01*
X62968320Y-79301960D02*
X63401653Y-79301960D01*
X64201653Y-78568627D02*
X63601653Y-79468627D01*
X64434986Y-79301960D02*
X64434986Y-78601960D01*
X64434986Y-78601960D02*
X64668320Y-79101960D01*
X64668320Y-79101960D02*
X64901653Y-78601960D01*
X64901653Y-78601960D02*
X64901653Y-79301960D01*
X65134986Y-78601960D02*
X65534986Y-78601960D01*
X65334986Y-79301960D02*
X65334986Y-78601960D01*
X65768319Y-79301960D02*
X65768319Y-78601960D01*
X65768319Y-78601960D02*
X65934986Y-78601960D01*
X65934986Y-78601960D02*
X66034986Y-78635293D01*
X66034986Y-78635293D02*
X66101653Y-78701960D01*
X66101653Y-78701960D02*
X66134986Y-78768627D01*
X66134986Y-78768627D02*
X66168319Y-78901960D01*
X66168319Y-78901960D02*
X66168319Y-79001960D01*
X66168319Y-79001960D02*
X66134986Y-79135293D01*
X66134986Y-79135293D02*
X66101653Y-79201960D01*
X66101653Y-79201960D02*
X66034986Y-79268627D01*
X66034986Y-79268627D02*
X65934986Y-79301960D01*
X65934986Y-79301960D02*
X65768319Y-79301960D01*
X66468319Y-79301960D02*
X66468319Y-78601960D01*
X60268320Y-65935293D02*
X60201653Y-65901960D01*
X60201653Y-65901960D02*
X60101653Y-65901960D01*
X60101653Y-65901960D02*
X60001653Y-65935293D01*
X60001653Y-65935293D02*
X59934987Y-66001960D01*
X59934987Y-66001960D02*
X59901653Y-66068627D01*
X59901653Y-66068627D02*
X59868320Y-66201960D01*
X59868320Y-66201960D02*
X59868320Y-66301960D01*
X59868320Y-66301960D02*
X59901653Y-66435293D01*
X59901653Y-66435293D02*
X59934987Y-66501960D01*
X59934987Y-66501960D02*
X60001653Y-66568627D01*
X60001653Y-66568627D02*
X60101653Y-66601960D01*
X60101653Y-66601960D02*
X60168320Y-66601960D01*
X60168320Y-66601960D02*
X60268320Y-66568627D01*
X60268320Y-66568627D02*
X60301653Y-66535293D01*
X60301653Y-66535293D02*
X60301653Y-66301960D01*
X60301653Y-66301960D02*
X60168320Y-66301960D01*
X60601653Y-66601960D02*
X60601653Y-65901960D01*
X60601653Y-65901960D02*
X60868320Y-65901960D01*
X60868320Y-65901960D02*
X60934987Y-65935293D01*
X60934987Y-65935293D02*
X60968320Y-65968627D01*
X60968320Y-65968627D02*
X61001653Y-66035293D01*
X61001653Y-66035293D02*
X61001653Y-66135293D01*
X61001653Y-66135293D02*
X60968320Y-66201960D01*
X60968320Y-66201960D02*
X60934987Y-66235293D01*
X60934987Y-66235293D02*
X60868320Y-66268627D01*
X60868320Y-66268627D02*
X60601653Y-66268627D01*
X61301653Y-66601960D02*
X61301653Y-65901960D01*
X61768320Y-65901960D02*
X61901653Y-65901960D01*
X61901653Y-65901960D02*
X61968320Y-65935293D01*
X61968320Y-65935293D02*
X62034986Y-66001960D01*
X62034986Y-66001960D02*
X62068320Y-66135293D01*
X62068320Y-66135293D02*
X62068320Y-66368627D01*
X62068320Y-66368627D02*
X62034986Y-66501960D01*
X62034986Y-66501960D02*
X61968320Y-66568627D01*
X61968320Y-66568627D02*
X61901653Y-66601960D01*
X61901653Y-66601960D02*
X61768320Y-66601960D01*
X61768320Y-66601960D02*
X61701653Y-66568627D01*
X61701653Y-66568627D02*
X61634986Y-66501960D01*
X61634986Y-66501960D02*
X61601653Y-66368627D01*
X61601653Y-66368627D02*
X61601653Y-66135293D01*
X61601653Y-66135293D02*
X61634986Y-66001960D01*
X61634986Y-66001960D02*
X61701653Y-65935293D01*
X61701653Y-65935293D02*
X61768320Y-65901960D01*
X62301653Y-65901960D02*
X62734986Y-65901960D01*
X62734986Y-65901960D02*
X62501653Y-66168627D01*
X62501653Y-66168627D02*
X62601653Y-66168627D01*
X62601653Y-66168627D02*
X62668319Y-66201960D01*
X62668319Y-66201960D02*
X62701653Y-66235293D01*
X62701653Y-66235293D02*
X62734986Y-66301960D01*
X62734986Y-66301960D02*
X62734986Y-66468627D01*
X62734986Y-66468627D02*
X62701653Y-66535293D01*
X62701653Y-66535293D02*
X62668319Y-66568627D01*
X62668319Y-66568627D02*
X62601653Y-66601960D01*
X62601653Y-66601960D02*
X62401653Y-66601960D01*
X62401653Y-66601960D02*
X62334986Y-66568627D01*
X62334986Y-66568627D02*
X62301653Y-66535293D01*
X62968320Y-65901960D02*
X63401653Y-65901960D01*
X63401653Y-65901960D02*
X63168320Y-66168627D01*
X63168320Y-66168627D02*
X63268320Y-66168627D01*
X63268320Y-66168627D02*
X63334986Y-66201960D01*
X63334986Y-66201960D02*
X63368320Y-66235293D01*
X63368320Y-66235293D02*
X63401653Y-66301960D01*
X63401653Y-66301960D02*
X63401653Y-66468627D01*
X63401653Y-66468627D02*
X63368320Y-66535293D01*
X63368320Y-66535293D02*
X63334986Y-66568627D01*
X63334986Y-66568627D02*
X63268320Y-66601960D01*
X63268320Y-66601960D02*
X63068320Y-66601960D01*
X63068320Y-66601960D02*
X63001653Y-66568627D01*
X63001653Y-66568627D02*
X62968320Y-66535293D01*
X59801653Y-53201960D02*
X60034987Y-53901960D01*
X60034987Y-53901960D02*
X60268320Y-53201960D01*
X60501653Y-53901960D02*
X60501653Y-53201960D01*
X60501653Y-53201960D02*
X60768320Y-53201960D01*
X60768320Y-53201960D02*
X60834987Y-53235293D01*
X60834987Y-53235293D02*
X60868320Y-53268627D01*
X60868320Y-53268627D02*
X60901653Y-53335293D01*
X60901653Y-53335293D02*
X60901653Y-53435293D01*
X60901653Y-53435293D02*
X60868320Y-53501960D01*
X60868320Y-53501960D02*
X60834987Y-53535293D01*
X60834987Y-53535293D02*
X60768320Y-53568627D01*
X60768320Y-53568627D02*
X60501653Y-53568627D01*
X61701653Y-53168627D02*
X61101653Y-54068627D01*
X62301653Y-53235293D02*
X62234986Y-53201960D01*
X62234986Y-53201960D02*
X62134986Y-53201960D01*
X62134986Y-53201960D02*
X62034986Y-53235293D01*
X62034986Y-53235293D02*
X61968320Y-53301960D01*
X61968320Y-53301960D02*
X61934986Y-53368627D01*
X61934986Y-53368627D02*
X61901653Y-53501960D01*
X61901653Y-53501960D02*
X61901653Y-53601960D01*
X61901653Y-53601960D02*
X61934986Y-53735293D01*
X61934986Y-53735293D02*
X61968320Y-53801960D01*
X61968320Y-53801960D02*
X62034986Y-53868627D01*
X62034986Y-53868627D02*
X62134986Y-53901960D01*
X62134986Y-53901960D02*
X62201653Y-53901960D01*
X62201653Y-53901960D02*
X62301653Y-53868627D01*
X62301653Y-53868627D02*
X62334986Y-53835293D01*
X62334986Y-53835293D02*
X62334986Y-53601960D01*
X62334986Y-53601960D02*
X62201653Y-53601960D01*
X62634986Y-53901960D02*
X62634986Y-53201960D01*
X62634986Y-53201960D02*
X62901653Y-53201960D01*
X62901653Y-53201960D02*
X62968320Y-53235293D01*
X62968320Y-53235293D02*
X63001653Y-53268627D01*
X63001653Y-53268627D02*
X63034986Y-53335293D01*
X63034986Y-53335293D02*
X63034986Y-53435293D01*
X63034986Y-53435293D02*
X63001653Y-53501960D01*
X63001653Y-53501960D02*
X62968320Y-53535293D01*
X62968320Y-53535293D02*
X62901653Y-53568627D01*
X62901653Y-53568627D02*
X62634986Y-53568627D01*
X63334986Y-53901960D02*
X63334986Y-53201960D01*
X63801653Y-53201960D02*
X63934986Y-53201960D01*
X63934986Y-53201960D02*
X64001653Y-53235293D01*
X64001653Y-53235293D02*
X64068319Y-53301960D01*
X64068319Y-53301960D02*
X64101653Y-53435293D01*
X64101653Y-53435293D02*
X64101653Y-53668627D01*
X64101653Y-53668627D02*
X64068319Y-53801960D01*
X64068319Y-53801960D02*
X64001653Y-53868627D01*
X64001653Y-53868627D02*
X63934986Y-53901960D01*
X63934986Y-53901960D02*
X63801653Y-53901960D01*
X63801653Y-53901960D02*
X63734986Y-53868627D01*
X63734986Y-53868627D02*
X63668319Y-53801960D01*
X63668319Y-53801960D02*
X63634986Y-53668627D01*
X63634986Y-53668627D02*
X63634986Y-53435293D01*
X63634986Y-53435293D02*
X63668319Y-53301960D01*
X63668319Y-53301960D02*
X63734986Y-53235293D01*
X63734986Y-53235293D02*
X63801653Y-53201960D01*
X64334986Y-53201960D02*
X64768319Y-53201960D01*
X64768319Y-53201960D02*
X64534986Y-53468627D01*
X64534986Y-53468627D02*
X64634986Y-53468627D01*
X64634986Y-53468627D02*
X64701652Y-53501960D01*
X64701652Y-53501960D02*
X64734986Y-53535293D01*
X64734986Y-53535293D02*
X64768319Y-53601960D01*
X64768319Y-53601960D02*
X64768319Y-53768627D01*
X64768319Y-53768627D02*
X64734986Y-53835293D01*
X64734986Y-53835293D02*
X64701652Y-53868627D01*
X64701652Y-53868627D02*
X64634986Y-53901960D01*
X64634986Y-53901960D02*
X64434986Y-53901960D01*
X64434986Y-53901960D02*
X64368319Y-53868627D01*
X64368319Y-53868627D02*
X64334986Y-53835293D01*
X65368319Y-53201960D02*
X65234986Y-53201960D01*
X65234986Y-53201960D02*
X65168319Y-53235293D01*
X65168319Y-53235293D02*
X65134986Y-53268627D01*
X65134986Y-53268627D02*
X65068319Y-53368627D01*
X65068319Y-53368627D02*
X65034986Y-53501960D01*
X65034986Y-53501960D02*
X65034986Y-53768627D01*
X65034986Y-53768627D02*
X65068319Y-53835293D01*
X65068319Y-53835293D02*
X65101653Y-53868627D01*
X65101653Y-53868627D02*
X65168319Y-53901960D01*
X65168319Y-53901960D02*
X65301653Y-53901960D01*
X65301653Y-53901960D02*
X65368319Y-53868627D01*
X65368319Y-53868627D02*
X65401653Y-53835293D01*
X65401653Y-53835293D02*
X65434986Y-53768627D01*
X65434986Y-53768627D02*
X65434986Y-53601960D01*
X65434986Y-53601960D02*
X65401653Y-53535293D01*
X65401653Y-53535293D02*
X65368319Y-53501960D01*
X65368319Y-53501960D02*
X65301653Y-53468627D01*
X65301653Y-53468627D02*
X65168319Y-53468627D01*
X65168319Y-53468627D02*
X65101653Y-53501960D01*
X65101653Y-53501960D02*
X65068319Y-53535293D01*
X65068319Y-53535293D02*
X65034986Y-53601960D01*
X75794987Y-58315293D02*
X75728320Y-58281960D01*
X75728320Y-58281960D02*
X75628320Y-58281960D01*
X75628320Y-58281960D02*
X75528320Y-58315293D01*
X75528320Y-58315293D02*
X75461654Y-58381960D01*
X75461654Y-58381960D02*
X75428320Y-58448627D01*
X75428320Y-58448627D02*
X75394987Y-58581960D01*
X75394987Y-58581960D02*
X75394987Y-58681960D01*
X75394987Y-58681960D02*
X75428320Y-58815293D01*
X75428320Y-58815293D02*
X75461654Y-58881960D01*
X75461654Y-58881960D02*
X75528320Y-58948627D01*
X75528320Y-58948627D02*
X75628320Y-58981960D01*
X75628320Y-58981960D02*
X75694987Y-58981960D01*
X75694987Y-58981960D02*
X75794987Y-58948627D01*
X75794987Y-58948627D02*
X75828320Y-58915293D01*
X75828320Y-58915293D02*
X75828320Y-58681960D01*
X75828320Y-58681960D02*
X75694987Y-58681960D01*
X76128320Y-58981960D02*
X76128320Y-58281960D01*
X76128320Y-58281960D02*
X76394987Y-58281960D01*
X76394987Y-58281960D02*
X76461654Y-58315293D01*
X76461654Y-58315293D02*
X76494987Y-58348627D01*
X76494987Y-58348627D02*
X76528320Y-58415293D01*
X76528320Y-58415293D02*
X76528320Y-58515293D01*
X76528320Y-58515293D02*
X76494987Y-58581960D01*
X76494987Y-58581960D02*
X76461654Y-58615293D01*
X76461654Y-58615293D02*
X76394987Y-58648627D01*
X76394987Y-58648627D02*
X76128320Y-58648627D01*
X76828320Y-58981960D02*
X76828320Y-58281960D01*
X77294987Y-58281960D02*
X77428320Y-58281960D01*
X77428320Y-58281960D02*
X77494987Y-58315293D01*
X77494987Y-58315293D02*
X77561653Y-58381960D01*
X77561653Y-58381960D02*
X77594987Y-58515293D01*
X77594987Y-58515293D02*
X77594987Y-58748627D01*
X77594987Y-58748627D02*
X77561653Y-58881960D01*
X77561653Y-58881960D02*
X77494987Y-58948627D01*
X77494987Y-58948627D02*
X77428320Y-58981960D01*
X77428320Y-58981960D02*
X77294987Y-58981960D01*
X77294987Y-58981960D02*
X77228320Y-58948627D01*
X77228320Y-58948627D02*
X77161653Y-58881960D01*
X77161653Y-58881960D02*
X77128320Y-58748627D01*
X77128320Y-58748627D02*
X77128320Y-58515293D01*
X77128320Y-58515293D02*
X77161653Y-58381960D01*
X77161653Y-58381960D02*
X77228320Y-58315293D01*
X77228320Y-58315293D02*
X77294987Y-58281960D01*
X77828320Y-58281960D02*
X78261653Y-58281960D01*
X78261653Y-58281960D02*
X78028320Y-58548627D01*
X78028320Y-58548627D02*
X78128320Y-58548627D01*
X78128320Y-58548627D02*
X78194986Y-58581960D01*
X78194986Y-58581960D02*
X78228320Y-58615293D01*
X78228320Y-58615293D02*
X78261653Y-58681960D01*
X78261653Y-58681960D02*
X78261653Y-58848627D01*
X78261653Y-58848627D02*
X78228320Y-58915293D01*
X78228320Y-58915293D02*
X78194986Y-58948627D01*
X78194986Y-58948627D02*
X78128320Y-58981960D01*
X78128320Y-58981960D02*
X77928320Y-58981960D01*
X77928320Y-58981960D02*
X77861653Y-58948627D01*
X77861653Y-58948627D02*
X77828320Y-58915293D01*
X79061653Y-58248627D02*
X78461653Y-59148627D01*
X79294986Y-58281960D02*
X79294986Y-58848627D01*
X79294986Y-58848627D02*
X79328320Y-58915293D01*
X79328320Y-58915293D02*
X79361653Y-58948627D01*
X79361653Y-58948627D02*
X79428320Y-58981960D01*
X79428320Y-58981960D02*
X79561653Y-58981960D01*
X79561653Y-58981960D02*
X79628320Y-58948627D01*
X79628320Y-58948627D02*
X79661653Y-58915293D01*
X79661653Y-58915293D02*
X79694986Y-58848627D01*
X79694986Y-58848627D02*
X79694986Y-58281960D01*
X80161653Y-58281960D02*
X80228319Y-58281960D01*
X80228319Y-58281960D02*
X80294986Y-58315293D01*
X80294986Y-58315293D02*
X80328319Y-58348627D01*
X80328319Y-58348627D02*
X80361653Y-58415293D01*
X80361653Y-58415293D02*
X80394986Y-58548627D01*
X80394986Y-58548627D02*
X80394986Y-58715293D01*
X80394986Y-58715293D02*
X80361653Y-58848627D01*
X80361653Y-58848627D02*
X80328319Y-58915293D01*
X80328319Y-58915293D02*
X80294986Y-58948627D01*
X80294986Y-58948627D02*
X80228319Y-58981960D01*
X80228319Y-58981960D02*
X80161653Y-58981960D01*
X80161653Y-58981960D02*
X80094986Y-58948627D01*
X80094986Y-58948627D02*
X80061653Y-58915293D01*
X80061653Y-58915293D02*
X80028319Y-58848627D01*
X80028319Y-58848627D02*
X79994986Y-58715293D01*
X79994986Y-58715293D02*
X79994986Y-58548627D01*
X79994986Y-58548627D02*
X80028319Y-58415293D01*
X80028319Y-58415293D02*
X80061653Y-58348627D01*
X80061653Y-58348627D02*
X80094986Y-58315293D01*
X80094986Y-58315293D02*
X80161653Y-58281960D01*
X81094986Y-58981960D02*
X80861653Y-58648627D01*
X80694986Y-58981960D02*
X80694986Y-58281960D01*
X80694986Y-58281960D02*
X80961653Y-58281960D01*
X80961653Y-58281960D02*
X81028320Y-58315293D01*
X81028320Y-58315293D02*
X81061653Y-58348627D01*
X81061653Y-58348627D02*
X81094986Y-58415293D01*
X81094986Y-58415293D02*
X81094986Y-58515293D01*
X81094986Y-58515293D02*
X81061653Y-58581960D01*
X81061653Y-58581960D02*
X81028320Y-58615293D01*
X81028320Y-58615293D02*
X80961653Y-58648627D01*
X80961653Y-58648627D02*
X80694986Y-58648627D01*
X81328320Y-58281960D02*
X81794986Y-58981960D01*
X81794986Y-58281960D02*
X81328320Y-58981960D01*
X82061653Y-58981960D02*
X82061653Y-58281960D01*
X82061653Y-58281960D02*
X82228320Y-58281960D01*
X82228320Y-58281960D02*
X82328320Y-58315293D01*
X82328320Y-58315293D02*
X82394987Y-58381960D01*
X82394987Y-58381960D02*
X82428320Y-58448627D01*
X82428320Y-58448627D02*
X82461653Y-58581960D01*
X82461653Y-58581960D02*
X82461653Y-58681960D01*
X82461653Y-58681960D02*
X82428320Y-58815293D01*
X82428320Y-58815293D02*
X82394987Y-58881960D01*
X82394987Y-58881960D02*
X82328320Y-58948627D01*
X82328320Y-58948627D02*
X82228320Y-58981960D01*
X82228320Y-58981960D02*
X82061653Y-58981960D01*
X60268320Y-83715293D02*
X60201653Y-83681960D01*
X60201653Y-83681960D02*
X60101653Y-83681960D01*
X60101653Y-83681960D02*
X60001653Y-83715293D01*
X60001653Y-83715293D02*
X59934987Y-83781960D01*
X59934987Y-83781960D02*
X59901653Y-83848627D01*
X59901653Y-83848627D02*
X59868320Y-83981960D01*
X59868320Y-83981960D02*
X59868320Y-84081960D01*
X59868320Y-84081960D02*
X59901653Y-84215293D01*
X59901653Y-84215293D02*
X59934987Y-84281960D01*
X59934987Y-84281960D02*
X60001653Y-84348627D01*
X60001653Y-84348627D02*
X60101653Y-84381960D01*
X60101653Y-84381960D02*
X60168320Y-84381960D01*
X60168320Y-84381960D02*
X60268320Y-84348627D01*
X60268320Y-84348627D02*
X60301653Y-84315293D01*
X60301653Y-84315293D02*
X60301653Y-84081960D01*
X60301653Y-84081960D02*
X60168320Y-84081960D01*
X60601653Y-84381960D02*
X60601653Y-83681960D01*
X60601653Y-83681960D02*
X60868320Y-83681960D01*
X60868320Y-83681960D02*
X60934987Y-83715293D01*
X60934987Y-83715293D02*
X60968320Y-83748627D01*
X60968320Y-83748627D02*
X61001653Y-83815293D01*
X61001653Y-83815293D02*
X61001653Y-83915293D01*
X61001653Y-83915293D02*
X60968320Y-83981960D01*
X60968320Y-83981960D02*
X60934987Y-84015293D01*
X60934987Y-84015293D02*
X60868320Y-84048627D01*
X60868320Y-84048627D02*
X60601653Y-84048627D01*
X61301653Y-84381960D02*
X61301653Y-83681960D01*
X61768320Y-83681960D02*
X61901653Y-83681960D01*
X61901653Y-83681960D02*
X61968320Y-83715293D01*
X61968320Y-83715293D02*
X62034986Y-83781960D01*
X62034986Y-83781960D02*
X62068320Y-83915293D01*
X62068320Y-83915293D02*
X62068320Y-84148627D01*
X62068320Y-84148627D02*
X62034986Y-84281960D01*
X62034986Y-84281960D02*
X61968320Y-84348627D01*
X61968320Y-84348627D02*
X61901653Y-84381960D01*
X61901653Y-84381960D02*
X61768320Y-84381960D01*
X61768320Y-84381960D02*
X61701653Y-84348627D01*
X61701653Y-84348627D02*
X61634986Y-84281960D01*
X61634986Y-84281960D02*
X61601653Y-84148627D01*
X61601653Y-84148627D02*
X61601653Y-83915293D01*
X61601653Y-83915293D02*
X61634986Y-83781960D01*
X61634986Y-83781960D02*
X61701653Y-83715293D01*
X61701653Y-83715293D02*
X61768320Y-83681960D01*
X62734986Y-84381960D02*
X62334986Y-84381960D01*
X62534986Y-84381960D02*
X62534986Y-83681960D01*
X62534986Y-83681960D02*
X62468319Y-83781960D01*
X62468319Y-83781960D02*
X62401653Y-83848627D01*
X62401653Y-83848627D02*
X62334986Y-83881960D01*
X62968320Y-83681960D02*
X63401653Y-83681960D01*
X63401653Y-83681960D02*
X63168320Y-83948627D01*
X63168320Y-83948627D02*
X63268320Y-83948627D01*
X63268320Y-83948627D02*
X63334986Y-83981960D01*
X63334986Y-83981960D02*
X63368320Y-84015293D01*
X63368320Y-84015293D02*
X63401653Y-84081960D01*
X63401653Y-84081960D02*
X63401653Y-84248627D01*
X63401653Y-84248627D02*
X63368320Y-84315293D01*
X63368320Y-84315293D02*
X63334986Y-84348627D01*
X63334986Y-84348627D02*
X63268320Y-84381960D01*
X63268320Y-84381960D02*
X63068320Y-84381960D01*
X63068320Y-84381960D02*
X63001653Y-84348627D01*
X63001653Y-84348627D02*
X62968320Y-84315293D01*
X64201653Y-83648627D02*
X63601653Y-84548627D01*
X64434986Y-84381960D02*
X64434986Y-83681960D01*
X64434986Y-83681960D02*
X64668320Y-84181960D01*
X64668320Y-84181960D02*
X64901653Y-83681960D01*
X64901653Y-83681960D02*
X64901653Y-84381960D01*
X65134986Y-83681960D02*
X65534986Y-83681960D01*
X65334986Y-84381960D02*
X65334986Y-83681960D01*
X66168319Y-84315293D02*
X66134986Y-84348627D01*
X66134986Y-84348627D02*
X66034986Y-84381960D01*
X66034986Y-84381960D02*
X65968319Y-84381960D01*
X65968319Y-84381960D02*
X65868319Y-84348627D01*
X65868319Y-84348627D02*
X65801653Y-84281960D01*
X65801653Y-84281960D02*
X65768319Y-84215293D01*
X65768319Y-84215293D02*
X65734986Y-84081960D01*
X65734986Y-84081960D02*
X65734986Y-83981960D01*
X65734986Y-83981960D02*
X65768319Y-83848627D01*
X65768319Y-83848627D02*
X65801653Y-83781960D01*
X65801653Y-83781960D02*
X65868319Y-83715293D01*
X65868319Y-83715293D02*
X65968319Y-83681960D01*
X65968319Y-83681960D02*
X66034986Y-83681960D01*
X66034986Y-83681960D02*
X66134986Y-83715293D01*
X66134986Y-83715293D02*
X66168319Y-83748627D01*
X66468319Y-84381960D02*
X66468319Y-83681960D01*
X66868319Y-84381960D02*
X66568319Y-83981960D01*
X66868319Y-83681960D02*
X66468319Y-84081960D01*
X79328320Y-76095293D02*
X79261653Y-76061960D01*
X79261653Y-76061960D02*
X79161653Y-76061960D01*
X79161653Y-76061960D02*
X79061653Y-76095293D01*
X79061653Y-76095293D02*
X78994987Y-76161960D01*
X78994987Y-76161960D02*
X78961653Y-76228627D01*
X78961653Y-76228627D02*
X78928320Y-76361960D01*
X78928320Y-76361960D02*
X78928320Y-76461960D01*
X78928320Y-76461960D02*
X78961653Y-76595293D01*
X78961653Y-76595293D02*
X78994987Y-76661960D01*
X78994987Y-76661960D02*
X79061653Y-76728627D01*
X79061653Y-76728627D02*
X79161653Y-76761960D01*
X79161653Y-76761960D02*
X79228320Y-76761960D01*
X79228320Y-76761960D02*
X79328320Y-76728627D01*
X79328320Y-76728627D02*
X79361653Y-76695293D01*
X79361653Y-76695293D02*
X79361653Y-76461960D01*
X79361653Y-76461960D02*
X79228320Y-76461960D01*
X79661653Y-76761960D02*
X79661653Y-76061960D01*
X79661653Y-76061960D02*
X79928320Y-76061960D01*
X79928320Y-76061960D02*
X79994987Y-76095293D01*
X79994987Y-76095293D02*
X80028320Y-76128627D01*
X80028320Y-76128627D02*
X80061653Y-76195293D01*
X80061653Y-76195293D02*
X80061653Y-76295293D01*
X80061653Y-76295293D02*
X80028320Y-76361960D01*
X80028320Y-76361960D02*
X79994987Y-76395293D01*
X79994987Y-76395293D02*
X79928320Y-76428627D01*
X79928320Y-76428627D02*
X79661653Y-76428627D01*
X80361653Y-76761960D02*
X80361653Y-76061960D01*
X80828320Y-76061960D02*
X80961653Y-76061960D01*
X80961653Y-76061960D02*
X81028320Y-76095293D01*
X81028320Y-76095293D02*
X81094986Y-76161960D01*
X81094986Y-76161960D02*
X81128320Y-76295293D01*
X81128320Y-76295293D02*
X81128320Y-76528627D01*
X81128320Y-76528627D02*
X81094986Y-76661960D01*
X81094986Y-76661960D02*
X81028320Y-76728627D01*
X81028320Y-76728627D02*
X80961653Y-76761960D01*
X80961653Y-76761960D02*
X80828320Y-76761960D01*
X80828320Y-76761960D02*
X80761653Y-76728627D01*
X80761653Y-76728627D02*
X80694986Y-76661960D01*
X80694986Y-76661960D02*
X80661653Y-76528627D01*
X80661653Y-76528627D02*
X80661653Y-76295293D01*
X80661653Y-76295293D02*
X80694986Y-76161960D01*
X80694986Y-76161960D02*
X80761653Y-76095293D01*
X80761653Y-76095293D02*
X80828320Y-76061960D01*
X81794986Y-76761960D02*
X81394986Y-76761960D01*
X81594986Y-76761960D02*
X81594986Y-76061960D01*
X81594986Y-76061960D02*
X81528319Y-76161960D01*
X81528319Y-76161960D02*
X81461653Y-76228627D01*
X81461653Y-76228627D02*
X81394986Y-76261960D01*
X82394986Y-76061960D02*
X82261653Y-76061960D01*
X82261653Y-76061960D02*
X82194986Y-76095293D01*
X82194986Y-76095293D02*
X82161653Y-76128627D01*
X82161653Y-76128627D02*
X82094986Y-76228627D01*
X82094986Y-76228627D02*
X82061653Y-76361960D01*
X82061653Y-76361960D02*
X82061653Y-76628627D01*
X82061653Y-76628627D02*
X82094986Y-76695293D01*
X82094986Y-76695293D02*
X82128320Y-76728627D01*
X82128320Y-76728627D02*
X82194986Y-76761960D01*
X82194986Y-76761960D02*
X82328320Y-76761960D01*
X82328320Y-76761960D02*
X82394986Y-76728627D01*
X82394986Y-76728627D02*
X82428320Y-76695293D01*
X82428320Y-76695293D02*
X82461653Y-76628627D01*
X82461653Y-76628627D02*
X82461653Y-76461960D01*
X82461653Y-76461960D02*
X82428320Y-76395293D01*
X82428320Y-76395293D02*
X82394986Y-76361960D01*
X82394986Y-76361960D02*
X82328320Y-76328627D01*
X82328320Y-76328627D02*
X82194986Y-76328627D01*
X82194986Y-76328627D02*
X82128320Y-76361960D01*
X82128320Y-76361960D02*
X82094986Y-76395293D01*
X82094986Y-76395293D02*
X82061653Y-76461960D01*
X80309272Y-48008365D02*
X80214034Y-47960746D01*
X80214034Y-47960746D02*
X80071177Y-47960746D01*
X80071177Y-47960746D02*
X79928320Y-48008365D01*
X79928320Y-48008365D02*
X79833082Y-48103603D01*
X79833082Y-48103603D02*
X79785463Y-48198841D01*
X79785463Y-48198841D02*
X79737844Y-48389317D01*
X79737844Y-48389317D02*
X79737844Y-48532174D01*
X79737844Y-48532174D02*
X79785463Y-48722650D01*
X79785463Y-48722650D02*
X79833082Y-48817888D01*
X79833082Y-48817888D02*
X79928320Y-48913127D01*
X79928320Y-48913127D02*
X80071177Y-48960746D01*
X80071177Y-48960746D02*
X80166415Y-48960746D01*
X80166415Y-48960746D02*
X80309272Y-48913127D01*
X80309272Y-48913127D02*
X80356891Y-48865507D01*
X80356891Y-48865507D02*
X80356891Y-48532174D01*
X80356891Y-48532174D02*
X80166415Y-48532174D01*
X80785463Y-48960746D02*
X80785463Y-47960746D01*
X80785463Y-47960746D02*
X81356891Y-48960746D01*
X81356891Y-48960746D02*
X81356891Y-47960746D01*
X81833082Y-48960746D02*
X81833082Y-47960746D01*
X81833082Y-47960746D02*
X82071177Y-47960746D01*
X82071177Y-47960746D02*
X82214034Y-48008365D01*
X82214034Y-48008365D02*
X82309272Y-48103603D01*
X82309272Y-48103603D02*
X82356891Y-48198841D01*
X82356891Y-48198841D02*
X82404510Y-48389317D01*
X82404510Y-48389317D02*
X82404510Y-48532174D01*
X82404510Y-48532174D02*
X82356891Y-48722650D01*
X82356891Y-48722650D02*
X82309272Y-48817888D01*
X82309272Y-48817888D02*
X82214034Y-48913127D01*
X82214034Y-48913127D02*
X82071177Y-48960746D01*
X82071177Y-48960746D02*
X81833082Y-48960746D01*
X79994987Y-81175293D02*
X79928320Y-81141960D01*
X79928320Y-81141960D02*
X79828320Y-81141960D01*
X79828320Y-81141960D02*
X79728320Y-81175293D01*
X79728320Y-81175293D02*
X79661654Y-81241960D01*
X79661654Y-81241960D02*
X79628320Y-81308627D01*
X79628320Y-81308627D02*
X79594987Y-81441960D01*
X79594987Y-81441960D02*
X79594987Y-81541960D01*
X79594987Y-81541960D02*
X79628320Y-81675293D01*
X79628320Y-81675293D02*
X79661654Y-81741960D01*
X79661654Y-81741960D02*
X79728320Y-81808627D01*
X79728320Y-81808627D02*
X79828320Y-81841960D01*
X79828320Y-81841960D02*
X79894987Y-81841960D01*
X79894987Y-81841960D02*
X79994987Y-81808627D01*
X79994987Y-81808627D02*
X80028320Y-81775293D01*
X80028320Y-81775293D02*
X80028320Y-81541960D01*
X80028320Y-81541960D02*
X79894987Y-81541960D01*
X80328320Y-81841960D02*
X80328320Y-81141960D01*
X80328320Y-81141960D02*
X80594987Y-81141960D01*
X80594987Y-81141960D02*
X80661654Y-81175293D01*
X80661654Y-81175293D02*
X80694987Y-81208627D01*
X80694987Y-81208627D02*
X80728320Y-81275293D01*
X80728320Y-81275293D02*
X80728320Y-81375293D01*
X80728320Y-81375293D02*
X80694987Y-81441960D01*
X80694987Y-81441960D02*
X80661654Y-81475293D01*
X80661654Y-81475293D02*
X80594987Y-81508627D01*
X80594987Y-81508627D02*
X80328320Y-81508627D01*
X81028320Y-81841960D02*
X81028320Y-81141960D01*
X81494987Y-81141960D02*
X81628320Y-81141960D01*
X81628320Y-81141960D02*
X81694987Y-81175293D01*
X81694987Y-81175293D02*
X81761653Y-81241960D01*
X81761653Y-81241960D02*
X81794987Y-81375293D01*
X81794987Y-81375293D02*
X81794987Y-81608627D01*
X81794987Y-81608627D02*
X81761653Y-81741960D01*
X81761653Y-81741960D02*
X81694987Y-81808627D01*
X81694987Y-81808627D02*
X81628320Y-81841960D01*
X81628320Y-81841960D02*
X81494987Y-81841960D01*
X81494987Y-81841960D02*
X81428320Y-81808627D01*
X81428320Y-81808627D02*
X81361653Y-81741960D01*
X81361653Y-81741960D02*
X81328320Y-81608627D01*
X81328320Y-81608627D02*
X81328320Y-81375293D01*
X81328320Y-81375293D02*
X81361653Y-81241960D01*
X81361653Y-81241960D02*
X81428320Y-81175293D01*
X81428320Y-81175293D02*
X81494987Y-81141960D01*
X82228320Y-81141960D02*
X82294986Y-81141960D01*
X82294986Y-81141960D02*
X82361653Y-81175293D01*
X82361653Y-81175293D02*
X82394986Y-81208627D01*
X82394986Y-81208627D02*
X82428320Y-81275293D01*
X82428320Y-81275293D02*
X82461653Y-81408627D01*
X82461653Y-81408627D02*
X82461653Y-81575293D01*
X82461653Y-81575293D02*
X82428320Y-81708627D01*
X82428320Y-81708627D02*
X82394986Y-81775293D01*
X82394986Y-81775293D02*
X82361653Y-81808627D01*
X82361653Y-81808627D02*
X82294986Y-81841960D01*
X82294986Y-81841960D02*
X82228320Y-81841960D01*
X82228320Y-81841960D02*
X82161653Y-81808627D01*
X82161653Y-81808627D02*
X82128320Y-81775293D01*
X82128320Y-81775293D02*
X82094986Y-81708627D01*
X82094986Y-81708627D02*
X82061653Y-81575293D01*
X82061653Y-81575293D02*
X82061653Y-81408627D01*
X82061653Y-81408627D02*
X82094986Y-81275293D01*
X82094986Y-81275293D02*
X82128320Y-81208627D01*
X82128320Y-81208627D02*
X82161653Y-81175293D01*
X82161653Y-81175293D02*
X82228320Y-81141960D01*
X60268320Y-76095293D02*
X60201653Y-76061960D01*
X60201653Y-76061960D02*
X60101653Y-76061960D01*
X60101653Y-76061960D02*
X60001653Y-76095293D01*
X60001653Y-76095293D02*
X59934987Y-76161960D01*
X59934987Y-76161960D02*
X59901653Y-76228627D01*
X59901653Y-76228627D02*
X59868320Y-76361960D01*
X59868320Y-76361960D02*
X59868320Y-76461960D01*
X59868320Y-76461960D02*
X59901653Y-76595293D01*
X59901653Y-76595293D02*
X59934987Y-76661960D01*
X59934987Y-76661960D02*
X60001653Y-76728627D01*
X60001653Y-76728627D02*
X60101653Y-76761960D01*
X60101653Y-76761960D02*
X60168320Y-76761960D01*
X60168320Y-76761960D02*
X60268320Y-76728627D01*
X60268320Y-76728627D02*
X60301653Y-76695293D01*
X60301653Y-76695293D02*
X60301653Y-76461960D01*
X60301653Y-76461960D02*
X60168320Y-76461960D01*
X60601653Y-76761960D02*
X60601653Y-76061960D01*
X60601653Y-76061960D02*
X60868320Y-76061960D01*
X60868320Y-76061960D02*
X60934987Y-76095293D01*
X60934987Y-76095293D02*
X60968320Y-76128627D01*
X60968320Y-76128627D02*
X61001653Y-76195293D01*
X61001653Y-76195293D02*
X61001653Y-76295293D01*
X61001653Y-76295293D02*
X60968320Y-76361960D01*
X60968320Y-76361960D02*
X60934987Y-76395293D01*
X60934987Y-76395293D02*
X60868320Y-76428627D01*
X60868320Y-76428627D02*
X60601653Y-76428627D01*
X61301653Y-76761960D02*
X61301653Y-76061960D01*
X61768320Y-76061960D02*
X61901653Y-76061960D01*
X61901653Y-76061960D02*
X61968320Y-76095293D01*
X61968320Y-76095293D02*
X62034986Y-76161960D01*
X62034986Y-76161960D02*
X62068320Y-76295293D01*
X62068320Y-76295293D02*
X62068320Y-76528627D01*
X62068320Y-76528627D02*
X62034986Y-76661960D01*
X62034986Y-76661960D02*
X61968320Y-76728627D01*
X61968320Y-76728627D02*
X61901653Y-76761960D01*
X61901653Y-76761960D02*
X61768320Y-76761960D01*
X61768320Y-76761960D02*
X61701653Y-76728627D01*
X61701653Y-76728627D02*
X61634986Y-76661960D01*
X61634986Y-76661960D02*
X61601653Y-76528627D01*
X61601653Y-76528627D02*
X61601653Y-76295293D01*
X61601653Y-76295293D02*
X61634986Y-76161960D01*
X61634986Y-76161960D02*
X61701653Y-76095293D01*
X61701653Y-76095293D02*
X61768320Y-76061960D01*
X62734986Y-76761960D02*
X62334986Y-76761960D01*
X62534986Y-76761960D02*
X62534986Y-76061960D01*
X62534986Y-76061960D02*
X62468319Y-76161960D01*
X62468319Y-76161960D02*
X62401653Y-76228627D01*
X62401653Y-76228627D02*
X62334986Y-76261960D01*
X63334986Y-76295293D02*
X63334986Y-76761960D01*
X63168320Y-76028627D02*
X63001653Y-76528627D01*
X63001653Y-76528627D02*
X63434986Y-76528627D01*
X64201653Y-76028627D02*
X63601653Y-76928627D01*
X64434986Y-76761960D02*
X64434986Y-76061960D01*
X64434986Y-76061960D02*
X64668320Y-76561960D01*
X64668320Y-76561960D02*
X64901653Y-76061960D01*
X64901653Y-76061960D02*
X64901653Y-76761960D01*
X65134986Y-76061960D02*
X65534986Y-76061960D01*
X65334986Y-76761960D02*
X65334986Y-76061960D01*
X65768319Y-76761960D02*
X65768319Y-76061960D01*
X65768319Y-76061960D02*
X66001653Y-76561960D01*
X66001653Y-76561960D02*
X66234986Y-76061960D01*
X66234986Y-76061960D02*
X66234986Y-76761960D01*
X66534986Y-76728627D02*
X66634986Y-76761960D01*
X66634986Y-76761960D02*
X66801653Y-76761960D01*
X66801653Y-76761960D02*
X66868319Y-76728627D01*
X66868319Y-76728627D02*
X66901653Y-76695293D01*
X66901653Y-76695293D02*
X66934986Y-76628627D01*
X66934986Y-76628627D02*
X66934986Y-76561960D01*
X66934986Y-76561960D02*
X66901653Y-76495293D01*
X66901653Y-76495293D02*
X66868319Y-76461960D01*
X66868319Y-76461960D02*
X66801653Y-76428627D01*
X66801653Y-76428627D02*
X66668319Y-76395293D01*
X66668319Y-76395293D02*
X66601653Y-76361960D01*
X66601653Y-76361960D02*
X66568319Y-76328627D01*
X66568319Y-76328627D02*
X66534986Y-76261960D01*
X66534986Y-76261960D02*
X66534986Y-76195293D01*
X66534986Y-76195293D02*
X66568319Y-76128627D01*
X66568319Y-76128627D02*
X66601653Y-76095293D01*
X66601653Y-76095293D02*
X66668319Y-76061960D01*
X66668319Y-76061960D02*
X66834986Y-76061960D01*
X66834986Y-76061960D02*
X66934986Y-76095293D01*
X79328320Y-73555293D02*
X79261653Y-73521960D01*
X79261653Y-73521960D02*
X79161653Y-73521960D01*
X79161653Y-73521960D02*
X79061653Y-73555293D01*
X79061653Y-73555293D02*
X78994987Y-73621960D01*
X78994987Y-73621960D02*
X78961653Y-73688627D01*
X78961653Y-73688627D02*
X78928320Y-73821960D01*
X78928320Y-73821960D02*
X78928320Y-73921960D01*
X78928320Y-73921960D02*
X78961653Y-74055293D01*
X78961653Y-74055293D02*
X78994987Y-74121960D01*
X78994987Y-74121960D02*
X79061653Y-74188627D01*
X79061653Y-74188627D02*
X79161653Y-74221960D01*
X79161653Y-74221960D02*
X79228320Y-74221960D01*
X79228320Y-74221960D02*
X79328320Y-74188627D01*
X79328320Y-74188627D02*
X79361653Y-74155293D01*
X79361653Y-74155293D02*
X79361653Y-73921960D01*
X79361653Y-73921960D02*
X79228320Y-73921960D01*
X79661653Y-74221960D02*
X79661653Y-73521960D01*
X79661653Y-73521960D02*
X79928320Y-73521960D01*
X79928320Y-73521960D02*
X79994987Y-73555293D01*
X79994987Y-73555293D02*
X80028320Y-73588627D01*
X80028320Y-73588627D02*
X80061653Y-73655293D01*
X80061653Y-73655293D02*
X80061653Y-73755293D01*
X80061653Y-73755293D02*
X80028320Y-73821960D01*
X80028320Y-73821960D02*
X79994987Y-73855293D01*
X79994987Y-73855293D02*
X79928320Y-73888627D01*
X79928320Y-73888627D02*
X79661653Y-73888627D01*
X80361653Y-74221960D02*
X80361653Y-73521960D01*
X80828320Y-73521960D02*
X80961653Y-73521960D01*
X80961653Y-73521960D02*
X81028320Y-73555293D01*
X81028320Y-73555293D02*
X81094986Y-73621960D01*
X81094986Y-73621960D02*
X81128320Y-73755293D01*
X81128320Y-73755293D02*
X81128320Y-73988627D01*
X81128320Y-73988627D02*
X81094986Y-74121960D01*
X81094986Y-74121960D02*
X81028320Y-74188627D01*
X81028320Y-74188627D02*
X80961653Y-74221960D01*
X80961653Y-74221960D02*
X80828320Y-74221960D01*
X80828320Y-74221960D02*
X80761653Y-74188627D01*
X80761653Y-74188627D02*
X80694986Y-74121960D01*
X80694986Y-74121960D02*
X80661653Y-73988627D01*
X80661653Y-73988627D02*
X80661653Y-73755293D01*
X80661653Y-73755293D02*
X80694986Y-73621960D01*
X80694986Y-73621960D02*
X80761653Y-73555293D01*
X80761653Y-73555293D02*
X80828320Y-73521960D01*
X81794986Y-74221960D02*
X81394986Y-74221960D01*
X81594986Y-74221960D02*
X81594986Y-73521960D01*
X81594986Y-73521960D02*
X81528319Y-73621960D01*
X81528319Y-73621960D02*
X81461653Y-73688627D01*
X81461653Y-73688627D02*
X81394986Y-73721960D01*
X82028320Y-73521960D02*
X82494986Y-73521960D01*
X82494986Y-73521960D02*
X82194986Y-74221960D01*
X60268320Y-60855293D02*
X60201653Y-60821960D01*
X60201653Y-60821960D02*
X60101653Y-60821960D01*
X60101653Y-60821960D02*
X60001653Y-60855293D01*
X60001653Y-60855293D02*
X59934987Y-60921960D01*
X59934987Y-60921960D02*
X59901653Y-60988627D01*
X59901653Y-60988627D02*
X59868320Y-61121960D01*
X59868320Y-61121960D02*
X59868320Y-61221960D01*
X59868320Y-61221960D02*
X59901653Y-61355293D01*
X59901653Y-61355293D02*
X59934987Y-61421960D01*
X59934987Y-61421960D02*
X60001653Y-61488627D01*
X60001653Y-61488627D02*
X60101653Y-61521960D01*
X60101653Y-61521960D02*
X60168320Y-61521960D01*
X60168320Y-61521960D02*
X60268320Y-61488627D01*
X60268320Y-61488627D02*
X60301653Y-61455293D01*
X60301653Y-61455293D02*
X60301653Y-61221960D01*
X60301653Y-61221960D02*
X60168320Y-61221960D01*
X60601653Y-61521960D02*
X60601653Y-60821960D01*
X60601653Y-60821960D02*
X60868320Y-60821960D01*
X60868320Y-60821960D02*
X60934987Y-60855293D01*
X60934987Y-60855293D02*
X60968320Y-60888627D01*
X60968320Y-60888627D02*
X61001653Y-60955293D01*
X61001653Y-60955293D02*
X61001653Y-61055293D01*
X61001653Y-61055293D02*
X60968320Y-61121960D01*
X60968320Y-61121960D02*
X60934987Y-61155293D01*
X60934987Y-61155293D02*
X60868320Y-61188627D01*
X60868320Y-61188627D02*
X60601653Y-61188627D01*
X61301653Y-61521960D02*
X61301653Y-60821960D01*
X61768320Y-60821960D02*
X61901653Y-60821960D01*
X61901653Y-60821960D02*
X61968320Y-60855293D01*
X61968320Y-60855293D02*
X62034986Y-60921960D01*
X62034986Y-60921960D02*
X62068320Y-61055293D01*
X62068320Y-61055293D02*
X62068320Y-61288627D01*
X62068320Y-61288627D02*
X62034986Y-61421960D01*
X62034986Y-61421960D02*
X61968320Y-61488627D01*
X61968320Y-61488627D02*
X61901653Y-61521960D01*
X61901653Y-61521960D02*
X61768320Y-61521960D01*
X61768320Y-61521960D02*
X61701653Y-61488627D01*
X61701653Y-61488627D02*
X61634986Y-61421960D01*
X61634986Y-61421960D02*
X61601653Y-61288627D01*
X61601653Y-61288627D02*
X61601653Y-61055293D01*
X61601653Y-61055293D02*
X61634986Y-60921960D01*
X61634986Y-60921960D02*
X61701653Y-60855293D01*
X61701653Y-60855293D02*
X61768320Y-60821960D01*
X62301653Y-60821960D02*
X62734986Y-60821960D01*
X62734986Y-60821960D02*
X62501653Y-61088627D01*
X62501653Y-61088627D02*
X62601653Y-61088627D01*
X62601653Y-61088627D02*
X62668319Y-61121960D01*
X62668319Y-61121960D02*
X62701653Y-61155293D01*
X62701653Y-61155293D02*
X62734986Y-61221960D01*
X62734986Y-61221960D02*
X62734986Y-61388627D01*
X62734986Y-61388627D02*
X62701653Y-61455293D01*
X62701653Y-61455293D02*
X62668319Y-61488627D01*
X62668319Y-61488627D02*
X62601653Y-61521960D01*
X62601653Y-61521960D02*
X62401653Y-61521960D01*
X62401653Y-61521960D02*
X62334986Y-61488627D01*
X62334986Y-61488627D02*
X62301653Y-61455293D01*
X63368320Y-60821960D02*
X63034986Y-60821960D01*
X63034986Y-60821960D02*
X63001653Y-61155293D01*
X63001653Y-61155293D02*
X63034986Y-61121960D01*
X63034986Y-61121960D02*
X63101653Y-61088627D01*
X63101653Y-61088627D02*
X63268320Y-61088627D01*
X63268320Y-61088627D02*
X63334986Y-61121960D01*
X63334986Y-61121960D02*
X63368320Y-61155293D01*
X63368320Y-61155293D02*
X63401653Y-61221960D01*
X63401653Y-61221960D02*
X63401653Y-61388627D01*
X63401653Y-61388627D02*
X63368320Y-61455293D01*
X63368320Y-61455293D02*
X63334986Y-61488627D01*
X63334986Y-61488627D02*
X63268320Y-61521960D01*
X63268320Y-61521960D02*
X63101653Y-61521960D01*
X63101653Y-61521960D02*
X63034986Y-61488627D01*
X63034986Y-61488627D02*
X63001653Y-61455293D01*
X81394986Y-89461960D02*
X81394986Y-88761960D01*
X81394986Y-88761960D02*
X81561653Y-88761960D01*
X81561653Y-88761960D02*
X81661653Y-88795293D01*
X81661653Y-88795293D02*
X81728320Y-88861960D01*
X81728320Y-88861960D02*
X81761653Y-88928627D01*
X81761653Y-88928627D02*
X81794986Y-89061960D01*
X81794986Y-89061960D02*
X81794986Y-89161960D01*
X81794986Y-89161960D02*
X81761653Y-89295293D01*
X81761653Y-89295293D02*
X81728320Y-89361960D01*
X81728320Y-89361960D02*
X81661653Y-89428627D01*
X81661653Y-89428627D02*
X81561653Y-89461960D01*
X81561653Y-89461960D02*
X81394986Y-89461960D01*
X82461653Y-89461960D02*
X82061653Y-89461960D01*
X82261653Y-89461960D02*
X82261653Y-88761960D01*
X82261653Y-88761960D02*
X82194986Y-88861960D01*
X82194986Y-88861960D02*
X82128320Y-88928627D01*
X82128320Y-88928627D02*
X82061653Y-88961960D01*
X60496891Y-81028365D02*
X60401653Y-80980746D01*
X60401653Y-80980746D02*
X60258796Y-80980746D01*
X60258796Y-80980746D02*
X60115939Y-81028365D01*
X60115939Y-81028365D02*
X60020701Y-81123603D01*
X60020701Y-81123603D02*
X59973082Y-81218841D01*
X59973082Y-81218841D02*
X59925463Y-81409317D01*
X59925463Y-81409317D02*
X59925463Y-81552174D01*
X59925463Y-81552174D02*
X59973082Y-81742650D01*
X59973082Y-81742650D02*
X60020701Y-81837888D01*
X60020701Y-81837888D02*
X60115939Y-81933127D01*
X60115939Y-81933127D02*
X60258796Y-81980746D01*
X60258796Y-81980746D02*
X60354034Y-81980746D01*
X60354034Y-81980746D02*
X60496891Y-81933127D01*
X60496891Y-81933127D02*
X60544510Y-81885507D01*
X60544510Y-81885507D02*
X60544510Y-81552174D01*
X60544510Y-81552174D02*
X60354034Y-81552174D01*
X60973082Y-81980746D02*
X60973082Y-80980746D01*
X60973082Y-80980746D02*
X61544510Y-81980746D01*
X61544510Y-81980746D02*
X61544510Y-80980746D01*
X62020701Y-81980746D02*
X62020701Y-80980746D01*
X62020701Y-80980746D02*
X62258796Y-80980746D01*
X62258796Y-80980746D02*
X62401653Y-81028365D01*
X62401653Y-81028365D02*
X62496891Y-81123603D01*
X62496891Y-81123603D02*
X62544510Y-81218841D01*
X62544510Y-81218841D02*
X62592129Y-81409317D01*
X62592129Y-81409317D02*
X62592129Y-81552174D01*
X62592129Y-81552174D02*
X62544510Y-81742650D01*
X62544510Y-81742650D02*
X62496891Y-81837888D01*
X62496891Y-81837888D02*
X62401653Y-81933127D01*
X62401653Y-81933127D02*
X62258796Y-81980746D01*
X62258796Y-81980746D02*
X62020701Y-81980746D01*
X60268320Y-71015293D02*
X60201653Y-70981960D01*
X60201653Y-70981960D02*
X60101653Y-70981960D01*
X60101653Y-70981960D02*
X60001653Y-71015293D01*
X60001653Y-71015293D02*
X59934987Y-71081960D01*
X59934987Y-71081960D02*
X59901653Y-71148627D01*
X59901653Y-71148627D02*
X59868320Y-71281960D01*
X59868320Y-71281960D02*
X59868320Y-71381960D01*
X59868320Y-71381960D02*
X59901653Y-71515293D01*
X59901653Y-71515293D02*
X59934987Y-71581960D01*
X59934987Y-71581960D02*
X60001653Y-71648627D01*
X60001653Y-71648627D02*
X60101653Y-71681960D01*
X60101653Y-71681960D02*
X60168320Y-71681960D01*
X60168320Y-71681960D02*
X60268320Y-71648627D01*
X60268320Y-71648627D02*
X60301653Y-71615293D01*
X60301653Y-71615293D02*
X60301653Y-71381960D01*
X60301653Y-71381960D02*
X60168320Y-71381960D01*
X60601653Y-71681960D02*
X60601653Y-70981960D01*
X60601653Y-70981960D02*
X60868320Y-70981960D01*
X60868320Y-70981960D02*
X60934987Y-71015293D01*
X60934987Y-71015293D02*
X60968320Y-71048627D01*
X60968320Y-71048627D02*
X61001653Y-71115293D01*
X61001653Y-71115293D02*
X61001653Y-71215293D01*
X61001653Y-71215293D02*
X60968320Y-71281960D01*
X60968320Y-71281960D02*
X60934987Y-71315293D01*
X60934987Y-71315293D02*
X60868320Y-71348627D01*
X60868320Y-71348627D02*
X60601653Y-71348627D01*
X61301653Y-71681960D02*
X61301653Y-70981960D01*
X61768320Y-70981960D02*
X61901653Y-70981960D01*
X61901653Y-70981960D02*
X61968320Y-71015293D01*
X61968320Y-71015293D02*
X62034986Y-71081960D01*
X62034986Y-71081960D02*
X62068320Y-71215293D01*
X62068320Y-71215293D02*
X62068320Y-71448627D01*
X62068320Y-71448627D02*
X62034986Y-71581960D01*
X62034986Y-71581960D02*
X61968320Y-71648627D01*
X61968320Y-71648627D02*
X61901653Y-71681960D01*
X61901653Y-71681960D02*
X61768320Y-71681960D01*
X61768320Y-71681960D02*
X61701653Y-71648627D01*
X61701653Y-71648627D02*
X61634986Y-71581960D01*
X61634986Y-71581960D02*
X61601653Y-71448627D01*
X61601653Y-71448627D02*
X61601653Y-71215293D01*
X61601653Y-71215293D02*
X61634986Y-71081960D01*
X61634986Y-71081960D02*
X61701653Y-71015293D01*
X61701653Y-71015293D02*
X61768320Y-70981960D01*
X62334986Y-71048627D02*
X62368319Y-71015293D01*
X62368319Y-71015293D02*
X62434986Y-70981960D01*
X62434986Y-70981960D02*
X62601653Y-70981960D01*
X62601653Y-70981960D02*
X62668319Y-71015293D01*
X62668319Y-71015293D02*
X62701653Y-71048627D01*
X62701653Y-71048627D02*
X62734986Y-71115293D01*
X62734986Y-71115293D02*
X62734986Y-71181960D01*
X62734986Y-71181960D02*
X62701653Y-71281960D01*
X62701653Y-71281960D02*
X62301653Y-71681960D01*
X62301653Y-71681960D02*
X62734986Y-71681960D01*
X63334986Y-70981960D02*
X63201653Y-70981960D01*
X63201653Y-70981960D02*
X63134986Y-71015293D01*
X63134986Y-71015293D02*
X63101653Y-71048627D01*
X63101653Y-71048627D02*
X63034986Y-71148627D01*
X63034986Y-71148627D02*
X63001653Y-71281960D01*
X63001653Y-71281960D02*
X63001653Y-71548627D01*
X63001653Y-71548627D02*
X63034986Y-71615293D01*
X63034986Y-71615293D02*
X63068320Y-71648627D01*
X63068320Y-71648627D02*
X63134986Y-71681960D01*
X63134986Y-71681960D02*
X63268320Y-71681960D01*
X63268320Y-71681960D02*
X63334986Y-71648627D01*
X63334986Y-71648627D02*
X63368320Y-71615293D01*
X63368320Y-71615293D02*
X63401653Y-71548627D01*
X63401653Y-71548627D02*
X63401653Y-71381960D01*
X63401653Y-71381960D02*
X63368320Y-71315293D01*
X63368320Y-71315293D02*
X63334986Y-71281960D01*
X63334986Y-71281960D02*
X63268320Y-71248627D01*
X63268320Y-71248627D02*
X63134986Y-71248627D01*
X63134986Y-71248627D02*
X63068320Y-71281960D01*
X63068320Y-71281960D02*
X63034986Y-71315293D01*
X63034986Y-71315293D02*
X63001653Y-71381960D01*
X59901653Y-86921960D02*
X59901653Y-86221960D01*
X59901653Y-86221960D02*
X60068320Y-86221960D01*
X60068320Y-86221960D02*
X60168320Y-86255293D01*
X60168320Y-86255293D02*
X60234987Y-86321960D01*
X60234987Y-86321960D02*
X60268320Y-86388627D01*
X60268320Y-86388627D02*
X60301653Y-86521960D01*
X60301653Y-86521960D02*
X60301653Y-86621960D01*
X60301653Y-86621960D02*
X60268320Y-86755293D01*
X60268320Y-86755293D02*
X60234987Y-86821960D01*
X60234987Y-86821960D02*
X60168320Y-86888627D01*
X60168320Y-86888627D02*
X60068320Y-86921960D01*
X60068320Y-86921960D02*
X59901653Y-86921960D01*
X60568320Y-86288627D02*
X60601653Y-86255293D01*
X60601653Y-86255293D02*
X60668320Y-86221960D01*
X60668320Y-86221960D02*
X60834987Y-86221960D01*
X60834987Y-86221960D02*
X60901653Y-86255293D01*
X60901653Y-86255293D02*
X60934987Y-86288627D01*
X60934987Y-86288627D02*
X60968320Y-86355293D01*
X60968320Y-86355293D02*
X60968320Y-86421960D01*
X60968320Y-86421960D02*
X60934987Y-86521960D01*
X60934987Y-86521960D02*
X60534987Y-86921960D01*
X60534987Y-86921960D02*
X60968320Y-86921960D01*
X59877844Y-47960746D02*
X60496891Y-47960746D01*
X60496891Y-47960746D02*
X60163558Y-48341698D01*
X60163558Y-48341698D02*
X60306415Y-48341698D01*
X60306415Y-48341698D02*
X60401653Y-48389317D01*
X60401653Y-48389317D02*
X60449272Y-48436936D01*
X60449272Y-48436936D02*
X60496891Y-48532174D01*
X60496891Y-48532174D02*
X60496891Y-48770269D01*
X60496891Y-48770269D02*
X60449272Y-48865507D01*
X60449272Y-48865507D02*
X60401653Y-48913127D01*
X60401653Y-48913127D02*
X60306415Y-48960746D01*
X60306415Y-48960746D02*
X60020701Y-48960746D01*
X60020701Y-48960746D02*
X59925463Y-48913127D01*
X59925463Y-48913127D02*
X59877844Y-48865507D01*
X60782606Y-47960746D02*
X61115939Y-48960746D01*
X61115939Y-48960746D02*
X61449272Y-47960746D01*
X61687368Y-47960746D02*
X62306415Y-47960746D01*
X62306415Y-47960746D02*
X61973082Y-48341698D01*
X61973082Y-48341698D02*
X62115939Y-48341698D01*
X62115939Y-48341698D02*
X62211177Y-48389317D01*
X62211177Y-48389317D02*
X62258796Y-48436936D01*
X62258796Y-48436936D02*
X62306415Y-48532174D01*
X62306415Y-48532174D02*
X62306415Y-48770269D01*
X62306415Y-48770269D02*
X62258796Y-48865507D01*
X62258796Y-48865507D02*
X62211177Y-48913127D01*
X62211177Y-48913127D02*
X62115939Y-48960746D01*
X62115939Y-48960746D02*
X61830225Y-48960746D01*
X61830225Y-48960746D02*
X61734987Y-48913127D01*
X61734987Y-48913127D02*
X61687368Y-48865507D01*
X60268320Y-68475293D02*
X60201653Y-68441960D01*
X60201653Y-68441960D02*
X60101653Y-68441960D01*
X60101653Y-68441960D02*
X60001653Y-68475293D01*
X60001653Y-68475293D02*
X59934987Y-68541960D01*
X59934987Y-68541960D02*
X59901653Y-68608627D01*
X59901653Y-68608627D02*
X59868320Y-68741960D01*
X59868320Y-68741960D02*
X59868320Y-68841960D01*
X59868320Y-68841960D02*
X59901653Y-68975293D01*
X59901653Y-68975293D02*
X59934987Y-69041960D01*
X59934987Y-69041960D02*
X60001653Y-69108627D01*
X60001653Y-69108627D02*
X60101653Y-69141960D01*
X60101653Y-69141960D02*
X60168320Y-69141960D01*
X60168320Y-69141960D02*
X60268320Y-69108627D01*
X60268320Y-69108627D02*
X60301653Y-69075293D01*
X60301653Y-69075293D02*
X60301653Y-68841960D01*
X60301653Y-68841960D02*
X60168320Y-68841960D01*
X60601653Y-69141960D02*
X60601653Y-68441960D01*
X60601653Y-68441960D02*
X60868320Y-68441960D01*
X60868320Y-68441960D02*
X60934987Y-68475293D01*
X60934987Y-68475293D02*
X60968320Y-68508627D01*
X60968320Y-68508627D02*
X61001653Y-68575293D01*
X61001653Y-68575293D02*
X61001653Y-68675293D01*
X61001653Y-68675293D02*
X60968320Y-68741960D01*
X60968320Y-68741960D02*
X60934987Y-68775293D01*
X60934987Y-68775293D02*
X60868320Y-68808627D01*
X60868320Y-68808627D02*
X60601653Y-68808627D01*
X61301653Y-69141960D02*
X61301653Y-68441960D01*
X61768320Y-68441960D02*
X61901653Y-68441960D01*
X61901653Y-68441960D02*
X61968320Y-68475293D01*
X61968320Y-68475293D02*
X62034986Y-68541960D01*
X62034986Y-68541960D02*
X62068320Y-68675293D01*
X62068320Y-68675293D02*
X62068320Y-68908627D01*
X62068320Y-68908627D02*
X62034986Y-69041960D01*
X62034986Y-69041960D02*
X61968320Y-69108627D01*
X61968320Y-69108627D02*
X61901653Y-69141960D01*
X61901653Y-69141960D02*
X61768320Y-69141960D01*
X61768320Y-69141960D02*
X61701653Y-69108627D01*
X61701653Y-69108627D02*
X61634986Y-69041960D01*
X61634986Y-69041960D02*
X61601653Y-68908627D01*
X61601653Y-68908627D02*
X61601653Y-68675293D01*
X61601653Y-68675293D02*
X61634986Y-68541960D01*
X61634986Y-68541960D02*
X61701653Y-68475293D01*
X61701653Y-68475293D02*
X61768320Y-68441960D01*
X62334986Y-68508627D02*
X62368319Y-68475293D01*
X62368319Y-68475293D02*
X62434986Y-68441960D01*
X62434986Y-68441960D02*
X62601653Y-68441960D01*
X62601653Y-68441960D02*
X62668319Y-68475293D01*
X62668319Y-68475293D02*
X62701653Y-68508627D01*
X62701653Y-68508627D02*
X62734986Y-68575293D01*
X62734986Y-68575293D02*
X62734986Y-68641960D01*
X62734986Y-68641960D02*
X62701653Y-68741960D01*
X62701653Y-68741960D02*
X62301653Y-69141960D01*
X62301653Y-69141960D02*
X62734986Y-69141960D01*
X63368320Y-68441960D02*
X63034986Y-68441960D01*
X63034986Y-68441960D02*
X63001653Y-68775293D01*
X63001653Y-68775293D02*
X63034986Y-68741960D01*
X63034986Y-68741960D02*
X63101653Y-68708627D01*
X63101653Y-68708627D02*
X63268320Y-68708627D01*
X63268320Y-68708627D02*
X63334986Y-68741960D01*
X63334986Y-68741960D02*
X63368320Y-68775293D01*
X63368320Y-68775293D02*
X63401653Y-68841960D01*
X63401653Y-68841960D02*
X63401653Y-69008627D01*
X63401653Y-69008627D02*
X63368320Y-69075293D01*
X63368320Y-69075293D02*
X63334986Y-69108627D01*
X63334986Y-69108627D02*
X63268320Y-69141960D01*
X63268320Y-69141960D02*
X63101653Y-69141960D01*
X63101653Y-69141960D02*
X63034986Y-69108627D01*
X63034986Y-69108627D02*
X63001653Y-69075293D01*
X79994987Y-83715293D02*
X79928320Y-83681960D01*
X79928320Y-83681960D02*
X79828320Y-83681960D01*
X79828320Y-83681960D02*
X79728320Y-83715293D01*
X79728320Y-83715293D02*
X79661654Y-83781960D01*
X79661654Y-83781960D02*
X79628320Y-83848627D01*
X79628320Y-83848627D02*
X79594987Y-83981960D01*
X79594987Y-83981960D02*
X79594987Y-84081960D01*
X79594987Y-84081960D02*
X79628320Y-84215293D01*
X79628320Y-84215293D02*
X79661654Y-84281960D01*
X79661654Y-84281960D02*
X79728320Y-84348627D01*
X79728320Y-84348627D02*
X79828320Y-84381960D01*
X79828320Y-84381960D02*
X79894987Y-84381960D01*
X79894987Y-84381960D02*
X79994987Y-84348627D01*
X79994987Y-84348627D02*
X80028320Y-84315293D01*
X80028320Y-84315293D02*
X80028320Y-84081960D01*
X80028320Y-84081960D02*
X79894987Y-84081960D01*
X80328320Y-84381960D02*
X80328320Y-83681960D01*
X80328320Y-83681960D02*
X80594987Y-83681960D01*
X80594987Y-83681960D02*
X80661654Y-83715293D01*
X80661654Y-83715293D02*
X80694987Y-83748627D01*
X80694987Y-83748627D02*
X80728320Y-83815293D01*
X80728320Y-83815293D02*
X80728320Y-83915293D01*
X80728320Y-83915293D02*
X80694987Y-83981960D01*
X80694987Y-83981960D02*
X80661654Y-84015293D01*
X80661654Y-84015293D02*
X80594987Y-84048627D01*
X80594987Y-84048627D02*
X80328320Y-84048627D01*
X81028320Y-84381960D02*
X81028320Y-83681960D01*
X81494987Y-83681960D02*
X81628320Y-83681960D01*
X81628320Y-83681960D02*
X81694987Y-83715293D01*
X81694987Y-83715293D02*
X81761653Y-83781960D01*
X81761653Y-83781960D02*
X81794987Y-83915293D01*
X81794987Y-83915293D02*
X81794987Y-84148627D01*
X81794987Y-84148627D02*
X81761653Y-84281960D01*
X81761653Y-84281960D02*
X81694987Y-84348627D01*
X81694987Y-84348627D02*
X81628320Y-84381960D01*
X81628320Y-84381960D02*
X81494987Y-84381960D01*
X81494987Y-84381960D02*
X81428320Y-84348627D01*
X81428320Y-84348627D02*
X81361653Y-84281960D01*
X81361653Y-84281960D02*
X81328320Y-84148627D01*
X81328320Y-84148627D02*
X81328320Y-83915293D01*
X81328320Y-83915293D02*
X81361653Y-83781960D01*
X81361653Y-83781960D02*
X81428320Y-83715293D01*
X81428320Y-83715293D02*
X81494987Y-83681960D01*
X82061653Y-83748627D02*
X82094986Y-83715293D01*
X82094986Y-83715293D02*
X82161653Y-83681960D01*
X82161653Y-83681960D02*
X82328320Y-83681960D01*
X82328320Y-83681960D02*
X82394986Y-83715293D01*
X82394986Y-83715293D02*
X82428320Y-83748627D01*
X82428320Y-83748627D02*
X82461653Y-83815293D01*
X82461653Y-83815293D02*
X82461653Y-83881960D01*
X82461653Y-83881960D02*
X82428320Y-83981960D01*
X82428320Y-83981960D02*
X82028320Y-84381960D01*
X82028320Y-84381960D02*
X82461653Y-84381960D01*
X59801653Y-55741960D02*
X60034987Y-56441960D01*
X60034987Y-56441960D02*
X60268320Y-55741960D01*
X60501653Y-56441960D02*
X60501653Y-55741960D01*
X60501653Y-55741960D02*
X60901653Y-56441960D01*
X60901653Y-56441960D02*
X60901653Y-55741960D01*
X61734986Y-55708627D02*
X61134986Y-56608627D01*
X62334986Y-55775293D02*
X62268319Y-55741960D01*
X62268319Y-55741960D02*
X62168319Y-55741960D01*
X62168319Y-55741960D02*
X62068319Y-55775293D01*
X62068319Y-55775293D02*
X62001653Y-55841960D01*
X62001653Y-55841960D02*
X61968319Y-55908627D01*
X61968319Y-55908627D02*
X61934986Y-56041960D01*
X61934986Y-56041960D02*
X61934986Y-56141960D01*
X61934986Y-56141960D02*
X61968319Y-56275293D01*
X61968319Y-56275293D02*
X62001653Y-56341960D01*
X62001653Y-56341960D02*
X62068319Y-56408627D01*
X62068319Y-56408627D02*
X62168319Y-56441960D01*
X62168319Y-56441960D02*
X62234986Y-56441960D01*
X62234986Y-56441960D02*
X62334986Y-56408627D01*
X62334986Y-56408627D02*
X62368319Y-56375293D01*
X62368319Y-56375293D02*
X62368319Y-56141960D01*
X62368319Y-56141960D02*
X62234986Y-56141960D01*
X62668319Y-56441960D02*
X62668319Y-55741960D01*
X62668319Y-55741960D02*
X62934986Y-55741960D01*
X62934986Y-55741960D02*
X63001653Y-55775293D01*
X63001653Y-55775293D02*
X63034986Y-55808627D01*
X63034986Y-55808627D02*
X63068319Y-55875293D01*
X63068319Y-55875293D02*
X63068319Y-55975293D01*
X63068319Y-55975293D02*
X63034986Y-56041960D01*
X63034986Y-56041960D02*
X63001653Y-56075293D01*
X63001653Y-56075293D02*
X62934986Y-56108627D01*
X62934986Y-56108627D02*
X62668319Y-56108627D01*
X63368319Y-56441960D02*
X63368319Y-55741960D01*
X63834986Y-55741960D02*
X63968319Y-55741960D01*
X63968319Y-55741960D02*
X64034986Y-55775293D01*
X64034986Y-55775293D02*
X64101652Y-55841960D01*
X64101652Y-55841960D02*
X64134986Y-55975293D01*
X64134986Y-55975293D02*
X64134986Y-56208627D01*
X64134986Y-56208627D02*
X64101652Y-56341960D01*
X64101652Y-56341960D02*
X64034986Y-56408627D01*
X64034986Y-56408627D02*
X63968319Y-56441960D01*
X63968319Y-56441960D02*
X63834986Y-56441960D01*
X63834986Y-56441960D02*
X63768319Y-56408627D01*
X63768319Y-56408627D02*
X63701652Y-56341960D01*
X63701652Y-56341960D02*
X63668319Y-56208627D01*
X63668319Y-56208627D02*
X63668319Y-55975293D01*
X63668319Y-55975293D02*
X63701652Y-55841960D01*
X63701652Y-55841960D02*
X63768319Y-55775293D01*
X63768319Y-55775293D02*
X63834986Y-55741960D01*
X64368319Y-55741960D02*
X64801652Y-55741960D01*
X64801652Y-55741960D02*
X64568319Y-56008627D01*
X64568319Y-56008627D02*
X64668319Y-56008627D01*
X64668319Y-56008627D02*
X64734985Y-56041960D01*
X64734985Y-56041960D02*
X64768319Y-56075293D01*
X64768319Y-56075293D02*
X64801652Y-56141960D01*
X64801652Y-56141960D02*
X64801652Y-56308627D01*
X64801652Y-56308627D02*
X64768319Y-56375293D01*
X64768319Y-56375293D02*
X64734985Y-56408627D01*
X64734985Y-56408627D02*
X64668319Y-56441960D01*
X64668319Y-56441960D02*
X64468319Y-56441960D01*
X64468319Y-56441960D02*
X64401652Y-56408627D01*
X64401652Y-56408627D02*
X64368319Y-56375293D01*
X65134986Y-56441960D02*
X65268319Y-56441960D01*
X65268319Y-56441960D02*
X65334986Y-56408627D01*
X65334986Y-56408627D02*
X65368319Y-56375293D01*
X65368319Y-56375293D02*
X65434986Y-56275293D01*
X65434986Y-56275293D02*
X65468319Y-56141960D01*
X65468319Y-56141960D02*
X65468319Y-55875293D01*
X65468319Y-55875293D02*
X65434986Y-55808627D01*
X65434986Y-55808627D02*
X65401652Y-55775293D01*
X65401652Y-55775293D02*
X65334986Y-55741960D01*
X65334986Y-55741960D02*
X65201652Y-55741960D01*
X65201652Y-55741960D02*
X65134986Y-55775293D01*
X65134986Y-55775293D02*
X65101652Y-55808627D01*
X65101652Y-55808627D02*
X65068319Y-55875293D01*
X65068319Y-55875293D02*
X65068319Y-56041960D01*
X65068319Y-56041960D02*
X65101652Y-56108627D01*
X65101652Y-56108627D02*
X65134986Y-56141960D01*
X65134986Y-56141960D02*
X65201652Y-56175293D01*
X65201652Y-56175293D02*
X65334986Y-56175293D01*
X65334986Y-56175293D02*
X65401652Y-56141960D01*
X65401652Y-56141960D02*
X65434986Y-56108627D01*
X65434986Y-56108627D02*
X65468319Y-56041960D01*
X79994987Y-78635293D02*
X79928320Y-78601960D01*
X79928320Y-78601960D02*
X79828320Y-78601960D01*
X79828320Y-78601960D02*
X79728320Y-78635293D01*
X79728320Y-78635293D02*
X79661654Y-78701960D01*
X79661654Y-78701960D02*
X79628320Y-78768627D01*
X79628320Y-78768627D02*
X79594987Y-78901960D01*
X79594987Y-78901960D02*
X79594987Y-79001960D01*
X79594987Y-79001960D02*
X79628320Y-79135293D01*
X79628320Y-79135293D02*
X79661654Y-79201960D01*
X79661654Y-79201960D02*
X79728320Y-79268627D01*
X79728320Y-79268627D02*
X79828320Y-79301960D01*
X79828320Y-79301960D02*
X79894987Y-79301960D01*
X79894987Y-79301960D02*
X79994987Y-79268627D01*
X79994987Y-79268627D02*
X80028320Y-79235293D01*
X80028320Y-79235293D02*
X80028320Y-79001960D01*
X80028320Y-79001960D02*
X79894987Y-79001960D01*
X80328320Y-79301960D02*
X80328320Y-78601960D01*
X80328320Y-78601960D02*
X80594987Y-78601960D01*
X80594987Y-78601960D02*
X80661654Y-78635293D01*
X80661654Y-78635293D02*
X80694987Y-78668627D01*
X80694987Y-78668627D02*
X80728320Y-78735293D01*
X80728320Y-78735293D02*
X80728320Y-78835293D01*
X80728320Y-78835293D02*
X80694987Y-78901960D01*
X80694987Y-78901960D02*
X80661654Y-78935293D01*
X80661654Y-78935293D02*
X80594987Y-78968627D01*
X80594987Y-78968627D02*
X80328320Y-78968627D01*
X81028320Y-79301960D02*
X81028320Y-78601960D01*
X81494987Y-78601960D02*
X81628320Y-78601960D01*
X81628320Y-78601960D02*
X81694987Y-78635293D01*
X81694987Y-78635293D02*
X81761653Y-78701960D01*
X81761653Y-78701960D02*
X81794987Y-78835293D01*
X81794987Y-78835293D02*
X81794987Y-79068627D01*
X81794987Y-79068627D02*
X81761653Y-79201960D01*
X81761653Y-79201960D02*
X81694987Y-79268627D01*
X81694987Y-79268627D02*
X81628320Y-79301960D01*
X81628320Y-79301960D02*
X81494987Y-79301960D01*
X81494987Y-79301960D02*
X81428320Y-79268627D01*
X81428320Y-79268627D02*
X81361653Y-79201960D01*
X81361653Y-79201960D02*
X81328320Y-79068627D01*
X81328320Y-79068627D02*
X81328320Y-78835293D01*
X81328320Y-78835293D02*
X81361653Y-78701960D01*
X81361653Y-78701960D02*
X81428320Y-78635293D01*
X81428320Y-78635293D02*
X81494987Y-78601960D01*
X82394986Y-78835293D02*
X82394986Y-79301960D01*
X82228320Y-78568627D02*
X82061653Y-79068627D01*
X82061653Y-79068627D02*
X82494986Y-79068627D01*
X79328320Y-65935293D02*
X79261653Y-65901960D01*
X79261653Y-65901960D02*
X79161653Y-65901960D01*
X79161653Y-65901960D02*
X79061653Y-65935293D01*
X79061653Y-65935293D02*
X78994987Y-66001960D01*
X78994987Y-66001960D02*
X78961653Y-66068627D01*
X78961653Y-66068627D02*
X78928320Y-66201960D01*
X78928320Y-66201960D02*
X78928320Y-66301960D01*
X78928320Y-66301960D02*
X78961653Y-66435293D01*
X78961653Y-66435293D02*
X78994987Y-66501960D01*
X78994987Y-66501960D02*
X79061653Y-66568627D01*
X79061653Y-66568627D02*
X79161653Y-66601960D01*
X79161653Y-66601960D02*
X79228320Y-66601960D01*
X79228320Y-66601960D02*
X79328320Y-66568627D01*
X79328320Y-66568627D02*
X79361653Y-66535293D01*
X79361653Y-66535293D02*
X79361653Y-66301960D01*
X79361653Y-66301960D02*
X79228320Y-66301960D01*
X79661653Y-66601960D02*
X79661653Y-65901960D01*
X79661653Y-65901960D02*
X79928320Y-65901960D01*
X79928320Y-65901960D02*
X79994987Y-65935293D01*
X79994987Y-65935293D02*
X80028320Y-65968627D01*
X80028320Y-65968627D02*
X80061653Y-66035293D01*
X80061653Y-66035293D02*
X80061653Y-66135293D01*
X80061653Y-66135293D02*
X80028320Y-66201960D01*
X80028320Y-66201960D02*
X79994987Y-66235293D01*
X79994987Y-66235293D02*
X79928320Y-66268627D01*
X79928320Y-66268627D02*
X79661653Y-66268627D01*
X80361653Y-66601960D02*
X80361653Y-65901960D01*
X80828320Y-65901960D02*
X80961653Y-65901960D01*
X80961653Y-65901960D02*
X81028320Y-65935293D01*
X81028320Y-65935293D02*
X81094986Y-66001960D01*
X81094986Y-66001960D02*
X81128320Y-66135293D01*
X81128320Y-66135293D02*
X81128320Y-66368627D01*
X81128320Y-66368627D02*
X81094986Y-66501960D01*
X81094986Y-66501960D02*
X81028320Y-66568627D01*
X81028320Y-66568627D02*
X80961653Y-66601960D01*
X80961653Y-66601960D02*
X80828320Y-66601960D01*
X80828320Y-66601960D02*
X80761653Y-66568627D01*
X80761653Y-66568627D02*
X80694986Y-66501960D01*
X80694986Y-66501960D02*
X80661653Y-66368627D01*
X80661653Y-66368627D02*
X80661653Y-66135293D01*
X80661653Y-66135293D02*
X80694986Y-66001960D01*
X80694986Y-66001960D02*
X80761653Y-65935293D01*
X80761653Y-65935293D02*
X80828320Y-65901960D01*
X81794986Y-66601960D02*
X81394986Y-66601960D01*
X81594986Y-66601960D02*
X81594986Y-65901960D01*
X81594986Y-65901960D02*
X81528319Y-66001960D01*
X81528319Y-66001960D02*
X81461653Y-66068627D01*
X81461653Y-66068627D02*
X81394986Y-66101960D01*
X82128320Y-66601960D02*
X82261653Y-66601960D01*
X82261653Y-66601960D02*
X82328320Y-66568627D01*
X82328320Y-66568627D02*
X82361653Y-66535293D01*
X82361653Y-66535293D02*
X82428320Y-66435293D01*
X82428320Y-66435293D02*
X82461653Y-66301960D01*
X82461653Y-66301960D02*
X82461653Y-66035293D01*
X82461653Y-66035293D02*
X82428320Y-65968627D01*
X82428320Y-65968627D02*
X82394986Y-65935293D01*
X82394986Y-65935293D02*
X82328320Y-65901960D01*
X82328320Y-65901960D02*
X82194986Y-65901960D01*
X82194986Y-65901960D02*
X82128320Y-65935293D01*
X82128320Y-65935293D02*
X82094986Y-65968627D01*
X82094986Y-65968627D02*
X82061653Y-66035293D01*
X82061653Y-66035293D02*
X82061653Y-66201960D01*
X82061653Y-66201960D02*
X82094986Y-66268627D01*
X82094986Y-66268627D02*
X82128320Y-66301960D01*
X82128320Y-66301960D02*
X82194986Y-66335293D01*
X82194986Y-66335293D02*
X82328320Y-66335293D01*
X82328320Y-66335293D02*
X82394986Y-66301960D01*
X82394986Y-66301960D02*
X82428320Y-66268627D01*
X82428320Y-66268627D02*
X82461653Y-66201960D01*
X79328320Y-60855293D02*
X79261653Y-60821960D01*
X79261653Y-60821960D02*
X79161653Y-60821960D01*
X79161653Y-60821960D02*
X79061653Y-60855293D01*
X79061653Y-60855293D02*
X78994987Y-60921960D01*
X78994987Y-60921960D02*
X78961653Y-60988627D01*
X78961653Y-60988627D02*
X78928320Y-61121960D01*
X78928320Y-61121960D02*
X78928320Y-61221960D01*
X78928320Y-61221960D02*
X78961653Y-61355293D01*
X78961653Y-61355293D02*
X78994987Y-61421960D01*
X78994987Y-61421960D02*
X79061653Y-61488627D01*
X79061653Y-61488627D02*
X79161653Y-61521960D01*
X79161653Y-61521960D02*
X79228320Y-61521960D01*
X79228320Y-61521960D02*
X79328320Y-61488627D01*
X79328320Y-61488627D02*
X79361653Y-61455293D01*
X79361653Y-61455293D02*
X79361653Y-61221960D01*
X79361653Y-61221960D02*
X79228320Y-61221960D01*
X79661653Y-61521960D02*
X79661653Y-60821960D01*
X79661653Y-60821960D02*
X79928320Y-60821960D01*
X79928320Y-60821960D02*
X79994987Y-60855293D01*
X79994987Y-60855293D02*
X80028320Y-60888627D01*
X80028320Y-60888627D02*
X80061653Y-60955293D01*
X80061653Y-60955293D02*
X80061653Y-61055293D01*
X80061653Y-61055293D02*
X80028320Y-61121960D01*
X80028320Y-61121960D02*
X79994987Y-61155293D01*
X79994987Y-61155293D02*
X79928320Y-61188627D01*
X79928320Y-61188627D02*
X79661653Y-61188627D01*
X80361653Y-61521960D02*
X80361653Y-60821960D01*
X80828320Y-60821960D02*
X80961653Y-60821960D01*
X80961653Y-60821960D02*
X81028320Y-60855293D01*
X81028320Y-60855293D02*
X81094986Y-60921960D01*
X81094986Y-60921960D02*
X81128320Y-61055293D01*
X81128320Y-61055293D02*
X81128320Y-61288627D01*
X81128320Y-61288627D02*
X81094986Y-61421960D01*
X81094986Y-61421960D02*
X81028320Y-61488627D01*
X81028320Y-61488627D02*
X80961653Y-61521960D01*
X80961653Y-61521960D02*
X80828320Y-61521960D01*
X80828320Y-61521960D02*
X80761653Y-61488627D01*
X80761653Y-61488627D02*
X80694986Y-61421960D01*
X80694986Y-61421960D02*
X80661653Y-61288627D01*
X80661653Y-61288627D02*
X80661653Y-61055293D01*
X80661653Y-61055293D02*
X80694986Y-60921960D01*
X80694986Y-60921960D02*
X80761653Y-60855293D01*
X80761653Y-60855293D02*
X80828320Y-60821960D01*
X81394986Y-60888627D02*
X81428319Y-60855293D01*
X81428319Y-60855293D02*
X81494986Y-60821960D01*
X81494986Y-60821960D02*
X81661653Y-60821960D01*
X81661653Y-60821960D02*
X81728319Y-60855293D01*
X81728319Y-60855293D02*
X81761653Y-60888627D01*
X81761653Y-60888627D02*
X81794986Y-60955293D01*
X81794986Y-60955293D02*
X81794986Y-61021960D01*
X81794986Y-61021960D02*
X81761653Y-61121960D01*
X81761653Y-61121960D02*
X81361653Y-61521960D01*
X81361653Y-61521960D02*
X81794986Y-61521960D01*
X82461653Y-61521960D02*
X82061653Y-61521960D01*
X82261653Y-61521960D02*
X82261653Y-60821960D01*
X82261653Y-60821960D02*
X82194986Y-60921960D01*
X82194986Y-60921960D02*
X82128320Y-60988627D01*
X82128320Y-60988627D02*
X82061653Y-61021960D01*
X79328320Y-50695293D02*
X79261653Y-50661960D01*
X79261653Y-50661960D02*
X79161653Y-50661960D01*
X79161653Y-50661960D02*
X79061653Y-50695293D01*
X79061653Y-50695293D02*
X78994987Y-50761960D01*
X78994987Y-50761960D02*
X78961653Y-50828627D01*
X78961653Y-50828627D02*
X78928320Y-50961960D01*
X78928320Y-50961960D02*
X78928320Y-51061960D01*
X78928320Y-51061960D02*
X78961653Y-51195293D01*
X78961653Y-51195293D02*
X78994987Y-51261960D01*
X78994987Y-51261960D02*
X79061653Y-51328627D01*
X79061653Y-51328627D02*
X79161653Y-51361960D01*
X79161653Y-51361960D02*
X79228320Y-51361960D01*
X79228320Y-51361960D02*
X79328320Y-51328627D01*
X79328320Y-51328627D02*
X79361653Y-51295293D01*
X79361653Y-51295293D02*
X79361653Y-51061960D01*
X79361653Y-51061960D02*
X79228320Y-51061960D01*
X79661653Y-51361960D02*
X79661653Y-50661960D01*
X79661653Y-50661960D02*
X79928320Y-50661960D01*
X79928320Y-50661960D02*
X79994987Y-50695293D01*
X79994987Y-50695293D02*
X80028320Y-50728627D01*
X80028320Y-50728627D02*
X80061653Y-50795293D01*
X80061653Y-50795293D02*
X80061653Y-50895293D01*
X80061653Y-50895293D02*
X80028320Y-50961960D01*
X80028320Y-50961960D02*
X79994987Y-50995293D01*
X79994987Y-50995293D02*
X79928320Y-51028627D01*
X79928320Y-51028627D02*
X79661653Y-51028627D01*
X80361653Y-51361960D02*
X80361653Y-50661960D01*
X80828320Y-50661960D02*
X80961653Y-50661960D01*
X80961653Y-50661960D02*
X81028320Y-50695293D01*
X81028320Y-50695293D02*
X81094986Y-50761960D01*
X81094986Y-50761960D02*
X81128320Y-50895293D01*
X81128320Y-50895293D02*
X81128320Y-51128627D01*
X81128320Y-51128627D02*
X81094986Y-51261960D01*
X81094986Y-51261960D02*
X81028320Y-51328627D01*
X81028320Y-51328627D02*
X80961653Y-51361960D01*
X80961653Y-51361960D02*
X80828320Y-51361960D01*
X80828320Y-51361960D02*
X80761653Y-51328627D01*
X80761653Y-51328627D02*
X80694986Y-51261960D01*
X80694986Y-51261960D02*
X80661653Y-51128627D01*
X80661653Y-51128627D02*
X80661653Y-50895293D01*
X80661653Y-50895293D02*
X80694986Y-50761960D01*
X80694986Y-50761960D02*
X80761653Y-50695293D01*
X80761653Y-50695293D02*
X80828320Y-50661960D01*
X81394986Y-50728627D02*
X81428319Y-50695293D01*
X81428319Y-50695293D02*
X81494986Y-50661960D01*
X81494986Y-50661960D02*
X81661653Y-50661960D01*
X81661653Y-50661960D02*
X81728319Y-50695293D01*
X81728319Y-50695293D02*
X81761653Y-50728627D01*
X81761653Y-50728627D02*
X81794986Y-50795293D01*
X81794986Y-50795293D02*
X81794986Y-50861960D01*
X81794986Y-50861960D02*
X81761653Y-50961960D01*
X81761653Y-50961960D02*
X81361653Y-51361960D01*
X81361653Y-51361960D02*
X81794986Y-51361960D01*
X82028320Y-50661960D02*
X82461653Y-50661960D01*
X82461653Y-50661960D02*
X82228320Y-50928627D01*
X82228320Y-50928627D02*
X82328320Y-50928627D01*
X82328320Y-50928627D02*
X82394986Y-50961960D01*
X82394986Y-50961960D02*
X82428320Y-50995293D01*
X82428320Y-50995293D02*
X82461653Y-51061960D01*
X82461653Y-51061960D02*
X82461653Y-51228627D01*
X82461653Y-51228627D02*
X82428320Y-51295293D01*
X82428320Y-51295293D02*
X82394986Y-51328627D01*
X82394986Y-51328627D02*
X82328320Y-51361960D01*
X82328320Y-51361960D02*
X82128320Y-51361960D01*
X82128320Y-51361960D02*
X82061653Y-51328627D01*
X82061653Y-51328627D02*
X82028320Y-51295293D01*
X81194986Y-94475293D02*
X81161653Y-94508627D01*
X81161653Y-94508627D02*
X81061653Y-94541960D01*
X81061653Y-94541960D02*
X80994986Y-94541960D01*
X80994986Y-94541960D02*
X80894986Y-94508627D01*
X80894986Y-94508627D02*
X80828320Y-94441960D01*
X80828320Y-94441960D02*
X80794986Y-94375293D01*
X80794986Y-94375293D02*
X80761653Y-94241960D01*
X80761653Y-94241960D02*
X80761653Y-94141960D01*
X80761653Y-94141960D02*
X80794986Y-94008627D01*
X80794986Y-94008627D02*
X80828320Y-93941960D01*
X80828320Y-93941960D02*
X80894986Y-93875293D01*
X80894986Y-93875293D02*
X80994986Y-93841960D01*
X80994986Y-93841960D02*
X81061653Y-93841960D01*
X81061653Y-93841960D02*
X81161653Y-93875293D01*
X81161653Y-93875293D02*
X81194986Y-93908627D01*
X81828320Y-94541960D02*
X81494986Y-94541960D01*
X81494986Y-94541960D02*
X81494986Y-93841960D01*
X82061653Y-94541960D02*
X82061653Y-93841960D01*
X82461653Y-94541960D02*
X82161653Y-94141960D01*
X82461653Y-93841960D02*
X82061653Y-94241960D01*
X81394986Y-92001960D02*
X81394986Y-91301960D01*
X81394986Y-91301960D02*
X81561653Y-91301960D01*
X81561653Y-91301960D02*
X81661653Y-91335293D01*
X81661653Y-91335293D02*
X81728320Y-91401960D01*
X81728320Y-91401960D02*
X81761653Y-91468627D01*
X81761653Y-91468627D02*
X81794986Y-91601960D01*
X81794986Y-91601960D02*
X81794986Y-91701960D01*
X81794986Y-91701960D02*
X81761653Y-91835293D01*
X81761653Y-91835293D02*
X81728320Y-91901960D01*
X81728320Y-91901960D02*
X81661653Y-91968627D01*
X81661653Y-91968627D02*
X81561653Y-92001960D01*
X81561653Y-92001960D02*
X81394986Y-92001960D01*
X82228320Y-91301960D02*
X82294986Y-91301960D01*
X82294986Y-91301960D02*
X82361653Y-91335293D01*
X82361653Y-91335293D02*
X82394986Y-91368627D01*
X82394986Y-91368627D02*
X82428320Y-91435293D01*
X82428320Y-91435293D02*
X82461653Y-91568627D01*
X82461653Y-91568627D02*
X82461653Y-91735293D01*
X82461653Y-91735293D02*
X82428320Y-91868627D01*
X82428320Y-91868627D02*
X82394986Y-91935293D01*
X82394986Y-91935293D02*
X82361653Y-91968627D01*
X82361653Y-91968627D02*
X82294986Y-92001960D01*
X82294986Y-92001960D02*
X82228320Y-92001960D01*
X82228320Y-92001960D02*
X82161653Y-91968627D01*
X82161653Y-91968627D02*
X82128320Y-91935293D01*
X82128320Y-91935293D02*
X82094986Y-91868627D01*
X82094986Y-91868627D02*
X82061653Y-91735293D01*
X82061653Y-91735293D02*
X82061653Y-91568627D01*
X82061653Y-91568627D02*
X82094986Y-91435293D01*
X82094986Y-91435293D02*
X82128320Y-91368627D01*
X82128320Y-91368627D02*
X82161653Y-91335293D01*
X82161653Y-91335293D02*
X82228320Y-91301960D01*
X79994987Y-71015293D02*
X79928320Y-70981960D01*
X79928320Y-70981960D02*
X79828320Y-70981960D01*
X79828320Y-70981960D02*
X79728320Y-71015293D01*
X79728320Y-71015293D02*
X79661654Y-71081960D01*
X79661654Y-71081960D02*
X79628320Y-71148627D01*
X79628320Y-71148627D02*
X79594987Y-71281960D01*
X79594987Y-71281960D02*
X79594987Y-71381960D01*
X79594987Y-71381960D02*
X79628320Y-71515293D01*
X79628320Y-71515293D02*
X79661654Y-71581960D01*
X79661654Y-71581960D02*
X79728320Y-71648627D01*
X79728320Y-71648627D02*
X79828320Y-71681960D01*
X79828320Y-71681960D02*
X79894987Y-71681960D01*
X79894987Y-71681960D02*
X79994987Y-71648627D01*
X79994987Y-71648627D02*
X80028320Y-71615293D01*
X80028320Y-71615293D02*
X80028320Y-71381960D01*
X80028320Y-71381960D02*
X79894987Y-71381960D01*
X80328320Y-71681960D02*
X80328320Y-70981960D01*
X80328320Y-70981960D02*
X80594987Y-70981960D01*
X80594987Y-70981960D02*
X80661654Y-71015293D01*
X80661654Y-71015293D02*
X80694987Y-71048627D01*
X80694987Y-71048627D02*
X80728320Y-71115293D01*
X80728320Y-71115293D02*
X80728320Y-71215293D01*
X80728320Y-71215293D02*
X80694987Y-71281960D01*
X80694987Y-71281960D02*
X80661654Y-71315293D01*
X80661654Y-71315293D02*
X80594987Y-71348627D01*
X80594987Y-71348627D02*
X80328320Y-71348627D01*
X81028320Y-71681960D02*
X81028320Y-70981960D01*
X81494987Y-70981960D02*
X81628320Y-70981960D01*
X81628320Y-70981960D02*
X81694987Y-71015293D01*
X81694987Y-71015293D02*
X81761653Y-71081960D01*
X81761653Y-71081960D02*
X81794987Y-71215293D01*
X81794987Y-71215293D02*
X81794987Y-71448627D01*
X81794987Y-71448627D02*
X81761653Y-71581960D01*
X81761653Y-71581960D02*
X81694987Y-71648627D01*
X81694987Y-71648627D02*
X81628320Y-71681960D01*
X81628320Y-71681960D02*
X81494987Y-71681960D01*
X81494987Y-71681960D02*
X81428320Y-71648627D01*
X81428320Y-71648627D02*
X81361653Y-71581960D01*
X81361653Y-71581960D02*
X81328320Y-71448627D01*
X81328320Y-71448627D02*
X81328320Y-71215293D01*
X81328320Y-71215293D02*
X81361653Y-71081960D01*
X81361653Y-71081960D02*
X81428320Y-71015293D01*
X81428320Y-71015293D02*
X81494987Y-70981960D01*
X82428320Y-70981960D02*
X82094986Y-70981960D01*
X82094986Y-70981960D02*
X82061653Y-71315293D01*
X82061653Y-71315293D02*
X82094986Y-71281960D01*
X82094986Y-71281960D02*
X82161653Y-71248627D01*
X82161653Y-71248627D02*
X82328320Y-71248627D01*
X82328320Y-71248627D02*
X82394986Y-71281960D01*
X82394986Y-71281960D02*
X82428320Y-71315293D01*
X82428320Y-71315293D02*
X82461653Y-71381960D01*
X82461653Y-71381960D02*
X82461653Y-71548627D01*
X82461653Y-71548627D02*
X82428320Y-71615293D01*
X82428320Y-71615293D02*
X82394986Y-71648627D01*
X82394986Y-71648627D02*
X82328320Y-71681960D01*
X82328320Y-71681960D02*
X82161653Y-71681960D01*
X82161653Y-71681960D02*
X82094986Y-71648627D01*
X82094986Y-71648627D02*
X82061653Y-71615293D01*
X60268320Y-73555293D02*
X60201653Y-73521960D01*
X60201653Y-73521960D02*
X60101653Y-73521960D01*
X60101653Y-73521960D02*
X60001653Y-73555293D01*
X60001653Y-73555293D02*
X59934987Y-73621960D01*
X59934987Y-73621960D02*
X59901653Y-73688627D01*
X59901653Y-73688627D02*
X59868320Y-73821960D01*
X59868320Y-73821960D02*
X59868320Y-73921960D01*
X59868320Y-73921960D02*
X59901653Y-74055293D01*
X59901653Y-74055293D02*
X59934987Y-74121960D01*
X59934987Y-74121960D02*
X60001653Y-74188627D01*
X60001653Y-74188627D02*
X60101653Y-74221960D01*
X60101653Y-74221960D02*
X60168320Y-74221960D01*
X60168320Y-74221960D02*
X60268320Y-74188627D01*
X60268320Y-74188627D02*
X60301653Y-74155293D01*
X60301653Y-74155293D02*
X60301653Y-73921960D01*
X60301653Y-73921960D02*
X60168320Y-73921960D01*
X60601653Y-74221960D02*
X60601653Y-73521960D01*
X60601653Y-73521960D02*
X60868320Y-73521960D01*
X60868320Y-73521960D02*
X60934987Y-73555293D01*
X60934987Y-73555293D02*
X60968320Y-73588627D01*
X60968320Y-73588627D02*
X61001653Y-73655293D01*
X61001653Y-73655293D02*
X61001653Y-73755293D01*
X61001653Y-73755293D02*
X60968320Y-73821960D01*
X60968320Y-73821960D02*
X60934987Y-73855293D01*
X60934987Y-73855293D02*
X60868320Y-73888627D01*
X60868320Y-73888627D02*
X60601653Y-73888627D01*
X61301653Y-74221960D02*
X61301653Y-73521960D01*
X61768320Y-73521960D02*
X61901653Y-73521960D01*
X61901653Y-73521960D02*
X61968320Y-73555293D01*
X61968320Y-73555293D02*
X62034986Y-73621960D01*
X62034986Y-73621960D02*
X62068320Y-73755293D01*
X62068320Y-73755293D02*
X62068320Y-73988627D01*
X62068320Y-73988627D02*
X62034986Y-74121960D01*
X62034986Y-74121960D02*
X61968320Y-74188627D01*
X61968320Y-74188627D02*
X61901653Y-74221960D01*
X61901653Y-74221960D02*
X61768320Y-74221960D01*
X61768320Y-74221960D02*
X61701653Y-74188627D01*
X61701653Y-74188627D02*
X61634986Y-74121960D01*
X61634986Y-74121960D02*
X61601653Y-73988627D01*
X61601653Y-73988627D02*
X61601653Y-73755293D01*
X61601653Y-73755293D02*
X61634986Y-73621960D01*
X61634986Y-73621960D02*
X61701653Y-73555293D01*
X61701653Y-73555293D02*
X61768320Y-73521960D01*
X62334986Y-73588627D02*
X62368319Y-73555293D01*
X62368319Y-73555293D02*
X62434986Y-73521960D01*
X62434986Y-73521960D02*
X62601653Y-73521960D01*
X62601653Y-73521960D02*
X62668319Y-73555293D01*
X62668319Y-73555293D02*
X62701653Y-73588627D01*
X62701653Y-73588627D02*
X62734986Y-73655293D01*
X62734986Y-73655293D02*
X62734986Y-73721960D01*
X62734986Y-73721960D02*
X62701653Y-73821960D01*
X62701653Y-73821960D02*
X62301653Y-74221960D01*
X62301653Y-74221960D02*
X62734986Y-74221960D01*
X62968320Y-73521960D02*
X63434986Y-73521960D01*
X63434986Y-73521960D02*
X63134986Y-74221960D01*
X79328320Y-68475293D02*
X79261653Y-68441960D01*
X79261653Y-68441960D02*
X79161653Y-68441960D01*
X79161653Y-68441960D02*
X79061653Y-68475293D01*
X79061653Y-68475293D02*
X78994987Y-68541960D01*
X78994987Y-68541960D02*
X78961653Y-68608627D01*
X78961653Y-68608627D02*
X78928320Y-68741960D01*
X78928320Y-68741960D02*
X78928320Y-68841960D01*
X78928320Y-68841960D02*
X78961653Y-68975293D01*
X78961653Y-68975293D02*
X78994987Y-69041960D01*
X78994987Y-69041960D02*
X79061653Y-69108627D01*
X79061653Y-69108627D02*
X79161653Y-69141960D01*
X79161653Y-69141960D02*
X79228320Y-69141960D01*
X79228320Y-69141960D02*
X79328320Y-69108627D01*
X79328320Y-69108627D02*
X79361653Y-69075293D01*
X79361653Y-69075293D02*
X79361653Y-68841960D01*
X79361653Y-68841960D02*
X79228320Y-68841960D01*
X79661653Y-69141960D02*
X79661653Y-68441960D01*
X79661653Y-68441960D02*
X79928320Y-68441960D01*
X79928320Y-68441960D02*
X79994987Y-68475293D01*
X79994987Y-68475293D02*
X80028320Y-68508627D01*
X80028320Y-68508627D02*
X80061653Y-68575293D01*
X80061653Y-68575293D02*
X80061653Y-68675293D01*
X80061653Y-68675293D02*
X80028320Y-68741960D01*
X80028320Y-68741960D02*
X79994987Y-68775293D01*
X79994987Y-68775293D02*
X79928320Y-68808627D01*
X79928320Y-68808627D02*
X79661653Y-68808627D01*
X80361653Y-69141960D02*
X80361653Y-68441960D01*
X80828320Y-68441960D02*
X80961653Y-68441960D01*
X80961653Y-68441960D02*
X81028320Y-68475293D01*
X81028320Y-68475293D02*
X81094986Y-68541960D01*
X81094986Y-68541960D02*
X81128320Y-68675293D01*
X81128320Y-68675293D02*
X81128320Y-68908627D01*
X81128320Y-68908627D02*
X81094986Y-69041960D01*
X81094986Y-69041960D02*
X81028320Y-69108627D01*
X81028320Y-69108627D02*
X80961653Y-69141960D01*
X80961653Y-69141960D02*
X80828320Y-69141960D01*
X80828320Y-69141960D02*
X80761653Y-69108627D01*
X80761653Y-69108627D02*
X80694986Y-69041960D01*
X80694986Y-69041960D02*
X80661653Y-68908627D01*
X80661653Y-68908627D02*
X80661653Y-68675293D01*
X80661653Y-68675293D02*
X80694986Y-68541960D01*
X80694986Y-68541960D02*
X80761653Y-68475293D01*
X80761653Y-68475293D02*
X80828320Y-68441960D01*
X81794986Y-69141960D02*
X81394986Y-69141960D01*
X81594986Y-69141960D02*
X81594986Y-68441960D01*
X81594986Y-68441960D02*
X81528319Y-68541960D01*
X81528319Y-68541960D02*
X81461653Y-68608627D01*
X81461653Y-68608627D02*
X81394986Y-68641960D01*
X82194986Y-68741960D02*
X82128320Y-68708627D01*
X82128320Y-68708627D02*
X82094986Y-68675293D01*
X82094986Y-68675293D02*
X82061653Y-68608627D01*
X82061653Y-68608627D02*
X82061653Y-68575293D01*
X82061653Y-68575293D02*
X82094986Y-68508627D01*
X82094986Y-68508627D02*
X82128320Y-68475293D01*
X82128320Y-68475293D02*
X82194986Y-68441960D01*
X82194986Y-68441960D02*
X82328320Y-68441960D01*
X82328320Y-68441960D02*
X82394986Y-68475293D01*
X82394986Y-68475293D02*
X82428320Y-68508627D01*
X82428320Y-68508627D02*
X82461653Y-68575293D01*
X82461653Y-68575293D02*
X82461653Y-68608627D01*
X82461653Y-68608627D02*
X82428320Y-68675293D01*
X82428320Y-68675293D02*
X82394986Y-68708627D01*
X82394986Y-68708627D02*
X82328320Y-68741960D01*
X82328320Y-68741960D02*
X82194986Y-68741960D01*
X82194986Y-68741960D02*
X82128320Y-68775293D01*
X82128320Y-68775293D02*
X82094986Y-68808627D01*
X82094986Y-68808627D02*
X82061653Y-68875293D01*
X82061653Y-68875293D02*
X82061653Y-69008627D01*
X82061653Y-69008627D02*
X82094986Y-69075293D01*
X82094986Y-69075293D02*
X82128320Y-69108627D01*
X82128320Y-69108627D02*
X82194986Y-69141960D01*
X82194986Y-69141960D02*
X82328320Y-69141960D01*
X82328320Y-69141960D02*
X82394986Y-69108627D01*
X82394986Y-69108627D02*
X82428320Y-69075293D01*
X82428320Y-69075293D02*
X82461653Y-69008627D01*
X82461653Y-69008627D02*
X82461653Y-68875293D01*
X82461653Y-68875293D02*
X82428320Y-68808627D01*
X82428320Y-68808627D02*
X82394986Y-68775293D01*
X82394986Y-68775293D02*
X82328320Y-68741960D01*
X59901653Y-89461960D02*
X59901653Y-88761960D01*
X59901653Y-88761960D02*
X60068320Y-88761960D01*
X60068320Y-88761960D02*
X60168320Y-88795293D01*
X60168320Y-88795293D02*
X60234987Y-88861960D01*
X60234987Y-88861960D02*
X60268320Y-88928627D01*
X60268320Y-88928627D02*
X60301653Y-89061960D01*
X60301653Y-89061960D02*
X60301653Y-89161960D01*
X60301653Y-89161960D02*
X60268320Y-89295293D01*
X60268320Y-89295293D02*
X60234987Y-89361960D01*
X60234987Y-89361960D02*
X60168320Y-89428627D01*
X60168320Y-89428627D02*
X60068320Y-89461960D01*
X60068320Y-89461960D02*
X59901653Y-89461960D01*
X60534987Y-88761960D02*
X60968320Y-88761960D01*
X60968320Y-88761960D02*
X60734987Y-89028627D01*
X60734987Y-89028627D02*
X60834987Y-89028627D01*
X60834987Y-89028627D02*
X60901653Y-89061960D01*
X60901653Y-89061960D02*
X60934987Y-89095293D01*
X60934987Y-89095293D02*
X60968320Y-89161960D01*
X60968320Y-89161960D02*
X60968320Y-89328627D01*
X60968320Y-89328627D02*
X60934987Y-89395293D01*
X60934987Y-89395293D02*
X60901653Y-89428627D01*
X60901653Y-89428627D02*
X60834987Y-89461960D01*
X60834987Y-89461960D02*
X60634987Y-89461960D01*
X60634987Y-89461960D02*
X60568320Y-89428627D01*
X60568320Y-89428627D02*
X60534987Y-89395293D01*
X75828321Y-86255293D02*
X75761654Y-86221960D01*
X75761654Y-86221960D02*
X75661654Y-86221960D01*
X75661654Y-86221960D02*
X75561654Y-86255293D01*
X75561654Y-86255293D02*
X75494988Y-86321960D01*
X75494988Y-86321960D02*
X75461654Y-86388627D01*
X75461654Y-86388627D02*
X75428321Y-86521960D01*
X75428321Y-86521960D02*
X75428321Y-86621960D01*
X75428321Y-86621960D02*
X75461654Y-86755293D01*
X75461654Y-86755293D02*
X75494988Y-86821960D01*
X75494988Y-86821960D02*
X75561654Y-86888627D01*
X75561654Y-86888627D02*
X75661654Y-86921960D01*
X75661654Y-86921960D02*
X75728321Y-86921960D01*
X75728321Y-86921960D02*
X75828321Y-86888627D01*
X75828321Y-86888627D02*
X75861654Y-86855293D01*
X75861654Y-86855293D02*
X75861654Y-86621960D01*
X75861654Y-86621960D02*
X75728321Y-86621960D01*
X76161654Y-86921960D02*
X76161654Y-86221960D01*
X76161654Y-86221960D02*
X76428321Y-86221960D01*
X76428321Y-86221960D02*
X76494988Y-86255293D01*
X76494988Y-86255293D02*
X76528321Y-86288627D01*
X76528321Y-86288627D02*
X76561654Y-86355293D01*
X76561654Y-86355293D02*
X76561654Y-86455293D01*
X76561654Y-86455293D02*
X76528321Y-86521960D01*
X76528321Y-86521960D02*
X76494988Y-86555293D01*
X76494988Y-86555293D02*
X76428321Y-86588627D01*
X76428321Y-86588627D02*
X76161654Y-86588627D01*
X76861654Y-86921960D02*
X76861654Y-86221960D01*
X77328321Y-86221960D02*
X77461654Y-86221960D01*
X77461654Y-86221960D02*
X77528321Y-86255293D01*
X77528321Y-86255293D02*
X77594987Y-86321960D01*
X77594987Y-86321960D02*
X77628321Y-86455293D01*
X77628321Y-86455293D02*
X77628321Y-86688627D01*
X77628321Y-86688627D02*
X77594987Y-86821960D01*
X77594987Y-86821960D02*
X77528321Y-86888627D01*
X77528321Y-86888627D02*
X77461654Y-86921960D01*
X77461654Y-86921960D02*
X77328321Y-86921960D01*
X77328321Y-86921960D02*
X77261654Y-86888627D01*
X77261654Y-86888627D02*
X77194987Y-86821960D01*
X77194987Y-86821960D02*
X77161654Y-86688627D01*
X77161654Y-86688627D02*
X77161654Y-86455293D01*
X77161654Y-86455293D02*
X77194987Y-86321960D01*
X77194987Y-86321960D02*
X77261654Y-86255293D01*
X77261654Y-86255293D02*
X77328321Y-86221960D01*
X78294987Y-86921960D02*
X77894987Y-86921960D01*
X78094987Y-86921960D02*
X78094987Y-86221960D01*
X78094987Y-86221960D02*
X78028320Y-86321960D01*
X78028320Y-86321960D02*
X77961654Y-86388627D01*
X77961654Y-86388627D02*
X77894987Y-86421960D01*
X78928321Y-86221960D02*
X78594987Y-86221960D01*
X78594987Y-86221960D02*
X78561654Y-86555293D01*
X78561654Y-86555293D02*
X78594987Y-86521960D01*
X78594987Y-86521960D02*
X78661654Y-86488627D01*
X78661654Y-86488627D02*
X78828321Y-86488627D01*
X78828321Y-86488627D02*
X78894987Y-86521960D01*
X78894987Y-86521960D02*
X78928321Y-86555293D01*
X78928321Y-86555293D02*
X78961654Y-86621960D01*
X78961654Y-86621960D02*
X78961654Y-86788627D01*
X78961654Y-86788627D02*
X78928321Y-86855293D01*
X78928321Y-86855293D02*
X78894987Y-86888627D01*
X78894987Y-86888627D02*
X78828321Y-86921960D01*
X78828321Y-86921960D02*
X78661654Y-86921960D01*
X78661654Y-86921960D02*
X78594987Y-86888627D01*
X78594987Y-86888627D02*
X78561654Y-86855293D01*
X79761654Y-86188627D02*
X79161654Y-87088627D01*
X79994987Y-86921960D02*
X79994987Y-86221960D01*
X79994987Y-86221960D02*
X80228321Y-86721960D01*
X80228321Y-86721960D02*
X80461654Y-86221960D01*
X80461654Y-86221960D02*
X80461654Y-86921960D01*
X80694987Y-86221960D02*
X81094987Y-86221960D01*
X80894987Y-86921960D02*
X80894987Y-86221960D01*
X81328320Y-86921960D02*
X81328320Y-86221960D01*
X81328320Y-86221960D02*
X81494987Y-86221960D01*
X81494987Y-86221960D02*
X81594987Y-86255293D01*
X81594987Y-86255293D02*
X81661654Y-86321960D01*
X81661654Y-86321960D02*
X81694987Y-86388627D01*
X81694987Y-86388627D02*
X81728320Y-86521960D01*
X81728320Y-86521960D02*
X81728320Y-86621960D01*
X81728320Y-86621960D02*
X81694987Y-86755293D01*
X81694987Y-86755293D02*
X81661654Y-86821960D01*
X81661654Y-86821960D02*
X81594987Y-86888627D01*
X81594987Y-86888627D02*
X81494987Y-86921960D01*
X81494987Y-86921960D02*
X81328320Y-86921960D01*
X82161654Y-86221960D02*
X82294987Y-86221960D01*
X82294987Y-86221960D02*
X82361654Y-86255293D01*
X82361654Y-86255293D02*
X82428320Y-86321960D01*
X82428320Y-86321960D02*
X82461654Y-86455293D01*
X82461654Y-86455293D02*
X82461654Y-86688627D01*
X82461654Y-86688627D02*
X82428320Y-86821960D01*
X82428320Y-86821960D02*
X82361654Y-86888627D01*
X82361654Y-86888627D02*
X82294987Y-86921960D01*
X82294987Y-86921960D02*
X82161654Y-86921960D01*
X82161654Y-86921960D02*
X82094987Y-86888627D01*
X82094987Y-86888627D02*
X82028320Y-86821960D01*
X82028320Y-86821960D02*
X81994987Y-86688627D01*
X81994987Y-86688627D02*
X81994987Y-86455293D01*
X81994987Y-86455293D02*
X82028320Y-86321960D01*
X82028320Y-86321960D02*
X82094987Y-86255293D01*
X82094987Y-86255293D02*
X82161654Y-86221960D01*
%TO.C,R1*%
X114833333Y-43082619D02*
X114500000Y-42606428D01*
X114261905Y-43082619D02*
X114261905Y-42082619D01*
X114261905Y-42082619D02*
X114642857Y-42082619D01*
X114642857Y-42082619D02*
X114738095Y-42130238D01*
X114738095Y-42130238D02*
X114785714Y-42177857D01*
X114785714Y-42177857D02*
X114833333Y-42273095D01*
X114833333Y-42273095D02*
X114833333Y-42415952D01*
X114833333Y-42415952D02*
X114785714Y-42511190D01*
X114785714Y-42511190D02*
X114738095Y-42558809D01*
X114738095Y-42558809D02*
X114642857Y-42606428D01*
X114642857Y-42606428D02*
X114261905Y-42606428D01*
X115785714Y-43082619D02*
X115214286Y-43082619D01*
X115500000Y-43082619D02*
X115500000Y-42082619D01*
X115500000Y-42082619D02*
X115404762Y-42225476D01*
X115404762Y-42225476D02*
X115309524Y-42320714D01*
X115309524Y-42320714D02*
X115214286Y-42368333D01*
D11*
%TO.C,IO1*%
X69750000Y-30962619D02*
X69750000Y-29962619D01*
X70416666Y-29962619D02*
X70607142Y-29962619D01*
X70607142Y-29962619D02*
X70702380Y-30010238D01*
X70702380Y-30010238D02*
X70797618Y-30105476D01*
X70797618Y-30105476D02*
X70845237Y-30295952D01*
X70845237Y-30295952D02*
X70845237Y-30629285D01*
X70845237Y-30629285D02*
X70797618Y-30819761D01*
X70797618Y-30819761D02*
X70702380Y-30915000D01*
X70702380Y-30915000D02*
X70607142Y-30962619D01*
X70607142Y-30962619D02*
X70416666Y-30962619D01*
X70416666Y-30962619D02*
X70321428Y-30915000D01*
X70321428Y-30915000D02*
X70226190Y-30819761D01*
X70226190Y-30819761D02*
X70178571Y-30629285D01*
X70178571Y-30629285D02*
X70178571Y-30295952D01*
X70178571Y-30295952D02*
X70226190Y-30105476D01*
X70226190Y-30105476D02*
X70321428Y-30010238D01*
X70321428Y-30010238D02*
X70416666Y-29962619D01*
X71797618Y-30962619D02*
X71226190Y-30962619D01*
X71511904Y-30962619D02*
X71511904Y-29962619D01*
X71511904Y-29962619D02*
X71416666Y-30105476D01*
X71416666Y-30105476D02*
X71321428Y-30200714D01*
X71321428Y-30200714D02*
X71226190Y-30248333D01*
D10*
X70488095Y-32081666D02*
X70535714Y-32034047D01*
X70535714Y-32034047D02*
X70630952Y-31986428D01*
X70630952Y-31986428D02*
X70821428Y-32081666D01*
X70821428Y-32081666D02*
X70916666Y-32034047D01*
X70916666Y-32034047D02*
X70964285Y-31986428D01*
%TO.C,R2*%
X115333333Y-56507619D02*
X115000000Y-56031428D01*
X114761905Y-56507619D02*
X114761905Y-55507619D01*
X114761905Y-55507619D02*
X115142857Y-55507619D01*
X115142857Y-55507619D02*
X115238095Y-55555238D01*
X115238095Y-55555238D02*
X115285714Y-55602857D01*
X115285714Y-55602857D02*
X115333333Y-55698095D01*
X115333333Y-55698095D02*
X115333333Y-55840952D01*
X115333333Y-55840952D02*
X115285714Y-55936190D01*
X115285714Y-55936190D02*
X115238095Y-55983809D01*
X115238095Y-55983809D02*
X115142857Y-56031428D01*
X115142857Y-56031428D02*
X114761905Y-56031428D01*
X115714286Y-55602857D02*
X115761905Y-55555238D01*
X115761905Y-55555238D02*
X115857143Y-55507619D01*
X115857143Y-55507619D02*
X116095238Y-55507619D01*
X116095238Y-55507619D02*
X116190476Y-55555238D01*
X116190476Y-55555238D02*
X116238095Y-55602857D01*
X116238095Y-55602857D02*
X116285714Y-55698095D01*
X116285714Y-55698095D02*
X116285714Y-55793333D01*
X116285714Y-55793333D02*
X116238095Y-55936190D01*
X116238095Y-55936190D02*
X115666667Y-56507619D01*
X115666667Y-56507619D02*
X116285714Y-56507619D01*
%TO.C,R3*%
X115083333Y-70332619D02*
X114750000Y-69856428D01*
X114511905Y-70332619D02*
X114511905Y-69332619D01*
X114511905Y-69332619D02*
X114892857Y-69332619D01*
X114892857Y-69332619D02*
X114988095Y-69380238D01*
X114988095Y-69380238D02*
X115035714Y-69427857D01*
X115035714Y-69427857D02*
X115083333Y-69523095D01*
X115083333Y-69523095D02*
X115083333Y-69665952D01*
X115083333Y-69665952D02*
X115035714Y-69761190D01*
X115035714Y-69761190D02*
X114988095Y-69808809D01*
X114988095Y-69808809D02*
X114892857Y-69856428D01*
X114892857Y-69856428D02*
X114511905Y-69856428D01*
X115416667Y-69332619D02*
X116035714Y-69332619D01*
X116035714Y-69332619D02*
X115702381Y-69713571D01*
X115702381Y-69713571D02*
X115845238Y-69713571D01*
X115845238Y-69713571D02*
X115940476Y-69761190D01*
X115940476Y-69761190D02*
X115988095Y-69808809D01*
X115988095Y-69808809D02*
X116035714Y-69904047D01*
X116035714Y-69904047D02*
X116035714Y-70142142D01*
X116035714Y-70142142D02*
X115988095Y-70237380D01*
X115988095Y-70237380D02*
X115940476Y-70285000D01*
X115940476Y-70285000D02*
X115845238Y-70332619D01*
X115845238Y-70332619D02*
X115559524Y-70332619D01*
X115559524Y-70332619D02*
X115464286Y-70285000D01*
X115464286Y-70285000D02*
X115416667Y-70237380D01*
D11*
%TO.C,SW6*%
X112250000Y-92000000D02*
X118450013Y-92000000D01*
X118450013Y-92000000D02*
X118450013Y-85799987D01*
X118450013Y-85799987D02*
X112250000Y-85799987D01*
X112250000Y-85799987D02*
X112250000Y-92000000D01*
%TO.C,U2*%
X52691000Y-45261000D02*
X52691000Y-55243000D01*
X43496000Y-45261000D02*
X52691000Y-45261000D01*
X52691000Y-55243000D02*
X43496000Y-55243000D01*
X43496000Y-55243000D02*
X43496000Y-45261000D01*
D12*
%TO.C,R4*%
X119290000Y-81750000D02*
X118520000Y-81750000D01*
X118520000Y-83120000D02*
X118520000Y-80380000D01*
X118520000Y-80380000D02*
X111980000Y-80380000D01*
X111980000Y-83120000D02*
X118520000Y-83120000D01*
X111980000Y-80380000D02*
X111980000Y-83120000D01*
X111210000Y-81750000D02*
X111980000Y-81750000D01*
%TO.C,R5*%
X119290000Y-94500000D02*
X118520000Y-94500000D01*
X118520000Y-95870000D02*
X118520000Y-93130000D01*
X118520000Y-93130000D02*
X111980000Y-93130000D01*
X111980000Y-95870000D02*
X118520000Y-95870000D01*
X111980000Y-93130000D02*
X111980000Y-95870000D01*
X111210000Y-94500000D02*
X111980000Y-94500000D01*
%TO.C,U1*%
X56964987Y-95318127D02*
X85364986Y-95318127D01*
X56964988Y-47398127D02*
X56964987Y-95318127D01*
X62195107Y-41485007D02*
X80178307Y-41485007D01*
X62195107Y-47377807D02*
X62195107Y-41485007D01*
X80178307Y-41485007D02*
X80178307Y-47377807D01*
X85364986Y-95318127D02*
X85364987Y-47398127D01*
X85364987Y-47398127D02*
X56964988Y-47398127D01*
%TO.C,R1*%
X119040000Y-40250000D02*
X118270000Y-40250000D01*
X118270000Y-41620000D02*
X118270000Y-38880000D01*
X118270000Y-38880000D02*
X111730000Y-38880000D01*
X111730000Y-41620000D02*
X118270000Y-41620000D01*
X111730000Y-38880000D02*
X111730000Y-41620000D01*
X110960000Y-40250000D02*
X111730000Y-40250000D01*
D11*
%TO.C,SW2*%
X111900000Y-37287500D02*
X118100013Y-37287500D01*
X118100013Y-37287500D02*
X118100013Y-31087487D01*
X118100013Y-31087487D02*
X111900000Y-31087487D01*
X111900000Y-31087487D02*
X111900000Y-37287500D01*
%TO.C,IO1*%
X51600000Y-24850000D02*
X51600000Y-37150000D01*
X51600000Y-37150000D02*
X89900000Y-37150000D01*
X89900000Y-24850000D02*
X51600000Y-24850000D01*
X89900000Y-37150000D02*
X89900000Y-24850000D01*
%TO.C,SW5*%
X112000000Y-79000000D02*
X118200013Y-79000000D01*
X118200013Y-79000000D02*
X118200013Y-72799987D01*
X118200013Y-72799987D02*
X112000000Y-72799987D01*
X112000000Y-72799987D02*
X112000000Y-79000000D01*
D12*
%TO.C,R2*%
X119540000Y-53675000D02*
X118770000Y-53675000D01*
X118770000Y-55045000D02*
X118770000Y-52305000D01*
X118770000Y-52305000D02*
X112230000Y-52305000D01*
X112230000Y-55045000D02*
X118770000Y-55045000D01*
X112230000Y-52305000D02*
X112230000Y-55045000D01*
X111460000Y-53675000D02*
X112230000Y-53675000D01*
D11*
%TO.C,SW3*%
X112150000Y-51037500D02*
X118350013Y-51037500D01*
X118350013Y-51037500D02*
X118350013Y-44837487D01*
X118350013Y-44837487D02*
X112150000Y-44837487D01*
X112150000Y-44837487D02*
X112150000Y-51037500D01*
%TO.C,SW1*%
X44850000Y-60320000D02*
X51650000Y-60320000D01*
X44850000Y-73120000D02*
X44850000Y-60320000D01*
X51650000Y-60320000D02*
X51650000Y-73120000D01*
X51650000Y-73120000D02*
X44850000Y-73120000D01*
%TO.C,SW4*%
X112150000Y-65037500D02*
X118350013Y-65037500D01*
X118350013Y-65037500D02*
X118350013Y-58837487D01*
X118350013Y-58837487D02*
X112150000Y-58837487D01*
X112150000Y-58837487D02*
X112150000Y-65037500D01*
D12*
%TO.C,R3*%
X119290000Y-67500000D02*
X118520000Y-67500000D01*
X118520000Y-68870000D02*
X118520000Y-66130000D01*
X118520000Y-66130000D02*
X111980000Y-66130000D01*
X111980000Y-68870000D02*
X118520000Y-68870000D01*
X111980000Y-66130000D02*
X111980000Y-68870000D01*
X111210000Y-67500000D02*
X111980000Y-67500000D01*
%TD*%
M02*
