%TF.GenerationSoftware,KiCad,Pcbnew,7.0.1*%
%TF.CreationDate,2023-12-02T06:41:28-07:00*%
%TF.ProjectId,ARC_Remote,4152435f-5265-46d6-9f74-652e6b696361,rev?*%
%TF.SameCoordinates,Original*%
%TF.FileFunction,Copper,L2,Bot*%
%TF.FilePolarity,Positive*%
%FSLAX46Y46*%
G04 Gerber Fmt 4.6, Leading zero omitted, Abs format (unit mm)*
G04 Created by KiCad (PCBNEW 7.0.1) date 2023-12-02 06:41:28*
%MOMM*%
%LPD*%
G01*
G04 APERTURE LIST*
G04 Aperture macros list*
%AMOutline4P*
0 Free polygon, 4 corners , with rotation*
0 The origin of the aperture is its center*
0 number of corners: always 4*
0 $1 to $8 corner X, Y*
0 $9 Rotation angle, in degrees counterclockwise*
0 create outline with 4 corners*
4,1,4,$1,$2,$3,$4,$5,$6,$7,$8,$1,$2,$9*%
G04 Aperture macros list end*
%TA.AperFunction,ComponentPad*%
%ADD10C,1.750000*%
%TD*%
%TA.AperFunction,ComponentPad*%
%ADD11O,3.500000X1.750000*%
%TD*%
%TA.AperFunction,ComponentPad*%
%ADD12C,1.600000*%
%TD*%
%TA.AperFunction,ComponentPad*%
%ADD13O,1.600000X1.600000*%
%TD*%
%TA.AperFunction,ComponentPad*%
%ADD14R,2.000000X1.400000*%
%TD*%
%TA.AperFunction,ComponentPad*%
%ADD15O,2.000000X1.400000*%
%TD*%
%TA.AperFunction,ComponentPad*%
%ADD16Outline4P,-1.000000X-1.050000X1.000000X-0.550000X1.000000X0.550000X-1.000000X1.050000X0.000000*%
%TD*%
%TA.AperFunction,ComponentPad*%
%ADD17O,3.000000X1.600000*%
%TD*%
%TA.AperFunction,ComponentPad*%
%ADD18O,3.800000X2.400000*%
%TD*%
%TA.AperFunction,Conductor*%
%ADD19C,0.406400*%
%TD*%
%TA.AperFunction,Conductor*%
%ADD20C,0.508000*%
%TD*%
%TA.AperFunction,Conductor*%
%ADD21C,1.015000*%
%TD*%
%TA.AperFunction,Conductor*%
%ADD22C,1.016000*%
%TD*%
G04 APERTURE END LIST*
D10*
%TO.P,SW6,1,A*%
%TO.N,/BTN_bot*%
X112750000Y-88899993D03*
%TO.P,SW6,2,B*%
%TO.N,+3V3*%
X117950013Y-88899993D03*
%TD*%
D11*
%TO.P,U2,1,1*%
%TO.N,GND*%
X48500000Y-47750000D03*
%TO.P,U2,2,2*%
%TO.N,+BATT*%
X48500000Y-52750000D03*
%TD*%
D12*
%TO.P,R4,1*%
%TO.N,GND*%
X120330000Y-81750000D03*
D13*
%TO.P,R4,2*%
%TO.N,/BTN_bot_mid*%
X110170000Y-81750000D03*
%TD*%
D12*
%TO.P,R5,1*%
%TO.N,GND*%
X120330000Y-94500000D03*
D13*
%TO.P,R5,2*%
%TO.N,/BTN_bot*%
X110170000Y-94500000D03*
%TD*%
D14*
%TO.P,U1,1,3V3*%
%TO.N,+3V3*%
X58464987Y-48498127D03*
D15*
%TO.P,U1,2,CHIP_PU*%
%TO.N,unconnected-(U1-CHIP_PU-Pad2)*%
X58464987Y-51038127D03*
%TO.P,U1,3,SENSOR_VP/GPIO36/ADC1_CH0*%
%TO.N,unconnected-(U1-SENSOR_VP{slash}GPIO36{slash}ADC1_CH0-Pad3)*%
X58464987Y-53578127D03*
%TO.P,U1,4,SENSOR_VN/GPIO39/ADC1_CH3*%
%TO.N,unconnected-(U1-SENSOR_VN{slash}GPIO39{slash}ADC1_CH3-Pad4)*%
X58464987Y-56118127D03*
%TO.P,U1,5,VDET_1/GPIO34/ADC1_CH6*%
%TO.N,unconnected-(U1-VDET_1{slash}GPIO34{slash}ADC1_CH6-Pad5)*%
X58464987Y-58658127D03*
%TO.P,U1,6,VDET_2/GPIO35/ADC1_CH7*%
%TO.N,unconnected-(U1-VDET_2{slash}GPIO35{slash}ADC1_CH7-Pad6)*%
X58464987Y-61198127D03*
%TO.P,U1,7,32K_XP/GPIO32/ADC1_CH4*%
%TO.N,unconnected-(U1-32K_XP{slash}GPIO32{slash}ADC1_CH4-Pad7)*%
X58464987Y-63738127D03*
%TO.P,U1,8,32K_XN/GPIO33/ADC1_CH5*%
%TO.N,unconnected-(U1-32K_XN{slash}GPIO33{slash}ADC1_CH5-Pad8)*%
X58464987Y-66278127D03*
%TO.P,U1,9,DAC_1/ADC2_CH8/GPIO25*%
%TO.N,unconnected-(U1-DAC_1{slash}ADC2_CH8{slash}GPIO25-Pad9)*%
X58464987Y-68818127D03*
%TO.P,U1,10,DAC_2/ADC2_CH9/GPIO26*%
%TO.N,unconnected-(U1-DAC_2{slash}ADC2_CH9{slash}GPIO26-Pad10)*%
X58464987Y-71358127D03*
%TO.P,U1,11,ADC2_CH7/GPIO27*%
%TO.N,unconnected-(U1-ADC2_CH7{slash}GPIO27-Pad11)*%
X58464987Y-73898127D03*
%TO.P,U1,12,MTMS/GPIO14/ADC2_CH6*%
%TO.N,unconnected-(U1-MTMS{slash}GPIO14{slash}ADC2_CH6-Pad12)*%
X58464987Y-76438127D03*
%TO.P,U1,13,MTDI/GPIO12/ADC2_CH5*%
%TO.N,unconnected-(U1-MTDI{slash}GPIO12{slash}ADC2_CH5-Pad13)*%
X58464987Y-78978127D03*
%TO.P,U1,14,GND*%
%TO.N,GND*%
X58464987Y-81518127D03*
%TO.P,U1,15,MTCK/GPIO13/ADC2_CH4*%
%TO.N,unconnected-(U1-MTCK{slash}GPIO13{slash}ADC2_CH4-Pad15)*%
X58464987Y-84058127D03*
%TO.P,U1,16,SD_DATA2/GPIO9*%
%TO.N,unconnected-(U1-SD_DATA2{slash}GPIO9-Pad16)*%
X58464987Y-86598127D03*
%TO.P,U1,17,SD_DATA3/GPIO10*%
%TO.N,unconnected-(U1-SD_DATA3{slash}GPIO10-Pad17)*%
X58464987Y-89138127D03*
%TO.P,U1,18,CMD*%
%TO.N,unconnected-(U1-CMD-Pad18)*%
X58464987Y-91678127D03*
%TO.P,U1,19,5V*%
%TO.N,+9V*%
X58464987Y-94218127D03*
%TO.P,U1,20,SD_CLK/GPIO6*%
%TO.N,unconnected-(U1-SD_CLK{slash}GPIO6-Pad20)*%
X83861307Y-94215407D03*
%TO.P,U1,21,SD_DATA0/GPIO7*%
%TO.N,unconnected-(U1-SD_DATA0{slash}GPIO7-Pad21)*%
X83861307Y-91675407D03*
%TO.P,U1,22,SD_DATA1/GPIO8*%
%TO.N,unconnected-(U1-SD_DATA1{slash}GPIO8-Pad22)*%
X83864987Y-89138127D03*
%TO.P,U1,23,MTDO/GPIO15/ADC2_CH3*%
%TO.N,unconnected-(U1-MTDO{slash}GPIO15{slash}ADC2_CH3-Pad23)*%
X83864987Y-86598127D03*
%TO.P,U1,24,ADC2_CH2/GPIO2*%
%TO.N,unconnected-(U1-ADC2_CH2{slash}GPIO2-Pad24)*%
X83864987Y-84058127D03*
%TO.P,U1,25,GPIO0/BOOT/ADC2_CH1*%
%TO.N,unconnected-(U1-GPIO0{slash}BOOT{slash}ADC2_CH1-Pad25)*%
X83864987Y-81518127D03*
%TO.P,U1,26,ADC2_CH0/GPIO4*%
%TO.N,unconnected-(U1-ADC2_CH0{slash}GPIO4-Pad26)*%
X83864987Y-78978127D03*
%TO.P,U1,27,GPIO16*%
%TO.N,/BTN_bot*%
X83864987Y-76438127D03*
%TO.P,U1,28,GPIO17*%
%TO.N,/BTN_bot_mid*%
X83864987Y-73898127D03*
%TO.P,U1,29,GPIO5*%
%TO.N,/BTN_mid*%
X83864987Y-71358127D03*
%TO.P,U1,30,GPIO18*%
%TO.N,/BTN_top_mid*%
X83864987Y-68818127D03*
%TO.P,U1,31,GPIO19*%
%TO.N,/BTN_top*%
X83864987Y-66278127D03*
%TO.P,U1,32,GND*%
%TO.N,GND*%
X83864987Y-63738127D03*
%TO.P,U1,33,GPIO21*%
%TO.N,/I2c_SDA*%
X83864987Y-61198127D03*
%TO.P,U1,34,U0RXD/GPIO3*%
%TO.N,unconnected-(U1-U0RXD{slash}GPIO3-Pad34)*%
X83864987Y-58658127D03*
%TO.P,U1,35,U0TXD/GPIO1*%
%TO.N,unconnected-(U1-U0TXD{slash}GPIO1-Pad35)*%
X83864987Y-56118127D03*
%TO.P,U1,36,GPIO22*%
%TO.N,/I2c_SCL*%
X83864987Y-53578127D03*
%TO.P,U1,37,GPIO23*%
%TO.N,unconnected-(U1-GPIO23-Pad37)*%
X83864987Y-51038127D03*
%TO.P,U1,38,GND*%
%TO.N,GND*%
X83864987Y-48498127D03*
%TD*%
D12*
%TO.P,R1,1*%
%TO.N,GND*%
X120080000Y-40250000D03*
D13*
%TO.P,R1,2*%
%TO.N,/BTN_top*%
X109920000Y-40250000D03*
%TD*%
D10*
%TO.P,SW2,1,A*%
%TO.N,/BTN_top*%
X112400000Y-34187493D03*
%TO.P,SW2,2,B*%
%TO.N,+3V3*%
X117600013Y-34187493D03*
%TD*%
D16*
%TO.P,IO1,1,SDA*%
%TO.N,/I2c_SDA*%
X53400000Y-26950000D03*
D17*
%TO.P,IO1,2,SCL*%
%TO.N,/I2c_SCL*%
X53400000Y-29510000D03*
%TO.P,IO1,3,5v*%
%TO.N,+3V3*%
X53400000Y-32490000D03*
%TO.P,IO1,4,GND*%
%TO.N,GND*%
X53400000Y-35050000D03*
%TD*%
D10*
%TO.P,SW5,1,A*%
%TO.N,/BTN_bot_mid*%
X112500000Y-75899993D03*
%TO.P,SW5,2,B*%
%TO.N,+3V3*%
X117700013Y-75899993D03*
%TD*%
D12*
%TO.P,R2,1*%
%TO.N,GND*%
X120580000Y-53675000D03*
D13*
%TO.P,R2,2*%
%TO.N,/BTN_top_mid*%
X110420000Y-53675000D03*
%TD*%
D10*
%TO.P,SW3,1,A*%
%TO.N,/BTN_top_mid*%
X112650000Y-47937493D03*
%TO.P,SW3,2,B*%
%TO.N,+3V3*%
X117850013Y-47937493D03*
%TD*%
D18*
%TO.P,SW1,1,A*%
%TO.N,+9V*%
X48250000Y-62000000D03*
%TO.P,SW1,2,B*%
%TO.N,+BATT*%
X48250000Y-66720000D03*
%TO.P,SW1,3,C*%
%TO.N,unconnected-(SW1-C-Pad3)*%
X48250000Y-71440000D03*
%TD*%
D10*
%TO.P,SW4,1,A*%
%TO.N,/BTN_mid*%
X112650000Y-61937493D03*
%TO.P,SW4,2,B*%
%TO.N,+3V3*%
X117850013Y-61937493D03*
%TD*%
D12*
%TO.P,R3,1*%
%TO.N,GND*%
X120330000Y-67500000D03*
D13*
%TO.P,R3,2*%
%TO.N,/BTN_mid*%
X110170000Y-67500000D03*
%TD*%
D19*
%TO.N,/I2c_SDA*%
X91250000Y-32750000D02*
X85450000Y-26950000D01*
X83864987Y-61198127D02*
X85801873Y-61198127D01*
X85450000Y-26950000D02*
X53400000Y-26950000D01*
X91250000Y-55750000D02*
X91250000Y-32750000D01*
X85801873Y-61198127D02*
X91250000Y-55750000D01*
D20*
%TO.N,/I2c_SCL*%
X53400000Y-29510000D02*
X83760000Y-29510000D01*
X83760000Y-29510000D02*
X87500000Y-33250000D01*
X87500000Y-33250000D02*
X87500000Y-50851114D01*
X84772987Y-53578127D02*
X83864987Y-53578127D01*
X87500000Y-50851114D02*
X84772987Y-53578127D01*
D21*
%TO.N,+3V3*%
X114662520Y-31250000D02*
X117600013Y-34187493D01*
D22*
X58464987Y-47464987D02*
X49000000Y-38000000D01*
X58464987Y-48498127D02*
X58464987Y-47464987D01*
X49000000Y-26000000D02*
X51500000Y-23500000D01*
X50884000Y-32490000D02*
X49000000Y-32490000D01*
X50884000Y-32490000D02*
X53400000Y-32490000D01*
D21*
X117600013Y-88549993D02*
X117950013Y-88899993D01*
X117600013Y-34187493D02*
X117600013Y-88549993D01*
D22*
X51500000Y-23500000D02*
X106912520Y-23500000D01*
X106912520Y-23500000D02*
X114662520Y-31250000D01*
X49000000Y-38000000D02*
X49000000Y-32490000D01*
X49000000Y-32490000D02*
X49000000Y-26000000D01*
D21*
%TO.N,/BTN_top*%
X112400000Y-37770000D02*
X109920000Y-40250000D01*
X103900685Y-47400685D02*
X85023243Y-66278127D01*
X109920000Y-40250000D02*
X109920000Y-41381370D01*
X109920000Y-41381370D02*
X103900685Y-47400685D01*
X85023243Y-66278127D02*
X83864987Y-66278127D01*
X112400000Y-34187493D02*
X112400000Y-37770000D01*
%TO.N,/BTN_top_mid*%
X110420000Y-53675000D02*
X110420000Y-50167493D01*
X110420000Y-50167493D02*
X112650000Y-47937493D01*
X95276873Y-68818127D02*
X83864987Y-68818127D01*
X110420000Y-53675000D02*
X95276873Y-68818127D01*
%TO.N,/BTN_mid*%
X110170000Y-67500000D02*
X106311873Y-71358127D01*
X106311873Y-71358127D02*
X83864987Y-71358127D01*
X112650000Y-61937493D02*
X112650000Y-65020000D01*
X112650000Y-65020000D02*
X110170000Y-67500000D01*
%TO.N,/BTN_bot_mid*%
X112500000Y-79420000D02*
X110170000Y-81750000D01*
X110170000Y-81750000D02*
X102318127Y-73898127D01*
X112500000Y-75899993D02*
X112500000Y-79420000D01*
X102318127Y-73898127D02*
X83864987Y-73898127D01*
%TO.N,/BTN_bot*%
X100288134Y-76438127D02*
X83864987Y-76438127D01*
X112750000Y-88899993D02*
X100288134Y-76438127D01*
X112750000Y-91920000D02*
X110170000Y-94500000D01*
X112750000Y-88899993D02*
X112750000Y-91920000D01*
%TO.N,+9V*%
X53500000Y-63750000D02*
X53500000Y-90668140D01*
X57049987Y-94218127D02*
X58464987Y-94218127D01*
X51750000Y-62000000D02*
X53500000Y-63750000D01*
X48250000Y-62000000D02*
X51750000Y-62000000D01*
X53500000Y-90668140D02*
X57049987Y-94218127D01*
D22*
%TO.N,+BATT*%
X48500000Y-52750000D02*
X43000000Y-58250000D01*
X43000000Y-65750000D02*
X43970000Y-66720000D01*
X43970000Y-66720000D02*
X48250000Y-66720000D01*
X43000000Y-58250000D02*
X43000000Y-65750000D01*
%TD*%
%TA.AperFunction,Conductor*%
%TO.N,GND*%
G36*
X124687500Y-19267113D02*
G01*
X124732887Y-19312500D01*
X124749500Y-19374500D01*
X124749500Y-19408500D01*
X124707137Y-32837467D01*
X124515339Y-93637234D01*
X124515339Y-93637247D01*
X124499905Y-98375904D01*
X124483158Y-98437733D01*
X124437789Y-98482954D01*
X124375906Y-98499500D01*
X40874500Y-98499500D01*
X40812500Y-98482887D01*
X40767113Y-98437500D01*
X40750500Y-98375500D01*
X40750500Y-71507214D01*
X45710817Y-71507214D01*
X45740203Y-71774284D01*
X45751277Y-71816641D01*
X45808163Y-72034232D01*
X45887042Y-72219849D01*
X45913246Y-72281513D01*
X46053214Y-72510861D01*
X46206254Y-72694757D01*
X46225082Y-72717381D01*
X46425190Y-72896678D01*
X46649270Y-73044928D01*
X46659708Y-73049821D01*
X46892544Y-73158971D01*
X46892546Y-73158971D01*
X46892549Y-73158973D01*
X47149839Y-73236380D01*
X47415659Y-73275500D01*
X49017084Y-73275500D01*
X49017087Y-73275500D01*
X49217967Y-73260797D01*
X49480216Y-73202379D01*
X49480216Y-73202378D01*
X49480220Y-73202378D01*
X49731174Y-73106396D01*
X49965479Y-72974898D01*
X50178140Y-72810686D01*
X50364626Y-72617261D01*
X50520961Y-72398744D01*
X50643814Y-72159793D01*
X50730567Y-71905501D01*
X50779369Y-71641288D01*
X50789182Y-71372785D01*
X50759796Y-71105714D01*
X50691837Y-70845768D01*
X50586754Y-70598487D01*
X50446787Y-70369141D01*
X50415187Y-70331170D01*
X50274919Y-70162620D01*
X50080209Y-69988160D01*
X50074810Y-69983322D01*
X49850730Y-69835072D01*
X49841886Y-69830926D01*
X49607455Y-69721028D01*
X49425988Y-69666433D01*
X49350161Y-69643620D01*
X49084341Y-69604500D01*
X47482916Y-69604500D01*
X47482913Y-69604500D01*
X47282032Y-69619202D01*
X47019783Y-69677620D01*
X46768825Y-69773604D01*
X46534521Y-69905102D01*
X46321858Y-70069314D01*
X46135373Y-70262738D01*
X45979037Y-70481257D01*
X45856186Y-70720205D01*
X45769432Y-70974499D01*
X45720630Y-71238711D01*
X45710817Y-71507214D01*
X40750500Y-71507214D01*
X40750500Y-65803039D01*
X41852827Y-65803039D01*
X41863418Y-65878974D01*
X41864078Y-65884660D01*
X41871154Y-65961018D01*
X41876073Y-65978305D01*
X41879616Y-65995100D01*
X41882103Y-66012925D01*
X41906479Y-66085653D01*
X41908173Y-66091125D01*
X41929148Y-66164846D01*
X41937163Y-66180942D01*
X41943733Y-66196803D01*
X41949450Y-66213861D01*
X41986769Y-66280861D01*
X41989439Y-66285927D01*
X42023611Y-66354555D01*
X42034451Y-66368909D01*
X42043824Y-66383293D01*
X42052574Y-66399003D01*
X42101561Y-66457996D01*
X42105116Y-66462484D01*
X42151323Y-66523671D01*
X42208011Y-66575349D01*
X42212130Y-66579283D01*
X43140714Y-67507867D01*
X43144670Y-67512010D01*
X43196327Y-67568676D01*
X43230912Y-67594793D01*
X43257523Y-67614889D01*
X43261993Y-67618429D01*
X43320998Y-67667426D01*
X43336707Y-67676176D01*
X43351092Y-67685549D01*
X43365447Y-67696390D01*
X43411042Y-67719093D01*
X43434115Y-67730582D01*
X43439115Y-67733216D01*
X43506138Y-67770548D01*
X43513502Y-67773016D01*
X43523186Y-67776262D01*
X43539053Y-67782834D01*
X43555150Y-67790850D01*
X43628921Y-67811839D01*
X43634379Y-67813530D01*
X43707068Y-67837894D01*
X43707071Y-67837894D01*
X43707073Y-67837895D01*
X43724888Y-67840379D01*
X43741679Y-67843921D01*
X43758982Y-67848845D01*
X43835363Y-67855922D01*
X43840976Y-67856572D01*
X43916963Y-67867173D01*
X43993555Y-67863632D01*
X43999282Y-67863500D01*
X46055536Y-67863500D01*
X46108169Y-67875224D01*
X46150848Y-67908181D01*
X46225079Y-67997380D01*
X46392989Y-68147826D01*
X46425190Y-68176678D01*
X46649270Y-68324928D01*
X46723262Y-68359614D01*
X46892544Y-68438971D01*
X46892546Y-68438971D01*
X46892549Y-68438973D01*
X47149839Y-68516380D01*
X47415659Y-68555500D01*
X49017084Y-68555500D01*
X49017087Y-68555500D01*
X49217967Y-68540797D01*
X49480216Y-68482379D01*
X49480216Y-68482378D01*
X49480220Y-68482378D01*
X49731174Y-68386396D01*
X49965479Y-68254898D01*
X50178140Y-68090686D01*
X50364626Y-67897261D01*
X50520961Y-67678744D01*
X50643814Y-67439793D01*
X50730567Y-67185501D01*
X50779369Y-66921288D01*
X50789182Y-66652785D01*
X50759796Y-66385714D01*
X50691837Y-66125768D01*
X50586754Y-65878487D01*
X50446787Y-65649141D01*
X50443755Y-65645498D01*
X50274919Y-65442620D01*
X50074811Y-65263323D01*
X50074810Y-65263322D01*
X49850730Y-65115072D01*
X49764729Y-65074756D01*
X49607455Y-65001028D01*
X49503664Y-64969802D01*
X49350161Y-64923620D01*
X49084341Y-64884500D01*
X47482916Y-64884500D01*
X47482913Y-64884500D01*
X47282032Y-64899202D01*
X47019783Y-64957620D01*
X46768825Y-65053604D01*
X46534521Y-65185102D01*
X46321858Y-65349314D01*
X46139398Y-65538565D01*
X46098627Y-65566623D01*
X46050130Y-65576500D01*
X44495015Y-65576500D01*
X44447562Y-65567061D01*
X44407334Y-65540181D01*
X44179819Y-65312666D01*
X44152939Y-65272438D01*
X44143500Y-65224985D01*
X44143500Y-62067214D01*
X45710817Y-62067214D01*
X45740203Y-62334284D01*
X45758876Y-62405707D01*
X45808163Y-62594232D01*
X45857855Y-62711167D01*
X45913246Y-62841513D01*
X46053214Y-63070861D01*
X46225080Y-63277379D01*
X46225082Y-63277381D01*
X46425190Y-63456678D01*
X46649270Y-63604928D01*
X46780390Y-63666395D01*
X46892544Y-63718971D01*
X46892546Y-63718971D01*
X46892549Y-63718973D01*
X47149839Y-63796380D01*
X47415659Y-63835500D01*
X49017084Y-63835500D01*
X49017087Y-63835500D01*
X49217967Y-63820797D01*
X49480216Y-63762379D01*
X49480216Y-63762378D01*
X49480220Y-63762378D01*
X49731174Y-63666396D01*
X49965479Y-63534898D01*
X50178140Y-63370686D01*
X50361083Y-63180935D01*
X50401855Y-63152877D01*
X50450352Y-63143000D01*
X51225192Y-63143000D01*
X51272645Y-63152439D01*
X51312873Y-63179319D01*
X52320681Y-64187127D01*
X52347561Y-64227355D01*
X52357000Y-64274808D01*
X52357000Y-90638858D01*
X52356868Y-90644584D01*
X52353328Y-90721157D01*
X52363914Y-90797056D01*
X52364574Y-90802742D01*
X52371648Y-90879070D01*
X52376565Y-90896353D01*
X52380108Y-90913146D01*
X52382592Y-90930952D01*
X52406951Y-91003630D01*
X52408645Y-91009100D01*
X52429616Y-91082804D01*
X52429618Y-91082808D01*
X52437630Y-91098898D01*
X52444198Y-91114755D01*
X52449910Y-91131798D01*
X52487208Y-91198764D01*
X52489877Y-91203827D01*
X52524038Y-91272430D01*
X52534866Y-91286769D01*
X52544238Y-91301152D01*
X52552987Y-91316858D01*
X52601947Y-91375818D01*
X52605504Y-91380308D01*
X52651694Y-91441473D01*
X52708337Y-91493110D01*
X52712480Y-91497066D01*
X56221059Y-95005645D01*
X56225015Y-95009788D01*
X56276654Y-95066434D01*
X56337816Y-95112621D01*
X56342307Y-95116178D01*
X56401269Y-95165140D01*
X56416966Y-95173883D01*
X56431355Y-95183258D01*
X56445697Y-95194089D01*
X56514322Y-95228260D01*
X56519352Y-95230911D01*
X56586327Y-95268216D01*
X56593587Y-95270649D01*
X56603369Y-95273928D01*
X56619236Y-95280500D01*
X56635319Y-95288509D01*
X56709051Y-95309487D01*
X56714461Y-95311162D01*
X56787175Y-95335534D01*
X56804983Y-95338018D01*
X56821778Y-95341561D01*
X56839061Y-95346479D01*
X56915389Y-95353551D01*
X56921045Y-95354207D01*
X56996973Y-95364799D01*
X57073542Y-95361259D01*
X57079269Y-95361127D01*
X57429890Y-95361127D01*
X57467174Y-95366865D01*
X57484459Y-95375388D01*
X57484856Y-95374538D01*
X57662885Y-95457554D01*
X57706474Y-95477880D01*
X57932194Y-95538361D01*
X58019438Y-95545994D01*
X58106681Y-95553627D01*
X58106683Y-95553627D01*
X58823291Y-95553627D01*
X58823293Y-95553627D01*
X58893086Y-95547520D01*
X58997780Y-95538361D01*
X59223500Y-95477880D01*
X59435287Y-95379122D01*
X59626709Y-95245087D01*
X59791947Y-95079849D01*
X59925982Y-94888428D01*
X60024740Y-94676640D01*
X60085221Y-94450920D01*
X60105588Y-94218127D01*
X60105350Y-94215407D01*
X82220705Y-94215407D01*
X82241072Y-94448197D01*
X82301554Y-94673921D01*
X82326120Y-94726602D01*
X82400312Y-94885707D01*
X82534347Y-95077129D01*
X82699585Y-95242367D01*
X82891007Y-95376402D01*
X83102794Y-95475160D01*
X83328514Y-95535641D01*
X83415758Y-95543274D01*
X83503001Y-95550907D01*
X83503003Y-95550907D01*
X84219611Y-95550907D01*
X84219613Y-95550907D01*
X84289406Y-95544800D01*
X84394100Y-95535641D01*
X84619820Y-95475160D01*
X84831607Y-95376402D01*
X85023029Y-95242367D01*
X85188267Y-95077129D01*
X85322302Y-94885708D01*
X85421060Y-94673920D01*
X85481541Y-94448200D01*
X85501908Y-94215407D01*
X85481541Y-93982614D01*
X85421060Y-93756894D01*
X85322302Y-93545107D01*
X85188267Y-93353685D01*
X85023029Y-93188447D01*
X84831607Y-93054412D01*
X84831603Y-93054410D01*
X84822720Y-93048190D01*
X84824692Y-93045373D01*
X84786675Y-93012036D01*
X84767253Y-92945407D01*
X84786675Y-92878778D01*
X84824692Y-92845440D01*
X84822720Y-92842624D01*
X84831603Y-92836403D01*
X84831607Y-92836402D01*
X85023029Y-92702367D01*
X85188267Y-92537129D01*
X85322302Y-92345708D01*
X85421060Y-92133920D01*
X85481541Y-91908200D01*
X85501908Y-91675407D01*
X85481541Y-91442614D01*
X85421060Y-91216894D01*
X85322302Y-91005107D01*
X85188267Y-90813685D01*
X85023029Y-90648447D01*
X84831607Y-90514412D01*
X84831604Y-90514410D01*
X84824451Y-90509402D01*
X84783188Y-90460222D01*
X84772049Y-90396998D01*
X84794019Y-90336677D01*
X84828243Y-90307976D01*
X84826400Y-90305344D01*
X84835283Y-90299123D01*
X84835287Y-90299122D01*
X85026709Y-90165087D01*
X85191947Y-89999849D01*
X85325982Y-89808428D01*
X85424740Y-89596640D01*
X85485221Y-89370920D01*
X85505588Y-89138127D01*
X85485221Y-88905334D01*
X85424740Y-88679614D01*
X85325982Y-88467827D01*
X85191947Y-88276405D01*
X85026709Y-88111167D01*
X84835287Y-87977132D01*
X84835283Y-87977130D01*
X84826400Y-87970910D01*
X84828372Y-87968093D01*
X84790355Y-87934756D01*
X84770933Y-87868127D01*
X84790355Y-87801498D01*
X84828372Y-87768160D01*
X84826400Y-87765344D01*
X84835283Y-87759123D01*
X84835287Y-87759122D01*
X85026709Y-87625087D01*
X85191947Y-87459849D01*
X85325982Y-87268428D01*
X85424740Y-87056640D01*
X85485221Y-86830920D01*
X85505588Y-86598127D01*
X85485221Y-86365334D01*
X85424740Y-86139614D01*
X85325982Y-85927827D01*
X85191947Y-85736405D01*
X85026709Y-85571167D01*
X84835287Y-85437132D01*
X84835283Y-85437130D01*
X84826400Y-85430910D01*
X84828372Y-85428093D01*
X84790355Y-85394756D01*
X84770933Y-85328127D01*
X84790355Y-85261498D01*
X84828372Y-85228160D01*
X84826400Y-85225344D01*
X84835283Y-85219123D01*
X84835287Y-85219122D01*
X85026709Y-85085087D01*
X85191947Y-84919849D01*
X85325982Y-84728428D01*
X85424740Y-84516640D01*
X85485221Y-84290920D01*
X85505588Y-84058127D01*
X85485221Y-83825334D01*
X85424740Y-83599614D01*
X85325982Y-83387827D01*
X85191947Y-83196405D01*
X85026709Y-83031167D01*
X84835287Y-82897132D01*
X84835283Y-82897130D01*
X84826400Y-82890910D01*
X84828372Y-82888093D01*
X84790355Y-82854756D01*
X84770933Y-82788127D01*
X84790355Y-82721498D01*
X84828372Y-82688160D01*
X84826400Y-82685344D01*
X84835283Y-82679123D01*
X84835287Y-82679122D01*
X85026709Y-82545087D01*
X85191947Y-82379849D01*
X85325982Y-82188428D01*
X85424740Y-81976640D01*
X85485221Y-81750920D01*
X85505588Y-81518127D01*
X85485221Y-81285334D01*
X85424740Y-81059614D01*
X85325982Y-80847827D01*
X85191947Y-80656405D01*
X85026709Y-80491167D01*
X84835287Y-80357132D01*
X84835283Y-80357130D01*
X84826400Y-80350910D01*
X84828369Y-80348096D01*
X84790333Y-80314721D01*
X84770933Y-80248087D01*
X84790376Y-80181464D01*
X84828374Y-80148164D01*
X84826400Y-80145344D01*
X84835283Y-80139123D01*
X84835287Y-80139122D01*
X85026709Y-80005087D01*
X85191947Y-79839849D01*
X85325982Y-79648428D01*
X85424740Y-79436640D01*
X85485221Y-79210920D01*
X85505588Y-78978127D01*
X85485221Y-78745334D01*
X85424740Y-78519614D01*
X85325982Y-78307827D01*
X85191947Y-78116405D01*
X85026709Y-77951167D01*
X84835287Y-77817132D01*
X84835283Y-77817130D01*
X84826400Y-77810910D01*
X84828371Y-77808094D01*
X84790348Y-77774743D01*
X84770934Y-77708117D01*
X84790359Y-77641493D01*
X84828377Y-77608157D01*
X84826406Y-77605341D01*
X84828967Y-77603548D01*
X84839631Y-77598289D01*
X84842539Y-77595740D01*
X84845128Y-77594533D01*
X84845524Y-77595383D01*
X84862800Y-77586865D01*
X84900084Y-77581127D01*
X99763326Y-77581127D01*
X99810779Y-77590566D01*
X99851007Y-77617446D01*
X111211132Y-88977571D01*
X111236061Y-89013338D01*
X111247069Y-89055522D01*
X111253483Y-89137019D01*
X111308986Y-89368207D01*
X111399973Y-89587867D01*
X111524202Y-89790589D01*
X111577291Y-89852750D01*
X111599336Y-89890362D01*
X111607000Y-89933280D01*
X111607000Y-91395192D01*
X111597561Y-91442645D01*
X111570681Y-91482873D01*
X110004725Y-93048827D01*
X109973795Y-93071397D01*
X109937454Y-93083455D01*
X109816395Y-93103656D01*
X109591394Y-93180900D01*
X109591390Y-93180901D01*
X109591390Y-93180902D01*
X109565278Y-93195033D01*
X109382159Y-93294132D01*
X109194433Y-93440246D01*
X109033303Y-93615279D01*
X108903188Y-93814434D01*
X108807627Y-94032293D01*
X108749224Y-94262919D01*
X108729579Y-94500000D01*
X108749224Y-94737080D01*
X108749224Y-94737083D01*
X108749225Y-94737085D01*
X108802212Y-94946326D01*
X108807627Y-94967706D01*
X108903188Y-95185565D01*
X109020288Y-95364799D01*
X109033306Y-95384724D01*
X109194430Y-95559751D01*
X109194433Y-95559753D01*
X109382159Y-95705867D01*
X109382161Y-95705868D01*
X109382165Y-95705871D01*
X109591390Y-95819098D01*
X109816398Y-95896344D01*
X110051051Y-95935500D01*
X110288949Y-95935500D01*
X110523602Y-95896344D01*
X110748610Y-95819098D01*
X110957835Y-95705871D01*
X111120805Y-95579026D01*
X119604526Y-95579026D01*
X119677515Y-95630133D01*
X119883673Y-95726266D01*
X120103397Y-95785141D01*
X120330000Y-95804966D01*
X120556602Y-95785141D01*
X120776326Y-95726266D01*
X120982480Y-95630134D01*
X121055472Y-95579025D01*
X120330001Y-94853553D01*
X120330000Y-94853553D01*
X119604526Y-95579025D01*
X119604526Y-95579026D01*
X111120805Y-95579026D01*
X111145570Y-95559751D01*
X111306694Y-95384724D01*
X111436812Y-95185564D01*
X111532374Y-94967704D01*
X111590775Y-94737085D01*
X111590775Y-94737081D01*
X111593297Y-94727124D01*
X111593424Y-94727156D01*
X111601835Y-94695324D01*
X111626655Y-94659789D01*
X111786444Y-94500000D01*
X119025033Y-94500000D01*
X119044858Y-94726602D01*
X119103733Y-94946326D01*
X119199866Y-95152484D01*
X119250972Y-95225471D01*
X119250973Y-95225472D01*
X119976446Y-94500000D01*
X119976446Y-94499999D01*
X120683553Y-94499999D01*
X121409025Y-95225472D01*
X121460134Y-95152480D01*
X121556266Y-94946326D01*
X121615141Y-94726602D01*
X121634966Y-94500000D01*
X121615141Y-94273397D01*
X121556266Y-94053673D01*
X121460133Y-93847515D01*
X121409025Y-93774526D01*
X120683553Y-94499998D01*
X120683553Y-94499999D01*
X119976446Y-94499999D01*
X119976446Y-94499998D01*
X119250973Y-93774527D01*
X119199865Y-93847516D01*
X119103733Y-94053672D01*
X119044858Y-94273397D01*
X119025033Y-94500000D01*
X111786444Y-94500000D01*
X112865471Y-93420973D01*
X119604526Y-93420973D01*
X120330000Y-94146446D01*
X120330001Y-94146446D01*
X121055472Y-93420974D01*
X121055471Y-93420972D01*
X120982484Y-93369866D01*
X120776326Y-93273733D01*
X120556602Y-93214858D01*
X120329999Y-93195033D01*
X120103397Y-93214858D01*
X119883672Y-93273733D01*
X119677516Y-93369865D01*
X119604527Y-93420973D01*
X119604526Y-93420973D01*
X112865471Y-93420973D01*
X113537529Y-92748915D01*
X113541651Y-92744980D01*
X113598306Y-92693333D01*
X113644502Y-92632157D01*
X113648017Y-92627719D01*
X113697013Y-92568718D01*
X113705763Y-92553008D01*
X113715126Y-92538638D01*
X113725962Y-92524290D01*
X113760141Y-92455648D01*
X113762766Y-92450666D01*
X113800089Y-92383660D01*
X113805803Y-92366609D01*
X113812371Y-92350754D01*
X113820382Y-92334668D01*
X113841362Y-92260926D01*
X113843050Y-92255480D01*
X113867407Y-92182812D01*
X113869890Y-92165005D01*
X113873431Y-92148220D01*
X113878352Y-92130926D01*
X113885425Y-92054591D01*
X113886079Y-92048950D01*
X113896672Y-91973014D01*
X113893132Y-91896444D01*
X113893000Y-91890718D01*
X113893000Y-89933280D01*
X113900664Y-89890362D01*
X113922709Y-89852750D01*
X113960563Y-89808427D01*
X113975799Y-89790588D01*
X114100027Y-89587866D01*
X114191013Y-89368207D01*
X114246517Y-89137018D01*
X114265171Y-88899993D01*
X114246517Y-88662968D01*
X114199668Y-88467828D01*
X114191013Y-88431778D01*
X114167246Y-88374401D01*
X114100027Y-88212120D01*
X113975799Y-88009398D01*
X113975798Y-88009397D01*
X113975797Y-88009395D01*
X113821388Y-87828604D01*
X113640597Y-87674195D01*
X113528550Y-87605533D01*
X113437873Y-87549966D01*
X113356732Y-87516356D01*
X113218214Y-87458979D01*
X112987026Y-87403476D01*
X112905529Y-87397062D01*
X112863345Y-87386054D01*
X112827578Y-87361125D01*
X101117060Y-75650607D01*
X101113104Y-75646464D01*
X101061467Y-75589821D01*
X101000302Y-75543631D01*
X100995812Y-75540074D01*
X100936852Y-75491114D01*
X100921146Y-75482365D01*
X100906763Y-75472993D01*
X100892424Y-75462165D01*
X100823821Y-75428004D01*
X100818758Y-75425335D01*
X100751792Y-75388037D01*
X100734749Y-75382325D01*
X100718892Y-75375757D01*
X100702802Y-75367745D01*
X100702798Y-75367743D01*
X100629094Y-75346772D01*
X100623624Y-75345078D01*
X100550946Y-75320719D01*
X100533140Y-75318235D01*
X100516347Y-75314692D01*
X100499064Y-75309775D01*
X100422736Y-75302701D01*
X100417050Y-75302041D01*
X100341151Y-75291455D01*
X100341148Y-75291455D01*
X100268156Y-75294829D01*
X100264578Y-75294995D01*
X100258852Y-75295127D01*
X84900084Y-75295127D01*
X84862800Y-75289389D01*
X84845524Y-75280870D01*
X84845128Y-75281721D01*
X84842539Y-75280514D01*
X84839631Y-75277964D01*
X84828967Y-75272706D01*
X84826406Y-75270913D01*
X84828377Y-75268096D01*
X84790356Y-75234757D01*
X84770934Y-75168127D01*
X84790356Y-75101497D01*
X84828377Y-75068157D01*
X84826406Y-75065341D01*
X84828967Y-75063548D01*
X84839631Y-75058289D01*
X84842539Y-75055740D01*
X84845128Y-75054533D01*
X84845524Y-75055383D01*
X84862800Y-75046865D01*
X84900084Y-75041127D01*
X101793319Y-75041127D01*
X101840772Y-75050566D01*
X101881000Y-75077446D01*
X108713341Y-81909787D01*
X108738161Y-81945320D01*
X108746575Y-81977157D01*
X108746703Y-81977125D01*
X108749224Y-81987083D01*
X108749225Y-81987085D01*
X108802212Y-82196326D01*
X108807627Y-82217706D01*
X108903188Y-82435565D01*
X108973221Y-82542758D01*
X109033306Y-82634724D01*
X109194430Y-82809751D01*
X109194433Y-82809753D01*
X109382159Y-82955867D01*
X109382161Y-82955868D01*
X109382165Y-82955871D01*
X109591390Y-83069098D01*
X109816398Y-83146344D01*
X110051051Y-83185500D01*
X110288949Y-83185500D01*
X110523602Y-83146344D01*
X110748610Y-83069098D01*
X110957835Y-82955871D01*
X111145570Y-82809751D01*
X111306694Y-82634724D01*
X111436812Y-82435564D01*
X111532374Y-82217704D01*
X111590775Y-81987085D01*
X111590775Y-81987081D01*
X111593297Y-81977124D01*
X111593424Y-81977156D01*
X111601835Y-81945324D01*
X111626655Y-81909789D01*
X113287540Y-80248905D01*
X113291662Y-80244970D01*
X113348306Y-80193333D01*
X113394499Y-80132161D01*
X113398027Y-80127707D01*
X113447013Y-80068718D01*
X113455763Y-80053008D01*
X113465126Y-80038638D01*
X113475962Y-80024290D01*
X113510141Y-79955648D01*
X113512766Y-79950666D01*
X113550089Y-79883660D01*
X113555803Y-79866609D01*
X113562371Y-79850754D01*
X113570382Y-79834668D01*
X113591362Y-79760926D01*
X113593050Y-79755480D01*
X113617407Y-79682812D01*
X113619890Y-79665005D01*
X113623431Y-79648220D01*
X113628352Y-79630926D01*
X113635425Y-79554591D01*
X113636079Y-79548950D01*
X113646672Y-79473014D01*
X113643132Y-79396444D01*
X113643000Y-79390718D01*
X113643000Y-76933280D01*
X113650664Y-76890362D01*
X113672709Y-76852750D01*
X113696218Y-76825222D01*
X113725799Y-76790588D01*
X113850027Y-76587866D01*
X113941013Y-76368207D01*
X113996517Y-76137018D01*
X114015171Y-75899993D01*
X113996517Y-75662968D01*
X113941013Y-75431779D01*
X113939449Y-75428004D01*
X113905100Y-75345078D01*
X113850027Y-75212120D01*
X113725799Y-75009398D01*
X113725798Y-75009397D01*
X113725797Y-75009395D01*
X113571388Y-74828604D01*
X113390597Y-74674195D01*
X113218000Y-74568428D01*
X113187873Y-74549966D01*
X113106732Y-74516356D01*
X112968214Y-74458979D01*
X112737026Y-74403476D01*
X112500000Y-74384822D01*
X112262973Y-74403476D01*
X112031785Y-74458979D01*
X111812125Y-74549967D01*
X111609402Y-74674195D01*
X111428611Y-74828604D01*
X111274202Y-75009395D01*
X111149974Y-75212118D01*
X111058986Y-75431778D01*
X111003483Y-75662966D01*
X110984829Y-75899993D01*
X111003483Y-76137019D01*
X111058986Y-76368207D01*
X111149973Y-76587867D01*
X111274202Y-76790589D01*
X111327291Y-76852750D01*
X111349336Y-76890362D01*
X111357000Y-76933280D01*
X111357000Y-78895191D01*
X111347561Y-78942644D01*
X111320681Y-78982872D01*
X110257680Y-80045872D01*
X110202093Y-80077966D01*
X110137905Y-80077966D01*
X110082318Y-80045872D01*
X103147053Y-73110607D01*
X103143097Y-73106464D01*
X103091460Y-73049821D01*
X103030295Y-73003631D01*
X103025805Y-73000074D01*
X102966845Y-72951114D01*
X102951139Y-72942365D01*
X102936756Y-72932993D01*
X102922417Y-72922165D01*
X102853814Y-72888004D01*
X102848751Y-72885335D01*
X102781785Y-72848037D01*
X102764742Y-72842325D01*
X102748885Y-72835757D01*
X102732795Y-72827745D01*
X102732791Y-72827743D01*
X102659087Y-72806772D01*
X102653617Y-72805078D01*
X102580939Y-72780719D01*
X102563133Y-72778235D01*
X102546340Y-72774692D01*
X102529057Y-72769775D01*
X102452729Y-72762701D01*
X102447043Y-72762041D01*
X102371144Y-72751455D01*
X102371141Y-72751455D01*
X102298149Y-72754829D01*
X102294571Y-72754995D01*
X102288845Y-72755127D01*
X84900084Y-72755127D01*
X84862800Y-72749389D01*
X84845524Y-72740870D01*
X84845128Y-72741721D01*
X84842539Y-72740514D01*
X84839631Y-72737964D01*
X84828967Y-72732706D01*
X84826406Y-72730913D01*
X84828377Y-72728096D01*
X84790356Y-72694757D01*
X84770934Y-72628127D01*
X84790356Y-72561497D01*
X84828377Y-72528157D01*
X84826406Y-72525341D01*
X84828967Y-72523548D01*
X84839631Y-72518289D01*
X84842539Y-72515740D01*
X84845128Y-72514533D01*
X84845524Y-72515383D01*
X84862800Y-72506865D01*
X84900084Y-72501127D01*
X106282591Y-72501127D01*
X106288317Y-72501259D01*
X106364887Y-72504799D01*
X106440823Y-72494206D01*
X106446464Y-72493552D01*
X106522799Y-72486479D01*
X106540093Y-72481558D01*
X106556878Y-72478017D01*
X106574685Y-72475534D01*
X106647366Y-72451172D01*
X106652799Y-72449489D01*
X106726541Y-72428509D01*
X106742627Y-72420498D01*
X106758482Y-72413930D01*
X106775533Y-72408216D01*
X106842539Y-72370893D01*
X106847521Y-72368268D01*
X106916163Y-72334089D01*
X106930511Y-72323253D01*
X106944881Y-72313890D01*
X106960591Y-72305140D01*
X107019592Y-72256144D01*
X107024038Y-72252624D01*
X107085206Y-72206433D01*
X107136864Y-72149766D01*
X107140777Y-72145668D01*
X110335277Y-68951168D01*
X110366205Y-68928600D01*
X110402542Y-68916544D01*
X110523602Y-68896344D01*
X110748610Y-68819098D01*
X110957835Y-68705871D01*
X111145570Y-68559751D01*
X111306694Y-68384724D01*
X111436812Y-68185564D01*
X111532374Y-67967704D01*
X111590775Y-67737085D01*
X111590775Y-67737081D01*
X111593297Y-67727124D01*
X111593424Y-67727156D01*
X111601835Y-67695324D01*
X111626655Y-67659789D01*
X113437529Y-65848915D01*
X113441651Y-65844980D01*
X113498306Y-65793333D01*
X113544502Y-65732157D01*
X113548017Y-65727719D01*
X113597013Y-65668718D01*
X113605763Y-65653008D01*
X113615126Y-65638638D01*
X113625962Y-65624290D01*
X113660141Y-65555648D01*
X113662766Y-65550666D01*
X113700089Y-65483660D01*
X113705803Y-65466609D01*
X113712371Y-65450754D01*
X113720382Y-65434668D01*
X113741362Y-65360926D01*
X113743050Y-65355480D01*
X113745117Y-65349314D01*
X113767407Y-65282812D01*
X113769890Y-65265005D01*
X113773431Y-65248220D01*
X113778352Y-65230926D01*
X113785425Y-65154591D01*
X113786079Y-65148950D01*
X113796672Y-65073014D01*
X113793132Y-64996444D01*
X113793000Y-64990718D01*
X113793000Y-62970780D01*
X113800664Y-62927862D01*
X113822709Y-62890250D01*
X113859205Y-62847517D01*
X113875799Y-62828088D01*
X114000027Y-62625366D01*
X114091013Y-62405707D01*
X114146517Y-62174518D01*
X114165171Y-61937493D01*
X114146517Y-61700468D01*
X114091013Y-61469279D01*
X114000027Y-61249620D01*
X113875799Y-61046898D01*
X113875798Y-61046897D01*
X113875797Y-61046895D01*
X113721388Y-60866104D01*
X113540597Y-60711695D01*
X113406163Y-60629314D01*
X113337873Y-60587466D01*
X113231303Y-60543323D01*
X113118214Y-60496479D01*
X112887026Y-60440976D01*
X112650000Y-60422322D01*
X112412973Y-60440976D01*
X112181785Y-60496479D01*
X111962125Y-60587467D01*
X111759402Y-60711695D01*
X111578611Y-60866104D01*
X111424202Y-61046895D01*
X111299974Y-61249618D01*
X111208986Y-61469278D01*
X111153483Y-61700466D01*
X111134829Y-61937493D01*
X111153483Y-62174519D01*
X111208986Y-62405707D01*
X111299973Y-62625367D01*
X111424202Y-62828089D01*
X111477291Y-62890250D01*
X111499336Y-62927862D01*
X111507000Y-62970780D01*
X111507000Y-64495192D01*
X111497561Y-64542645D01*
X111470681Y-64582873D01*
X110004725Y-66048827D01*
X109973795Y-66071397D01*
X109937454Y-66083455D01*
X109816395Y-66103656D01*
X109591394Y-66180900D01*
X109382159Y-66294132D01*
X109194433Y-66440246D01*
X109194430Y-66440248D01*
X109194430Y-66440249D01*
X109113867Y-66527762D01*
X109033303Y-66615279D01*
X108903188Y-66814434D01*
X108807627Y-67032293D01*
X108807626Y-67032296D01*
X108755516Y-67238073D01*
X108746703Y-67272875D01*
X108746575Y-67272842D01*
X108738161Y-67304679D01*
X108713341Y-67340210D01*
X105874746Y-70178808D01*
X105834518Y-70205688D01*
X105787065Y-70215127D01*
X84900084Y-70215127D01*
X84862800Y-70209389D01*
X84845524Y-70200870D01*
X84845128Y-70201721D01*
X84842539Y-70200514D01*
X84839631Y-70197964D01*
X84828967Y-70192706D01*
X84826406Y-70190913D01*
X84828377Y-70188096D01*
X84790356Y-70154757D01*
X84770934Y-70088127D01*
X84790356Y-70021497D01*
X84828377Y-69988157D01*
X84826406Y-69985341D01*
X84828967Y-69983548D01*
X84839631Y-69978289D01*
X84842539Y-69975740D01*
X84845128Y-69974533D01*
X84845524Y-69975383D01*
X84862800Y-69966865D01*
X84900084Y-69961127D01*
X95247591Y-69961127D01*
X95253317Y-69961259D01*
X95329887Y-69964799D01*
X95405823Y-69954206D01*
X95411464Y-69953552D01*
X95487799Y-69946479D01*
X95505093Y-69941558D01*
X95521878Y-69938017D01*
X95539685Y-69935534D01*
X95612366Y-69911172D01*
X95617799Y-69909489D01*
X95691541Y-69888509D01*
X95707627Y-69880498D01*
X95723482Y-69873930D01*
X95740533Y-69868216D01*
X95807539Y-69830893D01*
X95812521Y-69828268D01*
X95881163Y-69794089D01*
X95895511Y-69783253D01*
X95909881Y-69773890D01*
X95925591Y-69765140D01*
X95984592Y-69716144D01*
X95989038Y-69712624D01*
X96050206Y-69666433D01*
X96101854Y-69609776D01*
X96105788Y-69605656D01*
X110585277Y-55126168D01*
X110616205Y-55103600D01*
X110652542Y-55091544D01*
X110773602Y-55071344D01*
X110998610Y-54994098D01*
X111207835Y-54880871D01*
X111395570Y-54734751D01*
X111556694Y-54559724D01*
X111686812Y-54360564D01*
X111782374Y-54142704D01*
X111840775Y-53912085D01*
X111860420Y-53675000D01*
X111840775Y-53437915D01*
X111782374Y-53207296D01*
X111686812Y-52989436D01*
X111686811Y-52989433D01*
X111583192Y-52830833D01*
X111568155Y-52798393D01*
X111563000Y-52763011D01*
X111563000Y-50692301D01*
X111572439Y-50644848D01*
X111599319Y-50604620D01*
X111836113Y-50367826D01*
X112727580Y-49476357D01*
X112763344Y-49451431D01*
X112805528Y-49440423D01*
X112887025Y-49434010D01*
X113118214Y-49378506D01*
X113337873Y-49287520D01*
X113540595Y-49163292D01*
X113721388Y-49008881D01*
X113875799Y-48828088D01*
X114000027Y-48625366D01*
X114091013Y-48405707D01*
X114146517Y-48174518D01*
X114165171Y-47937493D01*
X114146517Y-47700468D01*
X114098389Y-47500000D01*
X114091013Y-47469278D01*
X114032783Y-47328700D01*
X114000027Y-47249620D01*
X113875799Y-47046898D01*
X113875798Y-47046897D01*
X113875797Y-47046895D01*
X113721388Y-46866104D01*
X113540597Y-46711695D01*
X113416585Y-46635701D01*
X113337873Y-46587466D01*
X113235991Y-46545265D01*
X113118214Y-46496479D01*
X112887026Y-46440976D01*
X112650000Y-46422322D01*
X112412973Y-46440976D01*
X112181785Y-46496479D01*
X111962125Y-46587467D01*
X111759402Y-46711695D01*
X111578611Y-46866104D01*
X111424202Y-47046895D01*
X111299974Y-47249618D01*
X111208986Y-47469278D01*
X111153483Y-47700466D01*
X111147069Y-47781962D01*
X111136061Y-47824146D01*
X111111132Y-47859913D01*
X109632478Y-49338567D01*
X109628336Y-49342522D01*
X109571696Y-49394157D01*
X109525507Y-49455319D01*
X109521952Y-49459806D01*
X109472987Y-49518773D01*
X109464237Y-49534481D01*
X109454871Y-49548856D01*
X109444037Y-49563204D01*
X109409868Y-49631822D01*
X109407199Y-49636885D01*
X109369911Y-49703831D01*
X109364199Y-49720874D01*
X109357630Y-49736733D01*
X109349618Y-49752823D01*
X109328644Y-49826538D01*
X109326950Y-49832008D01*
X109302592Y-49904683D01*
X109300109Y-49922480D01*
X109296567Y-49939273D01*
X109291648Y-49956564D01*
X109284574Y-50032890D01*
X109283914Y-50038574D01*
X109273328Y-50114475D01*
X109276868Y-50191049D01*
X109277000Y-50196775D01*
X109277000Y-52763011D01*
X109271845Y-52798393D01*
X109256808Y-52830833D01*
X109153188Y-52989433D01*
X109073278Y-53171612D01*
X109057626Y-53207296D01*
X109008765Y-53400242D01*
X108996703Y-53447875D01*
X108996575Y-53447842D01*
X108988161Y-53479679D01*
X108963341Y-53515210D01*
X94839746Y-67638808D01*
X94799518Y-67665688D01*
X94752065Y-67675127D01*
X84900084Y-67675127D01*
X84862800Y-67669389D01*
X84845524Y-67660870D01*
X84845128Y-67661721D01*
X84842539Y-67660514D01*
X84839631Y-67657964D01*
X84828967Y-67652706D01*
X84826406Y-67650913D01*
X84828377Y-67648096D01*
X84790356Y-67614757D01*
X84770934Y-67548127D01*
X84790356Y-67481497D01*
X84828377Y-67448157D01*
X84826406Y-67445341D01*
X84828967Y-67443548D01*
X84839631Y-67438289D01*
X84842539Y-67435740D01*
X84845128Y-67434533D01*
X84845524Y-67435383D01*
X84862800Y-67426865D01*
X84900084Y-67421127D01*
X84993961Y-67421127D01*
X84999687Y-67421259D01*
X85076257Y-67424799D01*
X85152193Y-67414206D01*
X85157834Y-67413552D01*
X85234169Y-67406479D01*
X85251463Y-67401558D01*
X85268248Y-67398017D01*
X85286055Y-67395534D01*
X85358736Y-67371172D01*
X85364169Y-67369489D01*
X85437911Y-67348509D01*
X85453997Y-67340498D01*
X85469852Y-67333930D01*
X85486903Y-67328216D01*
X85553909Y-67290893D01*
X85558891Y-67288268D01*
X85627533Y-67254089D01*
X85641881Y-67243253D01*
X85656251Y-67233890D01*
X85671961Y-67225140D01*
X85730962Y-67176144D01*
X85735408Y-67172624D01*
X85796576Y-67126433D01*
X85848224Y-67069776D01*
X85852158Y-67065656D01*
X104746277Y-48171539D01*
X104746277Y-48171538D01*
X110707529Y-42210285D01*
X110711651Y-42206350D01*
X110768306Y-42154703D01*
X110814502Y-42093527D01*
X110818017Y-42089089D01*
X110867013Y-42030088D01*
X110875763Y-42014378D01*
X110885126Y-42000008D01*
X110895962Y-41985660D01*
X110930141Y-41917018D01*
X110932766Y-41912036D01*
X110970089Y-41845030D01*
X110975803Y-41827979D01*
X110982371Y-41812124D01*
X110990382Y-41796038D01*
X111011362Y-41722296D01*
X111013050Y-41716850D01*
X111037407Y-41644182D01*
X111039890Y-41626375D01*
X111043431Y-41609590D01*
X111048352Y-41592296D01*
X111055425Y-41515961D01*
X111056079Y-41510320D01*
X111066672Y-41434384D01*
X111063132Y-41357814D01*
X111063000Y-41352088D01*
X111063000Y-41161989D01*
X111068155Y-41126607D01*
X111083192Y-41094167D01*
X111186811Y-40935566D01*
X111207283Y-40888894D01*
X111282374Y-40717704D01*
X111340775Y-40487085D01*
X111340775Y-40487081D01*
X111343297Y-40477124D01*
X111343424Y-40477156D01*
X111351835Y-40445324D01*
X111376655Y-40409789D01*
X113187529Y-38598915D01*
X113191651Y-38594980D01*
X113248306Y-38543333D01*
X113294502Y-38482157D01*
X113298017Y-38477719D01*
X113347013Y-38418718D01*
X113355763Y-38403008D01*
X113365126Y-38388638D01*
X113375962Y-38374290D01*
X113410141Y-38305648D01*
X113412766Y-38300666D01*
X113450089Y-38233660D01*
X113455803Y-38216609D01*
X113462371Y-38200754D01*
X113470382Y-38184668D01*
X113491362Y-38110926D01*
X113493050Y-38105480D01*
X113510627Y-38053039D01*
X113517407Y-38032812D01*
X113519890Y-38015005D01*
X113523431Y-37998220D01*
X113528352Y-37980926D01*
X113535425Y-37904591D01*
X113536079Y-37898950D01*
X113546672Y-37823014D01*
X113543132Y-37746444D01*
X113543000Y-37740718D01*
X113543000Y-35220780D01*
X113550664Y-35177862D01*
X113572709Y-35140250D01*
X113596218Y-35112722D01*
X113625799Y-35078088D01*
X113750027Y-34875366D01*
X113841013Y-34655707D01*
X113896517Y-34424518D01*
X113915171Y-34187493D01*
X113896517Y-33950468D01*
X113841013Y-33719279D01*
X113831163Y-33695500D01*
X113784201Y-33582124D01*
X113750027Y-33499620D01*
X113625799Y-33296898D01*
X113625798Y-33296897D01*
X113625797Y-33296895D01*
X113471388Y-33116104D01*
X113290597Y-32961695D01*
X113167424Y-32886215D01*
X113087873Y-32837466D01*
X112971161Y-32789122D01*
X112868214Y-32746479D01*
X112637026Y-32690976D01*
X112400000Y-32672322D01*
X112162973Y-32690976D01*
X111931785Y-32746479D01*
X111712125Y-32837467D01*
X111509402Y-32961695D01*
X111328611Y-33116104D01*
X111174202Y-33296895D01*
X111049974Y-33499618D01*
X110958986Y-33719278D01*
X110903483Y-33950466D01*
X110884829Y-34187492D01*
X110903483Y-34424519D01*
X110958986Y-34655707D01*
X111049973Y-34875367D01*
X111174202Y-35078089D01*
X111227291Y-35140250D01*
X111249336Y-35177862D01*
X111257000Y-35220780D01*
X111257000Y-37245192D01*
X111247561Y-37292645D01*
X111220681Y-37332873D01*
X109754725Y-38798827D01*
X109723795Y-38821397D01*
X109687454Y-38833455D01*
X109566395Y-38853656D01*
X109341394Y-38930900D01*
X109132159Y-39044132D01*
X108944433Y-39190246D01*
X108783303Y-39365279D01*
X108653188Y-39564434D01*
X108557627Y-39782293D01*
X108499224Y-40012919D01*
X108479579Y-40250000D01*
X108499224Y-40487080D01*
X108499224Y-40487083D01*
X108499225Y-40487085D01*
X108552212Y-40696326D01*
X108557627Y-40717706D01*
X108648478Y-40924828D01*
X108658910Y-40972930D01*
X108649807Y-41021301D01*
X108622603Y-41062319D01*
X103129831Y-46555093D01*
X85539937Y-64144985D01*
X85486190Y-64176570D01*
X85423866Y-64178010D01*
X85368718Y-64148941D01*
X85334684Y-64096711D01*
X85330367Y-64034520D01*
X85339039Y-63988127D01*
X82390935Y-63988127D01*
X82405851Y-64067927D01*
X82486189Y-64275305D01*
X82603265Y-64464389D01*
X82753087Y-64628736D01*
X82930560Y-64762758D01*
X83050446Y-64822453D01*
X83101018Y-64868854D01*
X83119165Y-64935045D01*
X83099326Y-65000748D01*
X83047580Y-65045836D01*
X82894689Y-65117131D01*
X82894687Y-65117132D01*
X82703265Y-65251167D01*
X82703261Y-65251170D01*
X82538030Y-65416401D01*
X82538027Y-65416404D01*
X82538027Y-65416405D01*
X82452490Y-65538565D01*
X82403991Y-65607828D01*
X82305234Y-65819612D01*
X82244752Y-66045336D01*
X82224385Y-66278127D01*
X82244752Y-66510917D01*
X82305234Y-66736641D01*
X82322901Y-66774527D01*
X82403992Y-66948427D01*
X82538027Y-67139849D01*
X82703265Y-67305087D01*
X82894687Y-67439122D01*
X82894690Y-67439123D01*
X82903574Y-67445344D01*
X82901602Y-67448158D01*
X82939623Y-67481506D01*
X82959040Y-67548127D01*
X82939623Y-67614748D01*
X82901602Y-67648095D01*
X82903574Y-67650910D01*
X82894690Y-67657130D01*
X82894687Y-67657132D01*
X82732712Y-67770548D01*
X82703261Y-67791170D01*
X82538030Y-67956401D01*
X82538027Y-67956404D01*
X82538027Y-67956405D01*
X82530116Y-67967704D01*
X82403991Y-68147828D01*
X82305234Y-68359612D01*
X82244752Y-68585336D01*
X82224385Y-68818126D01*
X82244752Y-69050917D01*
X82244753Y-69050920D01*
X82305234Y-69276640D01*
X82403992Y-69488427D01*
X82538027Y-69679849D01*
X82703265Y-69845087D01*
X82894687Y-69979122D01*
X82894690Y-69979123D01*
X82903574Y-69985344D01*
X82901602Y-69988158D01*
X82939623Y-70021506D01*
X82959040Y-70088127D01*
X82939623Y-70154748D01*
X82901602Y-70188095D01*
X82903574Y-70190910D01*
X82894690Y-70197130D01*
X82894687Y-70197132D01*
X82703265Y-70331167D01*
X82703261Y-70331170D01*
X82538030Y-70496401D01*
X82403991Y-70687828D01*
X82305234Y-70899612D01*
X82244752Y-71125336D01*
X82224385Y-71358126D01*
X82244752Y-71590917D01*
X82244753Y-71590920D01*
X82305234Y-71816640D01*
X82403992Y-72028427D01*
X82538027Y-72219849D01*
X82703265Y-72385087D01*
X82894687Y-72519122D01*
X82894690Y-72519123D01*
X82903574Y-72525344D01*
X82901602Y-72528158D01*
X82939623Y-72561506D01*
X82959040Y-72628127D01*
X82939623Y-72694748D01*
X82901602Y-72728095D01*
X82903574Y-72730910D01*
X82894690Y-72737130D01*
X82894687Y-72737132D01*
X82736297Y-72848038D01*
X82703261Y-72871170D01*
X82538030Y-73036401D01*
X82538027Y-73036404D01*
X82538027Y-73036405D01*
X82421811Y-73202379D01*
X82403991Y-73227828D01*
X82305234Y-73439612D01*
X82244752Y-73665336D01*
X82224385Y-73898126D01*
X82244752Y-74130917D01*
X82305234Y-74356641D01*
X82352956Y-74458980D01*
X82403992Y-74568427D01*
X82538027Y-74759849D01*
X82703265Y-74925087D01*
X82894687Y-75059122D01*
X82894690Y-75059123D01*
X82903574Y-75065344D01*
X82901602Y-75068158D01*
X82939623Y-75101506D01*
X82959040Y-75168127D01*
X82939623Y-75234748D01*
X82901602Y-75268095D01*
X82903574Y-75270910D01*
X82894690Y-75277130D01*
X82894687Y-75277132D01*
X82736297Y-75388038D01*
X82703261Y-75411170D01*
X82538030Y-75576401D01*
X82538027Y-75576404D01*
X82538027Y-75576405D01*
X82487490Y-75648580D01*
X82403991Y-75767828D01*
X82305234Y-75979612D01*
X82244752Y-76205336D01*
X82224385Y-76438126D01*
X82244752Y-76670917D01*
X82305234Y-76896641D01*
X82339365Y-76969834D01*
X82403992Y-77108427D01*
X82538027Y-77299849D01*
X82703265Y-77465087D01*
X82894687Y-77599122D01*
X82894690Y-77599123D01*
X82903574Y-77605344D01*
X82901602Y-77608158D01*
X82939623Y-77641506D01*
X82959040Y-77708127D01*
X82939623Y-77774748D01*
X82901602Y-77808095D01*
X82903574Y-77810910D01*
X82894690Y-77817130D01*
X82894687Y-77817132D01*
X82703265Y-77951167D01*
X82703261Y-77951170D01*
X82538030Y-78116401D01*
X82403991Y-78307828D01*
X82305234Y-78519612D01*
X82244752Y-78745336D01*
X82224385Y-78978126D01*
X82244752Y-79210917D01*
X82294463Y-79396444D01*
X82305234Y-79436640D01*
X82403992Y-79648427D01*
X82538027Y-79839849D01*
X82703265Y-80005087D01*
X82894687Y-80139122D01*
X82894690Y-80139123D01*
X82903574Y-80145344D01*
X82901602Y-80148158D01*
X82939623Y-80181506D01*
X82959040Y-80248127D01*
X82939623Y-80314748D01*
X82901602Y-80348095D01*
X82903574Y-80350910D01*
X82894690Y-80357130D01*
X82894687Y-80357132D01*
X82703265Y-80491167D01*
X82703261Y-80491170D01*
X82538030Y-80656401D01*
X82538027Y-80656404D01*
X82538027Y-80656405D01*
X82443178Y-80791864D01*
X82403991Y-80847828D01*
X82305234Y-81059612D01*
X82244752Y-81285336D01*
X82224385Y-81518127D01*
X82244752Y-81750917D01*
X82305234Y-81976641D01*
X82341916Y-82055305D01*
X82403992Y-82188427D01*
X82538027Y-82379849D01*
X82703265Y-82545087D01*
X82894687Y-82679122D01*
X82894690Y-82679123D01*
X82903574Y-82685344D01*
X82901602Y-82688158D01*
X82939623Y-82721506D01*
X82959040Y-82788127D01*
X82939623Y-82854748D01*
X82901602Y-82888095D01*
X82903574Y-82890910D01*
X82894690Y-82897130D01*
X82894687Y-82897132D01*
X82781672Y-82976266D01*
X82703261Y-83031170D01*
X82538030Y-83196401D01*
X82403991Y-83387828D01*
X82305234Y-83599612D01*
X82244752Y-83825336D01*
X82224385Y-84058127D01*
X82244752Y-84290917D01*
X82244753Y-84290920D01*
X82305234Y-84516640D01*
X82403992Y-84728427D01*
X82538027Y-84919849D01*
X82703265Y-85085087D01*
X82894687Y-85219122D01*
X82894690Y-85219123D01*
X82903574Y-85225344D01*
X82901602Y-85228158D01*
X82939623Y-85261506D01*
X82959040Y-85328127D01*
X82939623Y-85394748D01*
X82901602Y-85428095D01*
X82903574Y-85430910D01*
X82894690Y-85437130D01*
X82894687Y-85437132D01*
X82703265Y-85571167D01*
X82703261Y-85571170D01*
X82538030Y-85736401D01*
X82403991Y-85927828D01*
X82305234Y-86139612D01*
X82244752Y-86365336D01*
X82224385Y-86598127D01*
X82244752Y-86830917D01*
X82244753Y-86830920D01*
X82305234Y-87056640D01*
X82403992Y-87268427D01*
X82538027Y-87459849D01*
X82703265Y-87625087D01*
X82894687Y-87759122D01*
X82894690Y-87759123D01*
X82903574Y-87765344D01*
X82901602Y-87768158D01*
X82939623Y-87801506D01*
X82959040Y-87868127D01*
X82939623Y-87934748D01*
X82901602Y-87968095D01*
X82903574Y-87970910D01*
X82894690Y-87977130D01*
X82894687Y-87977132D01*
X82703265Y-88111167D01*
X82703261Y-88111170D01*
X82538030Y-88276401D01*
X82538027Y-88276404D01*
X82538027Y-88276405D01*
X82429233Y-88431779D01*
X82403991Y-88467828D01*
X82305234Y-88679612D01*
X82244752Y-88905336D01*
X82224385Y-89138127D01*
X82244752Y-89370917D01*
X82244753Y-89370920D01*
X82305234Y-89596640D01*
X82403992Y-89808427D01*
X82538027Y-89999849D01*
X82703265Y-90165087D01*
X82824562Y-90250020D01*
X82901841Y-90304131D01*
X82943097Y-90353294D01*
X82954248Y-90416497D01*
X82932307Y-90476809D01*
X82898055Y-90505563D01*
X82899894Y-90508190D01*
X82891010Y-90514410D01*
X82891007Y-90514412D01*
X82705102Y-90644584D01*
X82699581Y-90648450D01*
X82534350Y-90813681D01*
X82534347Y-90813684D01*
X82534347Y-90813685D01*
X82452236Y-90930952D01*
X82400311Y-91005108D01*
X82301554Y-91216892D01*
X82241072Y-91442616D01*
X82220705Y-91675406D01*
X82241072Y-91908197D01*
X82301554Y-92133921D01*
X82328331Y-92191344D01*
X82400312Y-92345707D01*
X82534347Y-92537129D01*
X82699585Y-92702367D01*
X82891007Y-92836402D01*
X82891010Y-92836403D01*
X82899894Y-92842624D01*
X82897922Y-92845438D01*
X82935943Y-92878786D01*
X82955360Y-92945407D01*
X82935943Y-93012028D01*
X82897922Y-93045375D01*
X82899894Y-93048190D01*
X82891010Y-93054410D01*
X82891007Y-93054412D01*
X82699585Y-93188447D01*
X82699581Y-93188450D01*
X82534350Y-93353681D01*
X82534347Y-93353684D01*
X82534347Y-93353685D01*
X82487232Y-93420973D01*
X82400311Y-93545108D01*
X82301554Y-93756892D01*
X82241072Y-93982616D01*
X82220705Y-94215407D01*
X60105350Y-94215407D01*
X60085221Y-93985334D01*
X60024740Y-93759614D01*
X59925982Y-93547827D01*
X59791947Y-93356405D01*
X59626709Y-93191167D01*
X59435287Y-93057132D01*
X59435283Y-93057130D01*
X59426400Y-93050910D01*
X59428372Y-93048093D01*
X59390355Y-93014756D01*
X59370933Y-92948127D01*
X59390355Y-92881498D01*
X59428372Y-92848160D01*
X59426400Y-92845344D01*
X59435283Y-92839123D01*
X59435287Y-92839122D01*
X59626709Y-92705087D01*
X59791947Y-92539849D01*
X59925982Y-92348428D01*
X60024740Y-92136640D01*
X60085221Y-91910920D01*
X60105588Y-91678127D01*
X60085221Y-91445334D01*
X60024740Y-91219614D01*
X59925982Y-91007827D01*
X59791947Y-90816405D01*
X59626709Y-90651167D01*
X59435287Y-90517132D01*
X59435283Y-90517130D01*
X59426400Y-90510910D01*
X59428372Y-90508093D01*
X59390355Y-90474756D01*
X59370933Y-90408127D01*
X59390355Y-90341498D01*
X59428372Y-90308160D01*
X59426400Y-90305344D01*
X59435283Y-90299123D01*
X59435287Y-90299122D01*
X59626709Y-90165087D01*
X59791947Y-89999849D01*
X59925982Y-89808428D01*
X60024740Y-89596640D01*
X60085221Y-89370920D01*
X60105588Y-89138127D01*
X60085221Y-88905334D01*
X60024740Y-88679614D01*
X59925982Y-88467827D01*
X59791947Y-88276405D01*
X59626709Y-88111167D01*
X59435287Y-87977132D01*
X59435283Y-87977130D01*
X59426400Y-87970910D01*
X59428372Y-87968093D01*
X59390355Y-87934756D01*
X59370933Y-87868127D01*
X59390355Y-87801498D01*
X59428372Y-87768160D01*
X59426400Y-87765344D01*
X59435283Y-87759123D01*
X59435287Y-87759122D01*
X59626709Y-87625087D01*
X59791947Y-87459849D01*
X59925982Y-87268428D01*
X60024740Y-87056640D01*
X60085221Y-86830920D01*
X60105588Y-86598127D01*
X60085221Y-86365334D01*
X60024740Y-86139614D01*
X59925982Y-85927827D01*
X59791947Y-85736405D01*
X59626709Y-85571167D01*
X59435287Y-85437132D01*
X59435283Y-85437130D01*
X59426400Y-85430910D01*
X59428372Y-85428093D01*
X59390355Y-85394756D01*
X59370933Y-85328127D01*
X59390355Y-85261498D01*
X59428372Y-85228160D01*
X59426400Y-85225344D01*
X59435283Y-85219123D01*
X59435287Y-85219122D01*
X59626709Y-85085087D01*
X59791947Y-84919849D01*
X59925982Y-84728428D01*
X60024740Y-84516640D01*
X60085221Y-84290920D01*
X60105588Y-84058127D01*
X60085221Y-83825334D01*
X60024740Y-83599614D01*
X59925982Y-83387827D01*
X59791947Y-83196405D01*
X59626709Y-83031167D01*
X59435287Y-82897132D01*
X59344394Y-82854748D01*
X59282393Y-82825836D01*
X59230647Y-82780748D01*
X59210808Y-82715045D01*
X59228955Y-82648853D01*
X59279527Y-82602453D01*
X59399413Y-82542757D01*
X59576886Y-82408736D01*
X59726708Y-82244389D01*
X59843784Y-82055305D01*
X59924122Y-81847927D01*
X59939039Y-81768127D01*
X56990935Y-81768127D01*
X57005851Y-81847927D01*
X57086189Y-82055305D01*
X57203265Y-82244389D01*
X57353087Y-82408736D01*
X57530560Y-82542758D01*
X57650446Y-82602453D01*
X57701018Y-82648854D01*
X57719165Y-82715045D01*
X57699326Y-82780748D01*
X57647580Y-82825836D01*
X57531141Y-82880133D01*
X57494687Y-82897132D01*
X57410805Y-82955867D01*
X57303261Y-83031170D01*
X57138030Y-83196401D01*
X57003991Y-83387828D01*
X56905234Y-83599612D01*
X56844752Y-83825336D01*
X56824385Y-84058126D01*
X56844752Y-84290917D01*
X56844753Y-84290920D01*
X56905234Y-84516640D01*
X57003992Y-84728427D01*
X57138027Y-84919849D01*
X57303265Y-85085087D01*
X57494687Y-85219122D01*
X57494690Y-85219123D01*
X57503574Y-85225344D01*
X57501602Y-85228158D01*
X57539623Y-85261506D01*
X57559040Y-85328127D01*
X57539623Y-85394748D01*
X57501602Y-85428095D01*
X57503574Y-85430910D01*
X57494690Y-85437130D01*
X57494687Y-85437132D01*
X57303265Y-85571167D01*
X57303261Y-85571170D01*
X57138030Y-85736401D01*
X57003991Y-85927828D01*
X56905234Y-86139612D01*
X56844752Y-86365336D01*
X56824385Y-86598126D01*
X56844752Y-86830917D01*
X56844753Y-86830920D01*
X56905234Y-87056640D01*
X57003992Y-87268427D01*
X57138027Y-87459849D01*
X57303265Y-87625087D01*
X57494687Y-87759122D01*
X57494690Y-87759123D01*
X57503574Y-87765344D01*
X57501602Y-87768158D01*
X57539623Y-87801506D01*
X57559040Y-87868127D01*
X57539623Y-87934748D01*
X57501602Y-87968095D01*
X57503574Y-87970910D01*
X57494690Y-87977130D01*
X57494687Y-87977132D01*
X57303265Y-88111167D01*
X57303261Y-88111170D01*
X57138030Y-88276401D01*
X57138027Y-88276404D01*
X57138027Y-88276405D01*
X57029233Y-88431779D01*
X57003991Y-88467828D01*
X56905234Y-88679612D01*
X56844752Y-88905336D01*
X56824385Y-89138127D01*
X56844752Y-89370917D01*
X56844753Y-89370920D01*
X56905234Y-89596640D01*
X57003992Y-89808427D01*
X57138027Y-89999849D01*
X57303265Y-90165087D01*
X57494687Y-90299122D01*
X57494690Y-90299123D01*
X57503574Y-90305344D01*
X57501602Y-90308158D01*
X57539623Y-90341506D01*
X57559040Y-90408127D01*
X57539623Y-90474748D01*
X57501602Y-90508095D01*
X57503574Y-90510910D01*
X57494690Y-90517130D01*
X57494687Y-90517132D01*
X57303265Y-90651167D01*
X57303261Y-90651170D01*
X57138030Y-90816401D01*
X57138027Y-90816404D01*
X57138027Y-90816405D01*
X57005032Y-91006342D01*
X57003991Y-91007828D01*
X56905234Y-91219612D01*
X56844752Y-91445336D01*
X56824385Y-91678127D01*
X56844752Y-91910917D01*
X56902693Y-92127156D01*
X56902693Y-92191344D01*
X56870599Y-92246931D01*
X56815012Y-92279025D01*
X56750824Y-92279025D01*
X56695237Y-92246931D01*
X54679319Y-90231013D01*
X54652439Y-90190785D01*
X54643000Y-90143332D01*
X54643000Y-63779282D01*
X54643132Y-63773556D01*
X54643649Y-63762378D01*
X54646672Y-63696986D01*
X54636080Y-63621058D01*
X54635423Y-63615387D01*
X54628352Y-63539074D01*
X54623435Y-63521793D01*
X54619890Y-63504991D01*
X54617407Y-63487188D01*
X54593035Y-63414474D01*
X54591360Y-63409064D01*
X54570382Y-63335332D01*
X54562373Y-63319249D01*
X54555801Y-63303382D01*
X54550089Y-63286341D01*
X54550089Y-63286340D01*
X54512784Y-63219365D01*
X54510133Y-63214335D01*
X54475962Y-63145710D01*
X54465131Y-63131367D01*
X54455756Y-63116979D01*
X54447013Y-63101282D01*
X54398051Y-63042320D01*
X54394494Y-63037829D01*
X54348307Y-62976667D01*
X54291661Y-62925028D01*
X54287518Y-62921072D01*
X52578926Y-61212480D01*
X52574970Y-61208337D01*
X52523333Y-61151694D01*
X52462168Y-61105504D01*
X52457678Y-61101947D01*
X52398718Y-61052987D01*
X52383012Y-61044238D01*
X52368629Y-61034866D01*
X52354290Y-61024038D01*
X52285687Y-60989877D01*
X52280624Y-60987208D01*
X52213658Y-60949910D01*
X52196615Y-60944198D01*
X52180758Y-60937630D01*
X52164668Y-60929618D01*
X52164664Y-60929616D01*
X52090960Y-60908645D01*
X52085490Y-60906951D01*
X52012812Y-60882592D01*
X51995006Y-60880108D01*
X51978213Y-60876565D01*
X51960930Y-60871648D01*
X51884602Y-60864574D01*
X51878916Y-60863914D01*
X51803017Y-60853328D01*
X51803014Y-60853328D01*
X51730022Y-60856702D01*
X51726444Y-60856868D01*
X51720718Y-60857000D01*
X50444880Y-60857000D01*
X50392247Y-60845276D01*
X50349568Y-60812319D01*
X50274920Y-60722619D01*
X50074811Y-60543323D01*
X50074810Y-60543322D01*
X49850730Y-60395072D01*
X49754558Y-60349988D01*
X49607455Y-60281028D01*
X49463172Y-60237620D01*
X49350161Y-60203620D01*
X49084341Y-60164500D01*
X47482916Y-60164500D01*
X47482913Y-60164500D01*
X47282032Y-60179202D01*
X47019783Y-60237620D01*
X46768825Y-60333604D01*
X46534521Y-60465102D01*
X46321858Y-60629314D01*
X46135373Y-60822738D01*
X45979037Y-61041257D01*
X45856186Y-61280205D01*
X45769432Y-61534499D01*
X45720630Y-61798711D01*
X45710817Y-62067214D01*
X44143500Y-62067214D01*
X44143500Y-58775015D01*
X44152939Y-58727562D01*
X44179819Y-58687334D01*
X48570334Y-54296819D01*
X48610562Y-54269939D01*
X48658015Y-54260500D01*
X49435871Y-54260500D01*
X49435872Y-54260500D01*
X49618090Y-54245790D01*
X49854883Y-54187425D01*
X50079248Y-54091832D01*
X50285373Y-53961487D01*
X50467920Y-53799764D01*
X50622161Y-53610853D01*
X50744101Y-53399647D01*
X50830583Y-53171615D01*
X50879365Y-52932663D01*
X50889185Y-52688980D01*
X50859788Y-52446878D01*
X50791937Y-52212627D01*
X50687387Y-51992293D01*
X50548847Y-51791583D01*
X50379905Y-51615696D01*
X50184937Y-51469187D01*
X50184935Y-51469186D01*
X50184934Y-51469185D01*
X49968994Y-51355850D01*
X49737659Y-51278620D01*
X49496941Y-51239500D01*
X49496940Y-51239500D01*
X47564128Y-51239500D01*
X47381910Y-51254209D01*
X47381910Y-51254210D01*
X47145113Y-51312576D01*
X46920756Y-51408165D01*
X46829247Y-51466032D01*
X46714627Y-51538513D01*
X46714625Y-51538514D01*
X46714623Y-51538516D01*
X46532080Y-51700235D01*
X46377838Y-51889146D01*
X46255900Y-52100350D01*
X46169416Y-52328387D01*
X46120634Y-52567339D01*
X46110814Y-52811016D01*
X46140212Y-53053124D01*
X46208063Y-53287374D01*
X46214795Y-53301562D01*
X46226696Y-53350558D01*
X46218107Y-53400242D01*
X46190447Y-53442398D01*
X42212129Y-57420716D01*
X42207988Y-57424671D01*
X42151322Y-57476330D01*
X42105109Y-57537523D01*
X42101556Y-57542008D01*
X42052573Y-57600998D01*
X42043819Y-57616713D01*
X42034455Y-57631084D01*
X42023613Y-57645443D01*
X42023611Y-57645446D01*
X41989431Y-57714089D01*
X41986760Y-57719155D01*
X41949451Y-57786136D01*
X41943734Y-57803193D01*
X41937166Y-57819049D01*
X41929150Y-57835147D01*
X41908171Y-57908880D01*
X41906477Y-57914349D01*
X41882103Y-57987073D01*
X41879618Y-58004887D01*
X41876076Y-58021681D01*
X41871155Y-58038979D01*
X41864078Y-58115339D01*
X41863418Y-58121023D01*
X41852827Y-58196959D01*
X41852827Y-58196962D01*
X41852827Y-58196963D01*
X41852950Y-58199614D01*
X41856368Y-58273556D01*
X41856500Y-58279282D01*
X41856500Y-65720718D01*
X41856368Y-65726444D01*
X41852827Y-65803039D01*
X40750500Y-65803039D01*
X40750500Y-48000000D01*
X46272310Y-48000000D01*
X46305519Y-48154090D01*
X46392786Y-48371265D01*
X46515508Y-48570578D01*
X46670145Y-48746279D01*
X46852247Y-48893317D01*
X47056588Y-49007469D01*
X47277280Y-49085444D01*
X47507968Y-49125000D01*
X48250000Y-49125000D01*
X48250000Y-48000000D01*
X48750000Y-48000000D01*
X48750000Y-49125000D01*
X49433408Y-49125000D01*
X49608214Y-49110121D01*
X49834724Y-49051143D01*
X50048004Y-48954734D01*
X50241924Y-48823667D01*
X50410906Y-48661711D01*
X50550085Y-48473529D01*
X50655459Y-48264531D01*
X50723997Y-48040731D01*
X50729213Y-48000000D01*
X48750000Y-48000000D01*
X48250000Y-48000000D01*
X46272310Y-48000000D01*
X40750500Y-48000000D01*
X40750500Y-47500000D01*
X46270787Y-47500000D01*
X48250000Y-47500000D01*
X48250000Y-46375000D01*
X48750000Y-46375000D01*
X48750000Y-47500000D01*
X50727690Y-47500000D01*
X50694480Y-47345909D01*
X50607213Y-47128734D01*
X50484491Y-46929421D01*
X50329854Y-46753720D01*
X50147752Y-46606682D01*
X49943411Y-46492530D01*
X49722719Y-46414555D01*
X49492032Y-46375000D01*
X48750000Y-46375000D01*
X48250000Y-46375000D01*
X47566592Y-46375000D01*
X47391785Y-46389878D01*
X47165275Y-46448856D01*
X46951995Y-46545265D01*
X46758075Y-46676332D01*
X46589093Y-46838288D01*
X46449914Y-47026470D01*
X46344540Y-47235468D01*
X46276002Y-47459268D01*
X46270787Y-47500000D01*
X40750500Y-47500000D01*
X40750500Y-38053039D01*
X47852827Y-38053039D01*
X47863418Y-38128974D01*
X47864078Y-38134660D01*
X47871154Y-38211018D01*
X47876073Y-38228305D01*
X47879616Y-38245100D01*
X47882103Y-38262925D01*
X47906479Y-38335653D01*
X47908173Y-38341125D01*
X47929148Y-38414846D01*
X47937163Y-38430942D01*
X47943733Y-38446803D01*
X47949450Y-38463861D01*
X47986769Y-38530861D01*
X47989439Y-38535927D01*
X48023611Y-38604555D01*
X48034451Y-38618909D01*
X48043824Y-38633293D01*
X48052574Y-38649003D01*
X48101561Y-38707996D01*
X48105116Y-38712484D01*
X48151323Y-38773671D01*
X48208011Y-38825349D01*
X48212130Y-38829283D01*
X56836398Y-47453551D01*
X56868821Y-47510394D01*
X56867794Y-47575826D01*
X56832322Y-47697923D01*
X56829487Y-47733949D01*
X56829487Y-49262306D01*
X56832322Y-49298332D01*
X56877117Y-49452519D01*
X56942576Y-49563204D01*
X56958852Y-49590725D01*
X57072389Y-49704262D01*
X57154505Y-49752825D01*
X57210594Y-49785996D01*
X57255535Y-49799053D01*
X57309988Y-49831836D01*
X57341044Y-49887291D01*
X57340545Y-49950849D01*
X57308621Y-50005810D01*
X57138030Y-50176401D01*
X57138027Y-50176404D01*
X57138027Y-50176405D01*
X57067466Y-50277177D01*
X57003991Y-50367828D01*
X56905234Y-50579612D01*
X56844752Y-50805336D01*
X56824385Y-51038127D01*
X56844752Y-51270917D01*
X56905234Y-51496641D01*
X56924761Y-51538516D01*
X57003992Y-51708427D01*
X57138027Y-51899849D01*
X57303265Y-52065087D01*
X57494687Y-52199122D01*
X57494690Y-52199123D01*
X57503574Y-52205344D01*
X57501602Y-52208158D01*
X57539623Y-52241506D01*
X57559040Y-52308127D01*
X57539623Y-52374748D01*
X57501602Y-52408095D01*
X57503574Y-52410910D01*
X57494690Y-52417130D01*
X57494687Y-52417132D01*
X57312264Y-52544866D01*
X57303261Y-52551170D01*
X57138030Y-52716401D01*
X57138027Y-52716404D01*
X57138027Y-52716405D01*
X57057904Y-52830833D01*
X57003991Y-52907828D01*
X56905234Y-53119612D01*
X56844752Y-53345336D01*
X56824385Y-53578127D01*
X56844752Y-53810917D01*
X56905234Y-54036641D01*
X56954693Y-54142706D01*
X57003992Y-54248427D01*
X57138027Y-54439849D01*
X57303265Y-54605087D01*
X57494687Y-54739122D01*
X57494690Y-54739123D01*
X57503574Y-54745344D01*
X57501600Y-54748162D01*
X57539602Y-54781472D01*
X57559040Y-54848087D01*
X57539644Y-54914714D01*
X57501605Y-54948098D01*
X57503574Y-54950910D01*
X57494690Y-54957130D01*
X57494687Y-54957132D01*
X57303265Y-55091167D01*
X57303261Y-55091170D01*
X57138030Y-55256401D01*
X57003991Y-55447828D01*
X56905234Y-55659612D01*
X56844752Y-55885336D01*
X56824385Y-56118126D01*
X56844752Y-56350917D01*
X56850057Y-56370717D01*
X56905234Y-56576640D01*
X57003992Y-56788427D01*
X57138027Y-56979849D01*
X57303265Y-57145087D01*
X57494687Y-57279122D01*
X57494690Y-57279123D01*
X57503574Y-57285344D01*
X57501602Y-57288158D01*
X57539623Y-57321506D01*
X57559040Y-57388127D01*
X57539623Y-57454748D01*
X57501602Y-57488095D01*
X57503574Y-57490910D01*
X57494690Y-57497130D01*
X57494687Y-57497132D01*
X57313181Y-57624224D01*
X57303261Y-57631170D01*
X57138030Y-57796401D01*
X57138027Y-57796404D01*
X57138027Y-57796405D01*
X57004520Y-57987073D01*
X57003991Y-57987828D01*
X56905234Y-58199612D01*
X56844752Y-58425336D01*
X56824385Y-58658126D01*
X56844752Y-58890917D01*
X56844753Y-58890920D01*
X56905234Y-59116640D01*
X57003992Y-59328427D01*
X57138027Y-59519849D01*
X57303265Y-59685087D01*
X57494687Y-59819122D01*
X57494690Y-59819123D01*
X57503574Y-59825344D01*
X57501602Y-59828158D01*
X57539623Y-59861506D01*
X57559040Y-59928127D01*
X57539623Y-59994748D01*
X57501602Y-60028095D01*
X57503574Y-60030910D01*
X57494690Y-60037130D01*
X57494687Y-60037132D01*
X57303265Y-60171167D01*
X57303261Y-60171170D01*
X57138030Y-60336401D01*
X57138027Y-60336404D01*
X57138027Y-60336405D01*
X57025942Y-60496479D01*
X57003991Y-60527828D01*
X56905234Y-60739612D01*
X56844752Y-60965336D01*
X56824385Y-61198126D01*
X56844752Y-61430917D01*
X56905234Y-61656641D01*
X56946106Y-61744291D01*
X57003992Y-61868427D01*
X57138027Y-62059849D01*
X57303265Y-62225087D01*
X57494687Y-62359122D01*
X57494690Y-62359123D01*
X57503574Y-62365344D01*
X57501602Y-62368158D01*
X57539623Y-62401506D01*
X57559040Y-62468127D01*
X57539623Y-62534748D01*
X57501602Y-62568095D01*
X57503574Y-62570910D01*
X57494690Y-62577130D01*
X57494687Y-62577132D01*
X57303265Y-62711167D01*
X57303261Y-62711170D01*
X57138030Y-62876401D01*
X57138027Y-62876404D01*
X57138027Y-62876405D01*
X57024997Y-63037829D01*
X57003991Y-63067828D01*
X56905234Y-63279612D01*
X56844752Y-63505336D01*
X56824385Y-63738127D01*
X56844752Y-63970917D01*
X56905234Y-64196641D01*
X56941684Y-64274808D01*
X57003992Y-64408427D01*
X57138027Y-64599849D01*
X57303265Y-64765087D01*
X57494687Y-64899122D01*
X57494690Y-64899123D01*
X57503574Y-64905344D01*
X57501602Y-64908158D01*
X57539623Y-64941506D01*
X57559040Y-65008127D01*
X57539623Y-65074748D01*
X57501602Y-65108095D01*
X57503574Y-65110910D01*
X57494690Y-65117130D01*
X57494687Y-65117132D01*
X57303265Y-65251167D01*
X57303261Y-65251170D01*
X57138030Y-65416401D01*
X57138027Y-65416404D01*
X57138027Y-65416405D01*
X57052490Y-65538565D01*
X57003991Y-65607828D01*
X56905234Y-65819612D01*
X56844752Y-66045336D01*
X56824385Y-66278127D01*
X56844752Y-66510917D01*
X56905234Y-66736641D01*
X56922901Y-66774527D01*
X57003992Y-66948427D01*
X57138027Y-67139849D01*
X57303265Y-67305087D01*
X57494687Y-67439122D01*
X57494690Y-67439123D01*
X57503574Y-67445344D01*
X57501602Y-67448158D01*
X57539623Y-67481506D01*
X57559040Y-67548127D01*
X57539623Y-67614748D01*
X57501602Y-67648095D01*
X57503574Y-67650910D01*
X57494690Y-67657130D01*
X57494687Y-67657132D01*
X57332712Y-67770548D01*
X57303261Y-67791170D01*
X57138030Y-67956401D01*
X57138027Y-67956404D01*
X57138027Y-67956405D01*
X57130116Y-67967704D01*
X57003991Y-68147828D01*
X56905234Y-68359612D01*
X56844752Y-68585336D01*
X56824385Y-68818126D01*
X56844752Y-69050917D01*
X56844753Y-69050920D01*
X56905234Y-69276640D01*
X57003992Y-69488427D01*
X57138027Y-69679849D01*
X57303265Y-69845087D01*
X57494687Y-69979122D01*
X57494690Y-69979123D01*
X57503574Y-69985344D01*
X57501602Y-69988158D01*
X57539623Y-70021506D01*
X57559040Y-70088127D01*
X57539623Y-70154748D01*
X57501602Y-70188095D01*
X57503574Y-70190910D01*
X57494690Y-70197130D01*
X57494687Y-70197132D01*
X57303265Y-70331167D01*
X57303261Y-70331170D01*
X57138030Y-70496401D01*
X57003991Y-70687828D01*
X56905234Y-70899612D01*
X56844752Y-71125336D01*
X56824385Y-71358127D01*
X56844752Y-71590917D01*
X56844753Y-71590920D01*
X56905234Y-71816640D01*
X57003992Y-72028427D01*
X57138027Y-72219849D01*
X57303265Y-72385087D01*
X57494687Y-72519122D01*
X57494690Y-72519123D01*
X57503574Y-72525344D01*
X57501602Y-72528158D01*
X57539623Y-72561506D01*
X57559040Y-72628127D01*
X57539623Y-72694748D01*
X57501602Y-72728095D01*
X57503574Y-72730910D01*
X57494690Y-72737130D01*
X57494687Y-72737132D01*
X57336297Y-72848038D01*
X57303261Y-72871170D01*
X57138030Y-73036401D01*
X57138027Y-73036404D01*
X57138027Y-73036405D01*
X57021811Y-73202379D01*
X57003991Y-73227828D01*
X56905234Y-73439612D01*
X56844752Y-73665336D01*
X56824385Y-73898127D01*
X56844752Y-74130917D01*
X56905234Y-74356641D01*
X56952956Y-74458980D01*
X57003992Y-74568427D01*
X57138027Y-74759849D01*
X57303265Y-74925087D01*
X57494687Y-75059122D01*
X57494690Y-75059123D01*
X57503574Y-75065344D01*
X57501602Y-75068158D01*
X57539623Y-75101506D01*
X57559040Y-75168127D01*
X57539623Y-75234748D01*
X57501602Y-75268095D01*
X57503574Y-75270910D01*
X57494690Y-75277130D01*
X57494687Y-75277132D01*
X57336297Y-75388038D01*
X57303261Y-75411170D01*
X57138030Y-75576401D01*
X57138027Y-75576404D01*
X57138027Y-75576405D01*
X57087490Y-75648580D01*
X57003991Y-75767828D01*
X56905234Y-75979612D01*
X56844752Y-76205336D01*
X56824385Y-76438127D01*
X56844752Y-76670917D01*
X56905234Y-76896641D01*
X56939365Y-76969834D01*
X57003992Y-77108427D01*
X57138027Y-77299849D01*
X57303265Y-77465087D01*
X57494687Y-77599122D01*
X57494690Y-77599123D01*
X57503574Y-77605344D01*
X57501602Y-77608158D01*
X57539623Y-77641506D01*
X57559040Y-77708127D01*
X57539623Y-77774748D01*
X57501602Y-77808095D01*
X57503574Y-77810910D01*
X57494690Y-77817130D01*
X57494687Y-77817132D01*
X57303265Y-77951167D01*
X57303261Y-77951170D01*
X57138030Y-78116401D01*
X57003991Y-78307828D01*
X56905234Y-78519612D01*
X56844752Y-78745336D01*
X56824385Y-78978127D01*
X56844752Y-79210917D01*
X56894463Y-79396444D01*
X56905234Y-79436640D01*
X57003992Y-79648427D01*
X57138027Y-79839849D01*
X57303265Y-80005087D01*
X57494687Y-80139122D01*
X57647580Y-80210417D01*
X57699326Y-80255504D01*
X57719165Y-80321208D01*
X57701019Y-80387399D01*
X57650447Y-80433799D01*
X57530562Y-80493494D01*
X57353087Y-80627517D01*
X57203265Y-80791864D01*
X57086189Y-80980948D01*
X57005851Y-81188326D01*
X56990935Y-81268127D01*
X59939039Y-81268127D01*
X59924122Y-81188326D01*
X59843784Y-80980948D01*
X59726708Y-80791864D01*
X59576886Y-80627517D01*
X59399409Y-80493492D01*
X59279527Y-80433799D01*
X59228954Y-80387399D01*
X59210808Y-80321208D01*
X59230647Y-80255504D01*
X59282393Y-80210417D01*
X59381589Y-80164161D01*
X59435283Y-80139124D01*
X59435283Y-80139123D01*
X59435287Y-80139122D01*
X59626709Y-80005087D01*
X59791947Y-79839849D01*
X59925982Y-79648428D01*
X60024740Y-79436640D01*
X60085221Y-79210920D01*
X60105588Y-78978127D01*
X60085221Y-78745334D01*
X60024740Y-78519614D01*
X59925982Y-78307827D01*
X59791947Y-78116405D01*
X59626709Y-77951167D01*
X59435287Y-77817132D01*
X59435283Y-77817130D01*
X59426400Y-77810910D01*
X59428372Y-77808093D01*
X59390355Y-77774756D01*
X59370933Y-77708127D01*
X59390355Y-77641498D01*
X59428372Y-77608160D01*
X59426400Y-77605344D01*
X59435283Y-77599123D01*
X59435287Y-77599122D01*
X59626709Y-77465087D01*
X59791947Y-77299849D01*
X59925982Y-77108428D01*
X60024740Y-76896640D01*
X60085221Y-76670920D01*
X60105588Y-76438127D01*
X60085221Y-76205334D01*
X60024740Y-75979614D01*
X59925982Y-75767827D01*
X59791947Y-75576405D01*
X59626709Y-75411167D01*
X59435287Y-75277132D01*
X59435283Y-75277130D01*
X59426400Y-75270910D01*
X59428372Y-75268093D01*
X59390355Y-75234756D01*
X59370933Y-75168127D01*
X59390355Y-75101498D01*
X59428372Y-75068160D01*
X59426400Y-75065344D01*
X59435283Y-75059123D01*
X59435287Y-75059122D01*
X59626709Y-74925087D01*
X59791947Y-74759849D01*
X59925982Y-74568428D01*
X60024740Y-74356640D01*
X60085221Y-74130920D01*
X60105588Y-73898127D01*
X60085221Y-73665334D01*
X60024740Y-73439614D01*
X59925982Y-73227827D01*
X59791947Y-73036405D01*
X59626709Y-72871167D01*
X59435287Y-72737132D01*
X59435283Y-72737130D01*
X59426400Y-72730910D01*
X59428369Y-72728096D01*
X59390333Y-72694721D01*
X59370933Y-72628087D01*
X59390376Y-72561464D01*
X59428374Y-72528164D01*
X59426400Y-72525344D01*
X59435283Y-72519123D01*
X59435287Y-72519122D01*
X59626709Y-72385087D01*
X59791947Y-72219849D01*
X59925982Y-72028428D01*
X60024740Y-71816640D01*
X60085221Y-71590920D01*
X60105588Y-71358127D01*
X60085221Y-71125334D01*
X60024740Y-70899614D01*
X59925982Y-70687827D01*
X59791947Y-70496405D01*
X59626709Y-70331167D01*
X59435287Y-70197132D01*
X59435283Y-70197130D01*
X59426400Y-70190910D01*
X59428372Y-70188093D01*
X59390355Y-70154756D01*
X59370933Y-70088127D01*
X59390355Y-70021498D01*
X59428372Y-69988160D01*
X59426400Y-69985344D01*
X59435283Y-69979123D01*
X59435287Y-69979122D01*
X59626709Y-69845087D01*
X59791947Y-69679849D01*
X59925982Y-69488428D01*
X60024740Y-69276640D01*
X60085221Y-69050920D01*
X60105588Y-68818127D01*
X60085221Y-68585334D01*
X60024740Y-68359614D01*
X59925982Y-68147827D01*
X59791947Y-67956405D01*
X59626709Y-67791167D01*
X59435287Y-67657132D01*
X59435283Y-67657130D01*
X59426400Y-67650910D01*
X59428372Y-67648093D01*
X59390355Y-67614756D01*
X59370933Y-67548127D01*
X59390355Y-67481498D01*
X59428372Y-67448160D01*
X59426400Y-67445344D01*
X59435283Y-67439123D01*
X59435287Y-67439122D01*
X59626709Y-67305087D01*
X59791947Y-67139849D01*
X59925982Y-66948428D01*
X60024740Y-66736640D01*
X60085221Y-66510920D01*
X60105588Y-66278127D01*
X60085221Y-66045334D01*
X60024740Y-65819614D01*
X59925982Y-65607827D01*
X59791947Y-65416405D01*
X59626709Y-65251167D01*
X59435287Y-65117132D01*
X59435283Y-65117130D01*
X59426400Y-65110910D01*
X59428372Y-65108093D01*
X59390355Y-65074756D01*
X59370933Y-65008127D01*
X59390355Y-64941498D01*
X59428372Y-64908160D01*
X59426400Y-64905344D01*
X59435283Y-64899123D01*
X59435287Y-64899122D01*
X59626709Y-64765087D01*
X59791947Y-64599849D01*
X59925982Y-64408428D01*
X60024740Y-64196640D01*
X60085221Y-63970920D01*
X60105588Y-63738127D01*
X60085221Y-63505334D01*
X60024740Y-63279614D01*
X59925982Y-63067827D01*
X59791947Y-62876405D01*
X59626709Y-62711167D01*
X59435287Y-62577132D01*
X59435283Y-62577130D01*
X59426400Y-62570910D01*
X59428372Y-62568093D01*
X59390355Y-62534756D01*
X59370933Y-62468127D01*
X59390355Y-62401498D01*
X59428372Y-62368160D01*
X59426400Y-62365344D01*
X59435283Y-62359123D01*
X59435287Y-62359122D01*
X59626709Y-62225087D01*
X59791947Y-62059849D01*
X59925982Y-61868428D01*
X60024740Y-61656640D01*
X60085221Y-61430920D01*
X60105588Y-61198127D01*
X60085221Y-60965334D01*
X60024740Y-60739614D01*
X59925982Y-60527827D01*
X59791947Y-60336405D01*
X59626709Y-60171167D01*
X59435287Y-60037132D01*
X59435283Y-60037130D01*
X59426400Y-60030910D01*
X59428372Y-60028093D01*
X59390355Y-59994756D01*
X59370933Y-59928127D01*
X59390355Y-59861498D01*
X59428372Y-59828160D01*
X59426400Y-59825344D01*
X59435283Y-59819123D01*
X59435287Y-59819122D01*
X59626709Y-59685087D01*
X59791947Y-59519849D01*
X59925982Y-59328428D01*
X60024740Y-59116640D01*
X60085221Y-58890920D01*
X60105588Y-58658127D01*
X60085221Y-58425334D01*
X60024740Y-58199614D01*
X59925982Y-57987827D01*
X59791947Y-57796405D01*
X59626709Y-57631167D01*
X59435287Y-57497132D01*
X59435283Y-57497130D01*
X59426400Y-57490910D01*
X59428372Y-57488093D01*
X59390355Y-57454756D01*
X59370933Y-57388127D01*
X59390355Y-57321498D01*
X59428372Y-57288160D01*
X59426400Y-57285344D01*
X59435283Y-57279123D01*
X59435287Y-57279122D01*
X59626709Y-57145087D01*
X59791947Y-56979849D01*
X59925982Y-56788428D01*
X60024740Y-56576640D01*
X60085221Y-56350920D01*
X60105588Y-56118127D01*
X60085221Y-55885334D01*
X60024740Y-55659614D01*
X59925982Y-55447827D01*
X59791947Y-55256405D01*
X59626709Y-55091167D01*
X59435287Y-54957132D01*
X59435283Y-54957130D01*
X59426400Y-54950910D01*
X59428372Y-54948093D01*
X59390355Y-54914756D01*
X59370933Y-54848127D01*
X59390355Y-54781498D01*
X59428372Y-54748160D01*
X59426400Y-54745344D01*
X59435283Y-54739123D01*
X59435287Y-54739122D01*
X59626709Y-54605087D01*
X59791947Y-54439849D01*
X59925982Y-54248428D01*
X60024740Y-54036640D01*
X60085221Y-53810920D01*
X60105588Y-53578127D01*
X60085221Y-53345334D01*
X60024740Y-53119614D01*
X59925982Y-52907827D01*
X59791947Y-52716405D01*
X59626709Y-52551167D01*
X59435287Y-52417132D01*
X59435283Y-52417130D01*
X59426400Y-52410910D01*
X59428372Y-52408093D01*
X59390355Y-52374756D01*
X59370933Y-52308127D01*
X59390355Y-52241498D01*
X59428372Y-52208160D01*
X59426400Y-52205344D01*
X59435283Y-52199123D01*
X59435287Y-52199122D01*
X59626709Y-52065087D01*
X59791947Y-51899849D01*
X59925982Y-51708428D01*
X60024740Y-51496640D01*
X60085221Y-51270920D01*
X60105588Y-51038127D01*
X60085221Y-50805334D01*
X60024740Y-50579614D01*
X59925982Y-50367827D01*
X59791947Y-50176405D01*
X59626709Y-50011167D01*
X59621352Y-50005810D01*
X59589428Y-49950849D01*
X59588929Y-49887291D01*
X59619986Y-49831836D01*
X59674437Y-49799053D01*
X59719380Y-49785996D01*
X59857585Y-49704262D01*
X59971122Y-49590725D01*
X60052856Y-49452520D01*
X60097652Y-49298331D01*
X60100487Y-49262308D01*
X60100486Y-47733947D01*
X60097652Y-47697923D01*
X60052856Y-47543734D01*
X59971122Y-47405529D01*
X59857585Y-47291992D01*
X59719380Y-47210258D01*
X59719379Y-47210257D01*
X59719378Y-47210257D01*
X59634854Y-47185700D01*
X59581524Y-47154061D01*
X59550182Y-47100557D01*
X59535837Y-47050137D01*
X59527822Y-47034041D01*
X59521251Y-47018178D01*
X59515536Y-47001126D01*
X59515536Y-47001125D01*
X59478215Y-46934124D01*
X59475549Y-46929064D01*
X59441376Y-46860432D01*
X59430540Y-46846084D01*
X59421165Y-46831696D01*
X59412416Y-46815989D01*
X59363424Y-46756990D01*
X59359868Y-46752500D01*
X59358639Y-46750873D01*
X59326639Y-46708497D01*
X59313663Y-46691314D01*
X59256997Y-46639657D01*
X59252854Y-46635701D01*
X50179819Y-37562666D01*
X50152939Y-37522438D01*
X50143500Y-37474985D01*
X50143500Y-35300000D01*
X51421128Y-35300000D01*
X51473733Y-35496326D01*
X51569865Y-35702480D01*
X51700341Y-35888819D01*
X51861180Y-36049658D01*
X52047519Y-36180134D01*
X52253673Y-36276266D01*
X52473397Y-36335141D01*
X52643235Y-36350000D01*
X53150000Y-36350000D01*
X53150000Y-35300000D01*
X53650000Y-35300000D01*
X53650000Y-36350000D01*
X54156765Y-36350000D01*
X54326602Y-36335141D01*
X54546326Y-36276266D01*
X54752480Y-36180134D01*
X54938819Y-36049658D01*
X55099658Y-35888819D01*
X55230134Y-35702480D01*
X55326266Y-35496326D01*
X55378872Y-35300000D01*
X53650000Y-35300000D01*
X53150000Y-35300000D01*
X51421128Y-35300000D01*
X50143500Y-35300000D01*
X50143500Y-33757500D01*
X50160113Y-33695500D01*
X50205500Y-33650113D01*
X50267500Y-33633500D01*
X50831132Y-33633500D01*
X50936868Y-33633500D01*
X51788776Y-33633500D01*
X51824158Y-33638655D01*
X51856596Y-33653690D01*
X51962540Y-33722907D01*
X51998568Y-33746445D01*
X52039323Y-33790362D01*
X52054730Y-33848261D01*
X52041192Y-33906625D01*
X52001870Y-33951829D01*
X51861180Y-34050341D01*
X51700341Y-34211180D01*
X51569865Y-34397519D01*
X51473733Y-34603673D01*
X51421128Y-34799999D01*
X51421128Y-34800000D01*
X55378872Y-34800000D01*
X55378871Y-34799999D01*
X55326266Y-34603673D01*
X55230134Y-34397519D01*
X55099658Y-34211180D01*
X54938816Y-34050338D01*
X54798130Y-33951829D01*
X54758807Y-33906625D01*
X54745269Y-33848261D01*
X54760676Y-33790362D01*
X54801429Y-33746446D01*
X54984724Y-33626694D01*
X55159751Y-33465570D01*
X55305871Y-33277835D01*
X55419098Y-33068610D01*
X55496344Y-32843602D01*
X55535500Y-32608949D01*
X55535500Y-32371051D01*
X55496344Y-32136398D01*
X55419098Y-31911390D01*
X55305871Y-31702165D01*
X55305868Y-31702161D01*
X55305867Y-31702159D01*
X55159753Y-31514433D01*
X55159751Y-31514430D01*
X54984724Y-31353306D01*
X54984721Y-31353304D01*
X54984720Y-31353303D01*
X54785565Y-31223188D01*
X54567706Y-31127627D01*
X54567704Y-31127626D01*
X54538399Y-31120204D01*
X54481888Y-31088403D01*
X54449155Y-31032424D01*
X54449155Y-30967576D01*
X54481888Y-30911597D01*
X54538399Y-30879795D01*
X54567704Y-30872374D01*
X54785564Y-30776812D01*
X54984724Y-30646694D01*
X55159751Y-30485570D01*
X55189510Y-30447335D01*
X55232900Y-30412100D01*
X55287361Y-30399500D01*
X83340195Y-30399500D01*
X83387648Y-30408939D01*
X83427876Y-30435819D01*
X86574181Y-33582124D01*
X86601061Y-33622352D01*
X86610500Y-33669805D01*
X86610500Y-50431309D01*
X86601061Y-50478762D01*
X86574181Y-50518990D01*
X85689090Y-51404079D01*
X85633502Y-51436173D01*
X85569314Y-51436172D01*
X85513726Y-51404077D01*
X85481633Y-51348488D01*
X85481634Y-51284303D01*
X85485221Y-51270920D01*
X85490123Y-51214899D01*
X85505588Y-51038127D01*
X85485221Y-50805336D01*
X85485221Y-50805334D01*
X85424740Y-50579614D01*
X85325982Y-50367827D01*
X85191947Y-50176405D01*
X85026709Y-50011167D01*
X84835287Y-49877132D01*
X84726788Y-49826538D01*
X84682393Y-49805836D01*
X84630647Y-49760748D01*
X84610808Y-49695045D01*
X84628955Y-49628853D01*
X84679527Y-49582453D01*
X84799413Y-49522757D01*
X84976886Y-49388736D01*
X85126708Y-49224389D01*
X85243784Y-49035305D01*
X85324122Y-48827927D01*
X85339039Y-48748127D01*
X83738987Y-48748127D01*
X83676987Y-48731514D01*
X83631600Y-48686127D01*
X83614987Y-48624127D01*
X83614987Y-47298127D01*
X84114987Y-47298127D01*
X84114987Y-48248127D01*
X85339039Y-48248127D01*
X85324122Y-48168326D01*
X85243784Y-47960948D01*
X85126708Y-47771864D01*
X84976886Y-47607517D01*
X84799409Y-47473492D01*
X84600334Y-47374365D01*
X84386432Y-47313505D01*
X84220468Y-47298127D01*
X84114987Y-47298127D01*
X83614987Y-47298127D01*
X83509506Y-47298127D01*
X83343541Y-47313505D01*
X83129639Y-47374365D01*
X82930564Y-47473492D01*
X82753090Y-47607515D01*
X82686387Y-47680685D01*
X82637370Y-47713591D01*
X82578693Y-47720102D01*
X82523656Y-47698741D01*
X82484734Y-47654351D01*
X82470751Y-47596999D01*
X82478307Y-41435007D01*
X60395107Y-41435007D01*
X60414987Y-52298127D01*
X82464987Y-52298127D01*
X82465197Y-52126226D01*
X82478767Y-52069978D01*
X82516385Y-52026009D01*
X82569859Y-52003898D01*
X82627544Y-52008459D01*
X82676878Y-52038700D01*
X82703265Y-52065087D01*
X82894687Y-52199122D01*
X82894690Y-52199123D01*
X82903574Y-52205344D01*
X82901602Y-52208158D01*
X82939623Y-52241506D01*
X82959040Y-52308127D01*
X82939623Y-52374748D01*
X82901602Y-52408095D01*
X82903574Y-52410910D01*
X82894690Y-52417130D01*
X82894687Y-52417132D01*
X82712264Y-52544866D01*
X82703261Y-52551170D01*
X82538030Y-52716401D01*
X82538027Y-52716404D01*
X82538027Y-52716405D01*
X82457904Y-52830833D01*
X82403991Y-52907828D01*
X82305234Y-53119612D01*
X82244752Y-53345336D01*
X82224385Y-53578127D01*
X82244752Y-53810917D01*
X82305234Y-54036641D01*
X82354693Y-54142706D01*
X82403992Y-54248427D01*
X82538027Y-54439849D01*
X82703265Y-54605087D01*
X82894687Y-54739122D01*
X82894690Y-54739123D01*
X82903574Y-54745344D01*
X82901600Y-54748162D01*
X82939602Y-54781472D01*
X82959040Y-54848087D01*
X82939644Y-54914714D01*
X82901605Y-54948098D01*
X82903574Y-54950910D01*
X82894690Y-54957130D01*
X82894687Y-54957132D01*
X82703265Y-55091167D01*
X82703261Y-55091170D01*
X82538030Y-55256401D01*
X82403991Y-55447828D01*
X82305234Y-55659612D01*
X82244752Y-55885336D01*
X82224385Y-56118127D01*
X82244752Y-56350917D01*
X82250057Y-56370717D01*
X82305234Y-56576640D01*
X82403992Y-56788427D01*
X82538027Y-56979849D01*
X82703265Y-57145087D01*
X82894687Y-57279122D01*
X82894690Y-57279123D01*
X82903574Y-57285344D01*
X82901602Y-57288158D01*
X82939623Y-57321506D01*
X82959040Y-57388127D01*
X82939623Y-57454748D01*
X82901602Y-57488095D01*
X82903574Y-57490910D01*
X82894690Y-57497130D01*
X82894687Y-57497132D01*
X82713181Y-57624224D01*
X82703261Y-57631170D01*
X82538030Y-57796401D01*
X82538027Y-57796404D01*
X82538027Y-57796405D01*
X82404520Y-57987073D01*
X82403991Y-57987828D01*
X82305234Y-58199612D01*
X82244752Y-58425336D01*
X82224385Y-58658127D01*
X82244752Y-58890917D01*
X82244753Y-58890920D01*
X82305234Y-59116640D01*
X82403992Y-59328427D01*
X82538027Y-59519849D01*
X82703265Y-59685087D01*
X82894687Y-59819122D01*
X82894690Y-59819123D01*
X82903574Y-59825344D01*
X82901602Y-59828158D01*
X82939623Y-59861506D01*
X82959040Y-59928127D01*
X82939623Y-59994748D01*
X82901602Y-60028095D01*
X82903574Y-60030910D01*
X82894690Y-60037130D01*
X82894687Y-60037132D01*
X82703265Y-60171167D01*
X82703261Y-60171170D01*
X82538030Y-60336401D01*
X82538027Y-60336404D01*
X82538027Y-60336405D01*
X82425942Y-60496479D01*
X82403991Y-60527828D01*
X82305234Y-60739612D01*
X82244752Y-60965336D01*
X82224385Y-61198127D01*
X82244752Y-61430917D01*
X82305234Y-61656641D01*
X82346106Y-61744291D01*
X82403992Y-61868427D01*
X82538027Y-62059849D01*
X82703265Y-62225087D01*
X82894687Y-62359122D01*
X83047580Y-62430417D01*
X83099326Y-62475504D01*
X83119165Y-62541208D01*
X83101019Y-62607399D01*
X83050447Y-62653799D01*
X82930562Y-62713494D01*
X82753087Y-62847517D01*
X82603265Y-63011864D01*
X82486189Y-63200948D01*
X82405851Y-63408326D01*
X82390935Y-63488127D01*
X85339039Y-63488127D01*
X85324122Y-63408326D01*
X85243784Y-63200948D01*
X85126708Y-63011864D01*
X84976886Y-62847517D01*
X84799409Y-62713492D01*
X84679527Y-62653799D01*
X84628954Y-62607399D01*
X84610808Y-62541208D01*
X84630647Y-62475504D01*
X84682393Y-62430417D01*
X84835287Y-62359122D01*
X85026709Y-62225087D01*
X85178651Y-62073145D01*
X85218879Y-62046266D01*
X85266332Y-62036827D01*
X85762754Y-62036827D01*
X85772817Y-62037236D01*
X85824718Y-62041462D01*
X85902219Y-62030902D01*
X85905474Y-62030503D01*
X85983232Y-62022048D01*
X85983232Y-62022047D01*
X85983479Y-62022021D01*
X86005237Y-62016921D01*
X86005471Y-62016834D01*
X86005477Y-62016834D01*
X86078957Y-61989838D01*
X86081912Y-61988797D01*
X86156110Y-61963798D01*
X86156116Y-61963793D01*
X86156354Y-61963714D01*
X86176506Y-61954057D01*
X86176709Y-61953927D01*
X86176715Y-61953925D01*
X86242671Y-61911764D01*
X86245387Y-61910080D01*
X86312425Y-61869747D01*
X86312428Y-61869744D01*
X86312641Y-61869616D01*
X86330252Y-61855848D01*
X86330425Y-61855675D01*
X86385735Y-61800363D01*
X86388066Y-61798094D01*
X86444867Y-61744291D01*
X86444867Y-61744290D01*
X86445043Y-61744124D01*
X86459640Y-61726458D01*
X91815394Y-56370705D01*
X91822789Y-56363889D01*
X91862480Y-56330176D01*
X91862482Y-56330174D01*
X91909797Y-56267930D01*
X91911825Y-56265336D01*
X91960840Y-56204360D01*
X91960842Y-56204354D01*
X91960995Y-56204165D01*
X91972778Y-56185169D01*
X91972880Y-56184947D01*
X91972883Y-56184944D01*
X92005740Y-56113923D01*
X92007140Y-56111003D01*
X92041894Y-56040928D01*
X92041894Y-56040925D01*
X92042007Y-56040699D01*
X92049430Y-56019614D01*
X92049481Y-56019380D01*
X92049483Y-56019377D01*
X92066310Y-55942926D01*
X92067036Y-55939826D01*
X92085922Y-55863892D01*
X92085922Y-55863888D01*
X92085982Y-55863648D01*
X92088700Y-55841462D01*
X92088700Y-55763039D01*
X92088745Y-55759681D01*
X92088760Y-55759120D01*
X92090862Y-55681531D01*
X92090861Y-55681527D01*
X92090868Y-55681283D01*
X92088700Y-55658475D01*
X92088700Y-32789122D01*
X92089109Y-32779060D01*
X92089248Y-32777343D01*
X92093335Y-32727155D01*
X92082780Y-32649687D01*
X92082374Y-32646367D01*
X92081148Y-32635092D01*
X92073921Y-32568641D01*
X92073919Y-32568637D01*
X92073894Y-32568400D01*
X92068792Y-32546629D01*
X92068708Y-32546402D01*
X92068708Y-32546397D01*
X92041745Y-32473005D01*
X92040630Y-32469838D01*
X92038914Y-32464747D01*
X92015671Y-32395763D01*
X92015668Y-32395758D01*
X92015590Y-32395526D01*
X92005934Y-32375372D01*
X92003172Y-32371051D01*
X91963657Y-32309230D01*
X91961947Y-32306474D01*
X91921620Y-32239448D01*
X91921619Y-32239447D01*
X91921490Y-32239232D01*
X91907722Y-32221621D01*
X91852254Y-32166153D01*
X91849911Y-32163746D01*
X91796164Y-32107006D01*
X91796162Y-32107005D01*
X91795995Y-32106828D01*
X91778331Y-32092230D01*
X86070715Y-26384614D01*
X86063888Y-26377209D01*
X86030173Y-26337517D01*
X85967966Y-26290228D01*
X85965322Y-26288161D01*
X85904174Y-26239010D01*
X85885168Y-26227221D01*
X85884945Y-26227117D01*
X85884944Y-26227117D01*
X85813984Y-26194286D01*
X85810984Y-26192849D01*
X85740708Y-26157996D01*
X85719614Y-26150569D01*
X85643020Y-26133709D01*
X85639753Y-26132943D01*
X85563651Y-26114018D01*
X85541456Y-26111300D01*
X85541214Y-26111300D01*
X85463039Y-26111300D01*
X85459681Y-26111255D01*
X85381283Y-26109131D01*
X85358475Y-26111300D01*
X55038201Y-26111300D01*
X54976935Y-26095108D01*
X54931670Y-26050760D01*
X54904886Y-26005797D01*
X54790988Y-25892620D01*
X54652525Y-25811325D01*
X54615161Y-25798732D01*
X54615160Y-25798731D01*
X54615158Y-25798731D01*
X52490576Y-25267585D01*
X52490575Y-25267584D01*
X52490568Y-25267583D01*
X52458259Y-25262103D01*
X52297787Y-25267657D01*
X52143740Y-25312942D01*
X52005798Y-25395112D01*
X51892620Y-25509011D01*
X51811328Y-25647471D01*
X51811327Y-25647473D01*
X51811327Y-25647474D01*
X51807261Y-25661638D01*
X51767019Y-25801807D01*
X51764499Y-25834488D01*
X51764499Y-28065505D01*
X51767019Y-28098193D01*
X51777579Y-28134976D01*
X51811326Y-28252526D01*
X51811327Y-28252527D01*
X51815649Y-28267582D01*
X51814650Y-28267868D01*
X51824785Y-28300102D01*
X51816586Y-28355132D01*
X51785149Y-28401038D01*
X51640249Y-28534429D01*
X51494132Y-28722159D01*
X51380900Y-28931394D01*
X51303656Y-29156395D01*
X51264500Y-29391051D01*
X51264500Y-29628949D01*
X51303656Y-29863604D01*
X51380900Y-30088605D01*
X51380902Y-30088610D01*
X51494129Y-30297835D01*
X51494132Y-30297840D01*
X51583065Y-30412100D01*
X51640249Y-30485570D01*
X51815276Y-30646694D01*
X52014436Y-30776812D01*
X52232296Y-30872374D01*
X52248150Y-30876388D01*
X52261599Y-30879795D01*
X52318112Y-30911597D01*
X52350844Y-30967577D01*
X52350844Y-31032423D01*
X52318112Y-31088403D01*
X52261599Y-31120205D01*
X52232298Y-31127625D01*
X52014438Y-31223186D01*
X51856598Y-31326309D01*
X51824158Y-31341345D01*
X51788776Y-31346500D01*
X50936868Y-31346500D01*
X50267500Y-31346500D01*
X50205500Y-31329887D01*
X50160113Y-31284500D01*
X50143500Y-31222500D01*
X50143500Y-26525015D01*
X50152939Y-26477562D01*
X50179819Y-26437334D01*
X51937334Y-24679819D01*
X51977562Y-24652939D01*
X52025015Y-24643500D01*
X106387505Y-24643500D01*
X106434958Y-24652939D01*
X106475186Y-24679819D01*
X113891547Y-32096180D01*
X113899549Y-32103475D01*
X116061145Y-34265071D01*
X116086074Y-34300838D01*
X116097082Y-34343022D01*
X116103496Y-34424519D01*
X116158999Y-34655707D01*
X116249986Y-34875367D01*
X116374215Y-35078089D01*
X116427304Y-35140250D01*
X116449349Y-35177862D01*
X116457013Y-35220780D01*
X116457013Y-47328700D01*
X116447574Y-47376153D01*
X116408999Y-47469278D01*
X116353496Y-47700466D01*
X116334842Y-47937493D01*
X116353496Y-48174519D01*
X116408999Y-48405707D01*
X116447574Y-48498833D01*
X116457013Y-48546286D01*
X116457013Y-61328700D01*
X116447574Y-61376153D01*
X116408999Y-61469278D01*
X116353496Y-61700466D01*
X116334842Y-61937493D01*
X116353496Y-62174519D01*
X116408999Y-62405707D01*
X116447574Y-62498833D01*
X116457013Y-62546286D01*
X116457013Y-75002497D01*
X116438740Y-75067286D01*
X116417776Y-75101497D01*
X116349987Y-75212118D01*
X116258999Y-75431778D01*
X116203496Y-75662966D01*
X116184842Y-75899993D01*
X116203496Y-76137019D01*
X116258999Y-76368207D01*
X116316376Y-76506725D01*
X116349986Y-76587866D01*
X116349987Y-76587867D01*
X116438740Y-76732699D01*
X116457013Y-76797489D01*
X116457013Y-88520711D01*
X116456881Y-88526437D01*
X116453341Y-88603009D01*
X116455445Y-88618092D01*
X116453741Y-88653199D01*
X116454262Y-88653240D01*
X116453496Y-88662965D01*
X116453497Y-88662966D01*
X116434842Y-88899993D01*
X116453496Y-89137019D01*
X116508999Y-89368207D01*
X116566376Y-89506725D01*
X116599986Y-89587866D01*
X116678481Y-89715958D01*
X116724215Y-89790590D01*
X116878624Y-89971381D01*
X117059415Y-90125790D01*
X117059417Y-90125791D01*
X117059418Y-90125792D01*
X117262140Y-90250020D01*
X117402502Y-90308160D01*
X117481798Y-90341006D01*
X117532982Y-90353294D01*
X117712988Y-90396510D01*
X117950013Y-90415164D01*
X118187038Y-90396510D01*
X118418227Y-90341006D01*
X118637886Y-90250020D01*
X118840608Y-90125792D01*
X119021401Y-89971381D01*
X119175812Y-89790588D01*
X119300040Y-89587866D01*
X119391026Y-89368207D01*
X119446530Y-89137018D01*
X119465184Y-88899993D01*
X119446530Y-88662968D01*
X119399681Y-88467828D01*
X119391026Y-88431778D01*
X119367259Y-88374401D01*
X119300040Y-88212120D01*
X119175812Y-88009398D01*
X119175811Y-88009397D01*
X119175810Y-88009395D01*
X119021401Y-87828604D01*
X118840612Y-87674197D01*
X118840610Y-87674195D01*
X118840608Y-87674194D01*
X118802222Y-87650671D01*
X118758823Y-87605533D01*
X118743013Y-87544944D01*
X118743013Y-82829026D01*
X119604526Y-82829026D01*
X119677515Y-82880133D01*
X119883673Y-82976266D01*
X120103397Y-83035141D01*
X120330000Y-83054966D01*
X120556602Y-83035141D01*
X120776326Y-82976266D01*
X120982480Y-82880134D01*
X121055472Y-82829025D01*
X120330001Y-82103553D01*
X120330000Y-82103553D01*
X119604526Y-82829025D01*
X119604526Y-82829026D01*
X118743013Y-82829026D01*
X118743013Y-81749999D01*
X119025033Y-81749999D01*
X119044858Y-81976602D01*
X119103733Y-82196326D01*
X119199866Y-82402484D01*
X119250972Y-82475471D01*
X119250974Y-82475472D01*
X119976446Y-81750001D01*
X119976446Y-81750000D01*
X119976445Y-81749999D01*
X120683553Y-81749999D01*
X121409025Y-82475472D01*
X121460134Y-82402480D01*
X121556266Y-82196326D01*
X121615141Y-81976602D01*
X121634966Y-81749999D01*
X121615141Y-81523397D01*
X121556266Y-81303673D01*
X121460133Y-81097515D01*
X121409025Y-81024526D01*
X120683553Y-81749998D01*
X120683553Y-81749999D01*
X119976445Y-81749999D01*
X119250973Y-81024526D01*
X119250973Y-81024527D01*
X119199865Y-81097516D01*
X119103733Y-81303672D01*
X119044858Y-81523397D01*
X119025033Y-81749999D01*
X118743013Y-81749999D01*
X118743013Y-80670973D01*
X119604526Y-80670973D01*
X120329998Y-81396446D01*
X120329999Y-81396446D01*
X121055472Y-80670973D01*
X121055471Y-80670972D01*
X120982484Y-80619866D01*
X120776326Y-80523733D01*
X120556602Y-80464858D01*
X120330000Y-80445033D01*
X120103397Y-80464858D01*
X119883672Y-80523733D01*
X119677516Y-80619865D01*
X119604526Y-80670973D01*
X118743013Y-80670973D01*
X118743013Y-77050365D01*
X118750677Y-77007447D01*
X118772722Y-76969834D01*
X118803942Y-76933280D01*
X118925812Y-76790588D01*
X119050040Y-76587866D01*
X119141026Y-76368207D01*
X119196530Y-76137018D01*
X119215184Y-75899993D01*
X119196530Y-75662968D01*
X119141026Y-75431779D01*
X119139462Y-75428004D01*
X119105113Y-75345078D01*
X119050040Y-75212120D01*
X118925812Y-75009398D01*
X118772721Y-74830151D01*
X118750677Y-74792539D01*
X118743013Y-74749621D01*
X118743013Y-68579026D01*
X119604526Y-68579026D01*
X119677515Y-68630133D01*
X119883673Y-68726266D01*
X120103397Y-68785141D01*
X120330000Y-68804966D01*
X120556602Y-68785141D01*
X120776326Y-68726266D01*
X120982480Y-68630134D01*
X121055472Y-68579025D01*
X120330001Y-67853553D01*
X120330000Y-67853553D01*
X119604526Y-68579025D01*
X119604526Y-68579026D01*
X118743013Y-68579026D01*
X118743013Y-67500000D01*
X119025033Y-67500000D01*
X119044858Y-67726602D01*
X119103733Y-67946326D01*
X119199866Y-68152484D01*
X119250972Y-68225471D01*
X119250973Y-68225472D01*
X119976446Y-67500000D01*
X119976446Y-67499999D01*
X120683553Y-67499999D01*
X121409025Y-68225472D01*
X121460134Y-68152480D01*
X121556266Y-67946326D01*
X121615141Y-67726602D01*
X121634966Y-67500000D01*
X121615141Y-67273397D01*
X121556266Y-67053673D01*
X121460133Y-66847515D01*
X121409025Y-66774526D01*
X120683553Y-67499998D01*
X120683553Y-67499999D01*
X119976446Y-67499999D01*
X119976446Y-67499998D01*
X119250973Y-66774527D01*
X119199865Y-66847516D01*
X119103733Y-67053672D01*
X119044858Y-67273397D01*
X119025033Y-67500000D01*
X118743013Y-67500000D01*
X118743013Y-66420973D01*
X119604526Y-66420973D01*
X120330000Y-67146446D01*
X120330001Y-67146446D01*
X121055472Y-66420974D01*
X121055471Y-66420972D01*
X120982484Y-66369866D01*
X120776326Y-66273733D01*
X120556602Y-66214858D01*
X120330000Y-66195033D01*
X120103397Y-66214858D01*
X119883672Y-66273733D01*
X119677516Y-66369865D01*
X119604527Y-66420973D01*
X119604526Y-66420973D01*
X118743013Y-66420973D01*
X118743013Y-63218403D01*
X118754403Y-63166489D01*
X118786481Y-63124113D01*
X118794834Y-63116979D01*
X118921401Y-63008881D01*
X119075812Y-62828088D01*
X119200040Y-62625366D01*
X119291026Y-62405707D01*
X119346530Y-62174518D01*
X119365184Y-61937493D01*
X119346530Y-61700468D01*
X119291026Y-61469279D01*
X119200040Y-61249620D01*
X119075812Y-61046898D01*
X119075811Y-61046897D01*
X119075810Y-61046895D01*
X118957064Y-60907861D01*
X118921401Y-60866105D01*
X118786480Y-60750872D01*
X118754403Y-60708497D01*
X118743013Y-60656583D01*
X118743013Y-54754026D01*
X119854526Y-54754026D01*
X119927515Y-54805133D01*
X120133673Y-54901266D01*
X120353397Y-54960141D01*
X120580000Y-54979966D01*
X120806602Y-54960141D01*
X121026326Y-54901266D01*
X121232480Y-54805134D01*
X121305472Y-54754025D01*
X120580001Y-54028553D01*
X120580000Y-54028553D01*
X119854526Y-54754025D01*
X119854526Y-54754026D01*
X118743013Y-54754026D01*
X118743013Y-53674999D01*
X119275033Y-53674999D01*
X119294858Y-53901602D01*
X119353733Y-54121326D01*
X119449866Y-54327484D01*
X119500972Y-54400471D01*
X119500974Y-54400472D01*
X120226446Y-53675001D01*
X120933553Y-53675001D01*
X121659025Y-54400472D01*
X121710134Y-54327480D01*
X121806266Y-54121326D01*
X121865141Y-53901602D01*
X121884966Y-53674999D01*
X121865141Y-53448397D01*
X121806266Y-53228673D01*
X121710133Y-53022515D01*
X121659025Y-52949526D01*
X120933553Y-53675000D01*
X120933553Y-53675001D01*
X120226446Y-53675001D01*
X120226446Y-53675000D01*
X119500973Y-52949526D01*
X119500973Y-52949527D01*
X119449865Y-53022516D01*
X119353733Y-53228672D01*
X119294858Y-53448397D01*
X119275033Y-53674999D01*
X118743013Y-53674999D01*
X118743013Y-52595973D01*
X119854526Y-52595973D01*
X120580000Y-53321446D01*
X120580001Y-53321446D01*
X121305472Y-52595974D01*
X121305471Y-52595972D01*
X121232484Y-52544866D01*
X121026326Y-52448733D01*
X120806602Y-52389858D01*
X120580000Y-52370033D01*
X120353397Y-52389858D01*
X120133672Y-52448733D01*
X119927516Y-52544865D01*
X119854527Y-52595973D01*
X119854526Y-52595973D01*
X118743013Y-52595973D01*
X118743013Y-49218403D01*
X118754403Y-49166489D01*
X118786481Y-49124113D01*
X118921401Y-49008881D01*
X119075812Y-48828088D01*
X119200040Y-48625366D01*
X119291026Y-48405707D01*
X119346530Y-48174518D01*
X119365184Y-47937493D01*
X119346530Y-47700468D01*
X119298402Y-47500000D01*
X119291026Y-47469278D01*
X119232796Y-47328700D01*
X119200040Y-47249620D01*
X119075812Y-47046898D01*
X119075811Y-47046897D01*
X119075810Y-47046895D01*
X118975173Y-46929064D01*
X118921401Y-46866105D01*
X118786480Y-46750872D01*
X118754403Y-46708497D01*
X118743013Y-46656583D01*
X118743013Y-41329026D01*
X119354526Y-41329026D01*
X119427515Y-41380133D01*
X119633673Y-41476266D01*
X119853397Y-41535141D01*
X120080000Y-41554966D01*
X120306602Y-41535141D01*
X120526326Y-41476266D01*
X120732480Y-41380134D01*
X120805472Y-41329025D01*
X120080001Y-40603553D01*
X120080000Y-40603553D01*
X119354526Y-41329025D01*
X119354526Y-41329026D01*
X118743013Y-41329026D01*
X118743013Y-41000344D01*
X118758560Y-40940228D01*
X118801303Y-40895186D01*
X118860524Y-40876514D01*
X118921371Y-40888894D01*
X118968588Y-40929221D01*
X119000972Y-40975471D01*
X119000974Y-40975472D01*
X119726446Y-40250001D01*
X119726446Y-40250000D01*
X119726445Y-40249999D01*
X120433553Y-40249999D01*
X121159025Y-40975472D01*
X121210134Y-40902480D01*
X121306266Y-40696326D01*
X121365141Y-40476602D01*
X121384966Y-40249999D01*
X121365141Y-40023397D01*
X121306266Y-39803673D01*
X121210133Y-39597515D01*
X121159025Y-39524526D01*
X120433553Y-40249998D01*
X120433553Y-40249999D01*
X119726445Y-40249999D01*
X119000973Y-39524526D01*
X119000972Y-39524527D01*
X118968588Y-39570778D01*
X118921371Y-39611105D01*
X118860524Y-39623485D01*
X118801303Y-39604813D01*
X118758560Y-39559771D01*
X118743013Y-39499655D01*
X118743013Y-39170973D01*
X119354526Y-39170973D01*
X120080000Y-39896446D01*
X120080001Y-39896446D01*
X120805472Y-39170974D01*
X120805471Y-39170972D01*
X120732484Y-39119866D01*
X120526326Y-39023733D01*
X120306602Y-38964858D01*
X120080000Y-38945033D01*
X119853397Y-38964858D01*
X119633672Y-39023733D01*
X119427516Y-39119865D01*
X119354527Y-39170973D01*
X119354526Y-39170973D01*
X118743013Y-39170973D01*
X118743013Y-35220780D01*
X118750677Y-35177862D01*
X118772722Y-35140250D01*
X118796231Y-35112722D01*
X118825812Y-35078088D01*
X118950040Y-34875366D01*
X119041026Y-34655707D01*
X119096530Y-34424518D01*
X119115184Y-34187493D01*
X119096530Y-33950468D01*
X119041026Y-33719279D01*
X119031176Y-33695500D01*
X118984214Y-33582124D01*
X118950040Y-33499620D01*
X118825812Y-33296898D01*
X118825811Y-33296897D01*
X118825810Y-33296895D01*
X118671401Y-33116104D01*
X118490610Y-32961695D01*
X118367437Y-32886215D01*
X118287886Y-32837466D01*
X118171174Y-32789122D01*
X118068227Y-32746479D01*
X117837039Y-32690976D01*
X117755542Y-32684562D01*
X117713358Y-32673554D01*
X117677591Y-32648625D01*
X115515995Y-30487029D01*
X115508700Y-30479027D01*
X107741803Y-22712130D01*
X107737869Y-22708011D01*
X107686191Y-22651323D01*
X107624995Y-22605109D01*
X107620516Y-22601561D01*
X107561523Y-22552574D01*
X107551221Y-22546836D01*
X107545805Y-22543819D01*
X107531429Y-22534451D01*
X107517075Y-22523611D01*
X107448447Y-22489439D01*
X107443381Y-22486769D01*
X107376381Y-22449450D01*
X107359323Y-22443733D01*
X107343462Y-22437163D01*
X107327366Y-22429148D01*
X107253645Y-22408173D01*
X107248173Y-22406479D01*
X107175445Y-22382103D01*
X107157620Y-22379616D01*
X107140825Y-22376073D01*
X107123538Y-22371154D01*
X107047180Y-22364078D01*
X107041494Y-22363418D01*
X106965559Y-22352827D01*
X106965557Y-22352827D01*
X106895809Y-22356051D01*
X106888964Y-22356368D01*
X106883238Y-22356500D01*
X51529282Y-22356500D01*
X51523556Y-22356368D01*
X51519972Y-22356202D01*
X51446962Y-22352827D01*
X51446959Y-22352827D01*
X51371023Y-22363418D01*
X51365339Y-22364078D01*
X51288979Y-22371155D01*
X51271681Y-22376076D01*
X51254887Y-22379618D01*
X51237073Y-22382103D01*
X51164349Y-22406477D01*
X51158880Y-22408171D01*
X51085147Y-22429150D01*
X51069049Y-22437166D01*
X51053193Y-22443734D01*
X51036136Y-22449451D01*
X50969155Y-22486760D01*
X50964098Y-22489426D01*
X50895446Y-22523611D01*
X50895444Y-22523612D01*
X50895443Y-22523613D01*
X50881084Y-22534455D01*
X50866713Y-22543819D01*
X50850998Y-22552573D01*
X50792008Y-22601556D01*
X50787523Y-22605109D01*
X50726330Y-22651322D01*
X50674671Y-22707988D01*
X50670716Y-22712129D01*
X48212129Y-25170716D01*
X48207988Y-25174671D01*
X48151322Y-25226330D01*
X48105109Y-25287523D01*
X48101556Y-25292008D01*
X48052573Y-25350998D01*
X48043819Y-25366713D01*
X48034455Y-25381084D01*
X48023613Y-25395443D01*
X48023611Y-25395446D01*
X47989431Y-25464089D01*
X47986760Y-25469155D01*
X47949451Y-25536136D01*
X47943734Y-25553193D01*
X47937166Y-25569049D01*
X47929150Y-25585147D01*
X47908171Y-25658880D01*
X47906477Y-25664349D01*
X47882103Y-25737073D01*
X47879618Y-25754887D01*
X47876076Y-25771681D01*
X47871155Y-25788979D01*
X47864078Y-25865339D01*
X47863418Y-25871023D01*
X47852827Y-25946959D01*
X47856368Y-26023556D01*
X47856500Y-26029282D01*
X47856500Y-37970718D01*
X47856368Y-37976444D01*
X47852827Y-38053039D01*
X40750500Y-38053039D01*
X40750500Y-19374500D01*
X40767113Y-19312500D01*
X40812500Y-19267113D01*
X40874500Y-19250500D01*
X124625500Y-19250500D01*
X124687500Y-19267113D01*
G37*
%TD.AperFunction*%
%TD*%
M02*
