%TF.GenerationSoftware,KiCad,Pcbnew,7.0.1*%
%TF.CreationDate,2023-12-02T06:41:28-07:00*%
%TF.ProjectId,ARC_Remote,4152435f-5265-46d6-9f74-652e6b696361,rev?*%
%TF.SameCoordinates,Original*%
%TF.FileFunction,Copper,L1,Top*%
%TF.FilePolarity,Positive*%
%FSLAX46Y46*%
G04 Gerber Fmt 4.6, Leading zero omitted, Abs format (unit mm)*
G04 Created by KiCad (PCBNEW 7.0.1) date 2023-12-02 06:41:28*
%MOMM*%
%LPD*%
G01*
G04 APERTURE LIST*
G04 Aperture macros list*
%AMOutline4P*
0 Free polygon, 4 corners , with rotation*
0 The origin of the aperture is its center*
0 number of corners: always 4*
0 $1 to $8 corner X, Y*
0 $9 Rotation angle, in degrees counterclockwise*
0 create outline with 4 corners*
4,1,4,$1,$2,$3,$4,$5,$6,$7,$8,$1,$2,$9*%
G04 Aperture macros list end*
%TA.AperFunction,ComponentPad*%
%ADD10C,1.750000*%
%TD*%
%TA.AperFunction,ComponentPad*%
%ADD11O,3.500000X1.750000*%
%TD*%
%TA.AperFunction,ComponentPad*%
%ADD12C,1.600000*%
%TD*%
%TA.AperFunction,ComponentPad*%
%ADD13O,1.600000X1.600000*%
%TD*%
%TA.AperFunction,ComponentPad*%
%ADD14R,2.000000X1.400000*%
%TD*%
%TA.AperFunction,ComponentPad*%
%ADD15O,2.000000X1.400000*%
%TD*%
%TA.AperFunction,ComponentPad*%
%ADD16Outline4P,-1.000000X-1.050000X1.000000X-0.550000X1.000000X0.550000X-1.000000X1.050000X0.000000*%
%TD*%
%TA.AperFunction,ComponentPad*%
%ADD17O,3.000000X1.600000*%
%TD*%
%TA.AperFunction,ComponentPad*%
%ADD18O,3.800000X2.400000*%
%TD*%
G04 APERTURE END LIST*
D10*
%TO.P,SW6,1,A*%
%TO.N,/BTN_bot*%
X112750000Y-88899993D03*
%TO.P,SW6,2,B*%
%TO.N,+3V3*%
X117950013Y-88899993D03*
%TD*%
D11*
%TO.P,U2,1,1*%
%TO.N,GND*%
X48500000Y-47750000D03*
%TO.P,U2,2,2*%
%TO.N,+BATT*%
X48500000Y-52750000D03*
%TD*%
D12*
%TO.P,R4,1*%
%TO.N,GND*%
X120330000Y-81750000D03*
D13*
%TO.P,R4,2*%
%TO.N,/BTN_bot_mid*%
X110170000Y-81750000D03*
%TD*%
D12*
%TO.P,R5,1*%
%TO.N,GND*%
X120330000Y-94500000D03*
D13*
%TO.P,R5,2*%
%TO.N,/BTN_bot*%
X110170000Y-94500000D03*
%TD*%
D14*
%TO.P,U1,1,3V3*%
%TO.N,+3V3*%
X58464987Y-48498127D03*
D15*
%TO.P,U1,2,CHIP_PU*%
%TO.N,unconnected-(U1-CHIP_PU-Pad2)*%
X58464987Y-51038127D03*
%TO.P,U1,3,SENSOR_VP/GPIO36/ADC1_CH0*%
%TO.N,unconnected-(U1-SENSOR_VP{slash}GPIO36{slash}ADC1_CH0-Pad3)*%
X58464987Y-53578127D03*
%TO.P,U1,4,SENSOR_VN/GPIO39/ADC1_CH3*%
%TO.N,unconnected-(U1-SENSOR_VN{slash}GPIO39{slash}ADC1_CH3-Pad4)*%
X58464987Y-56118127D03*
%TO.P,U1,5,VDET_1/GPIO34/ADC1_CH6*%
%TO.N,unconnected-(U1-VDET_1{slash}GPIO34{slash}ADC1_CH6-Pad5)*%
X58464987Y-58658127D03*
%TO.P,U1,6,VDET_2/GPIO35/ADC1_CH7*%
%TO.N,unconnected-(U1-VDET_2{slash}GPIO35{slash}ADC1_CH7-Pad6)*%
X58464987Y-61198127D03*
%TO.P,U1,7,32K_XP/GPIO32/ADC1_CH4*%
%TO.N,unconnected-(U1-32K_XP{slash}GPIO32{slash}ADC1_CH4-Pad7)*%
X58464987Y-63738127D03*
%TO.P,U1,8,32K_XN/GPIO33/ADC1_CH5*%
%TO.N,unconnected-(U1-32K_XN{slash}GPIO33{slash}ADC1_CH5-Pad8)*%
X58464987Y-66278127D03*
%TO.P,U1,9,DAC_1/ADC2_CH8/GPIO25*%
%TO.N,unconnected-(U1-DAC_1{slash}ADC2_CH8{slash}GPIO25-Pad9)*%
X58464987Y-68818127D03*
%TO.P,U1,10,DAC_2/ADC2_CH9/GPIO26*%
%TO.N,unconnected-(U1-DAC_2{slash}ADC2_CH9{slash}GPIO26-Pad10)*%
X58464987Y-71358127D03*
%TO.P,U1,11,ADC2_CH7/GPIO27*%
%TO.N,unconnected-(U1-ADC2_CH7{slash}GPIO27-Pad11)*%
X58464987Y-73898127D03*
%TO.P,U1,12,MTMS/GPIO14/ADC2_CH6*%
%TO.N,unconnected-(U1-MTMS{slash}GPIO14{slash}ADC2_CH6-Pad12)*%
X58464987Y-76438127D03*
%TO.P,U1,13,MTDI/GPIO12/ADC2_CH5*%
%TO.N,unconnected-(U1-MTDI{slash}GPIO12{slash}ADC2_CH5-Pad13)*%
X58464987Y-78978127D03*
%TO.P,U1,14,GND*%
%TO.N,GND*%
X58464987Y-81518127D03*
%TO.P,U1,15,MTCK/GPIO13/ADC2_CH4*%
%TO.N,unconnected-(U1-MTCK{slash}GPIO13{slash}ADC2_CH4-Pad15)*%
X58464987Y-84058127D03*
%TO.P,U1,16,SD_DATA2/GPIO9*%
%TO.N,unconnected-(U1-SD_DATA2{slash}GPIO9-Pad16)*%
X58464987Y-86598127D03*
%TO.P,U1,17,SD_DATA3/GPIO10*%
%TO.N,unconnected-(U1-SD_DATA3{slash}GPIO10-Pad17)*%
X58464987Y-89138127D03*
%TO.P,U1,18,CMD*%
%TO.N,unconnected-(U1-CMD-Pad18)*%
X58464987Y-91678127D03*
%TO.P,U1,19,5V*%
%TO.N,+9V*%
X58464987Y-94218127D03*
%TO.P,U1,20,SD_CLK/GPIO6*%
%TO.N,unconnected-(U1-SD_CLK{slash}GPIO6-Pad20)*%
X83861307Y-94215407D03*
%TO.P,U1,21,SD_DATA0/GPIO7*%
%TO.N,unconnected-(U1-SD_DATA0{slash}GPIO7-Pad21)*%
X83861307Y-91675407D03*
%TO.P,U1,22,SD_DATA1/GPIO8*%
%TO.N,unconnected-(U1-SD_DATA1{slash}GPIO8-Pad22)*%
X83864987Y-89138127D03*
%TO.P,U1,23,MTDO/GPIO15/ADC2_CH3*%
%TO.N,unconnected-(U1-MTDO{slash}GPIO15{slash}ADC2_CH3-Pad23)*%
X83864987Y-86598127D03*
%TO.P,U1,24,ADC2_CH2/GPIO2*%
%TO.N,unconnected-(U1-ADC2_CH2{slash}GPIO2-Pad24)*%
X83864987Y-84058127D03*
%TO.P,U1,25,GPIO0/BOOT/ADC2_CH1*%
%TO.N,unconnected-(U1-GPIO0{slash}BOOT{slash}ADC2_CH1-Pad25)*%
X83864987Y-81518127D03*
%TO.P,U1,26,ADC2_CH0/GPIO4*%
%TO.N,unconnected-(U1-ADC2_CH0{slash}GPIO4-Pad26)*%
X83864987Y-78978127D03*
%TO.P,U1,27,GPIO16*%
%TO.N,/BTN_bot*%
X83864987Y-76438127D03*
%TO.P,U1,28,GPIO17*%
%TO.N,/BTN_bot_mid*%
X83864987Y-73898127D03*
%TO.P,U1,29,GPIO5*%
%TO.N,/BTN_mid*%
X83864987Y-71358127D03*
%TO.P,U1,30,GPIO18*%
%TO.N,/BTN_top_mid*%
X83864987Y-68818127D03*
%TO.P,U1,31,GPIO19*%
%TO.N,/BTN_top*%
X83864987Y-66278127D03*
%TO.P,U1,32,GND*%
%TO.N,GND*%
X83864987Y-63738127D03*
%TO.P,U1,33,GPIO21*%
%TO.N,/I2c_SDA*%
X83864987Y-61198127D03*
%TO.P,U1,34,U0RXD/GPIO3*%
%TO.N,unconnected-(U1-U0RXD{slash}GPIO3-Pad34)*%
X83864987Y-58658127D03*
%TO.P,U1,35,U0TXD/GPIO1*%
%TO.N,unconnected-(U1-U0TXD{slash}GPIO1-Pad35)*%
X83864987Y-56118127D03*
%TO.P,U1,36,GPIO22*%
%TO.N,/I2c_SCL*%
X83864987Y-53578127D03*
%TO.P,U1,37,GPIO23*%
%TO.N,unconnected-(U1-GPIO23-Pad37)*%
X83864987Y-51038127D03*
%TO.P,U1,38,GND*%
%TO.N,GND*%
X83864987Y-48498127D03*
%TD*%
D12*
%TO.P,R1,1*%
%TO.N,GND*%
X120080000Y-40250000D03*
D13*
%TO.P,R1,2*%
%TO.N,/BTN_top*%
X109920000Y-40250000D03*
%TD*%
D10*
%TO.P,SW2,1,A*%
%TO.N,/BTN_top*%
X112400000Y-34187493D03*
%TO.P,SW2,2,B*%
%TO.N,+3V3*%
X117600013Y-34187493D03*
%TD*%
D16*
%TO.P,IO1,1,SDA*%
%TO.N,/I2c_SDA*%
X53400000Y-26950000D03*
D17*
%TO.P,IO1,2,SCL*%
%TO.N,/I2c_SCL*%
X53400000Y-29510000D03*
%TO.P,IO1,3,5v*%
%TO.N,+3V3*%
X53400000Y-32490000D03*
%TO.P,IO1,4,GND*%
%TO.N,GND*%
X53400000Y-35050000D03*
%TD*%
D10*
%TO.P,SW5,1,A*%
%TO.N,/BTN_bot_mid*%
X112500000Y-75899993D03*
%TO.P,SW5,2,B*%
%TO.N,+3V3*%
X117700013Y-75899993D03*
%TD*%
D12*
%TO.P,R2,1*%
%TO.N,GND*%
X120580000Y-53675000D03*
D13*
%TO.P,R2,2*%
%TO.N,/BTN_top_mid*%
X110420000Y-53675000D03*
%TD*%
D10*
%TO.P,SW3,1,A*%
%TO.N,/BTN_top_mid*%
X112650000Y-47937493D03*
%TO.P,SW3,2,B*%
%TO.N,+3V3*%
X117850013Y-47937493D03*
%TD*%
D18*
%TO.P,SW1,1,A*%
%TO.N,+9V*%
X48250000Y-62000000D03*
%TO.P,SW1,2,B*%
%TO.N,+BATT*%
X48250000Y-66720000D03*
%TO.P,SW1,3,C*%
%TO.N,unconnected-(SW1-C-Pad3)*%
X48250000Y-71440000D03*
%TD*%
D10*
%TO.P,SW4,1,A*%
%TO.N,/BTN_mid*%
X112650000Y-61937493D03*
%TO.P,SW4,2,B*%
%TO.N,+3V3*%
X117850013Y-61937493D03*
%TD*%
D12*
%TO.P,R3,1*%
%TO.N,GND*%
X120330000Y-67500000D03*
D13*
%TO.P,R3,2*%
%TO.N,/BTN_mid*%
X110170000Y-67500000D03*
%TD*%
M02*
